<mxfile host="65bd71144e">
    <diagram id="SFkw5dKcWAoQLwKYEEia" name="Page-1">
        <mxGraphModel dx="1216" dy="867" grid="1" gridSize="10" guides="1" tooltips="1" connect="1" arrows="1" fold="1" page="1" pageScale="1" pageWidth="827" pageHeight="1169" math="0" shadow="0">
            <root>
                <mxCell id="0"/>
                <mxCell id="1" parent="0"/>
                <mxCell id="2" value="" style="shape=image;verticalLabelPosition=bottom;labelBackgroundColor=default;verticalAlign=top;aspect=fixed;imageAspect=0;image=data:image/png,iVBORw0KGgoAAAANSUhEUgAAAZAAAAGQCAYAAACAvzbMAAAABmJLR0QA/wD/AP+gvaeTAAAACXBIWXMAAA3XAAAN1wFCKJt4AAAAB3RJTUUH4AQICQEzQ75U1QAAIABJREFUeNrsnXl8VNX5/9/nzkySyR5IAiEkYQuyGEAgiDvua21dW6wbWlu3Wlvr0uXX6rftt61f235brbWLYlUKde+3VavWFtwhASTsOyQkISQh+zLLvef3xwQIIZO5CZOZCTzv18uX5M6Ze+88957zOc9ZngcEQRAEQRAEQRAEQRAEQRAEQRAEQRAEQRAEQRAEQRAEQRAEQRAEQRAEQRAEQRAEQRAEQRAEQRAEQRAEQRAEQRAEQRAEQRAEQRAEQRAEQRCEqKLEBMJQZMqUKQ63211gGMZIrfUIYJjD4cjTWgNw4P9RrVxKHfy/aZo1Sqm9QL3Wutrr9e4oKysz5UkKIiCCcJTMnj17jFLqKiClx0dxwEnAFCBLKeWOBXEIp8horb3Afq11jVLqPaClZznTNP+1atWqD+VNEURAhOOKWbNmzVJKna6Uyug6lAjMAU4FXGKhAYnORqAE2Nl12Avstizr1ZUrV3aIlQQREGGoCUW+w+G4WmudCpwAXAM4xDJRYQ/wnFLKp7Veo5R6a8WKFZ1iFkEERIg6xcXFJwGXAUXA54CESPbAAbTWW4DNQC3QBDR3/7yLTsuymoF2oE0pZQL+rv/QWncCrd3Ku5VSSd3+jgMMrXUy4ATSHA5HWvdhtG7zLulKqRQgDTgRmKiUUjE25LYf+AuwV2v9h9LS0lp5mwUREGFQmT179o1KqWnArUD6IFxiJ7AKWKeUwrKsNqXUrq6ec+sx6K1lKaUuUUoNV0olaa0dQCowFxinlBoRQeHZBryktf5HaWnpx/K2CyIgwlExZ86cNOCbWusJwBe7et8DxQK2d/V8D3gRdcA7K1as2CLW7p25c+cafr9/HHCKYRjjuwlKgtb6eqXUqEGowx7gZ0BbSUnJY4CWJyGIgAi2KC4uvgs4H/j8AE+xBvgn0Km1rtVa/2XlypUNYtlBfWYXATMJDLfFAecppYqP1oPpmqx/AfhTSUnJMrG0IAIiBGuEbgMeAsb186tLD/wnjUxsMWnSpLjk5OSvKqUygUuB2UchJmWWZd1VWloqS4kFERDhoHDMA14CMm1+5d/A+5ZlPbVy5coaseDQ4vTTT3d6PJ4rCeyruZLAIoj+8K+SkpLzxZKCCIiIx6+Be2wUXQy8UFJS8qZY7dhj1qxZUwzDuBK4ESi08ZVG4JKSkpJPxHoiIMLxKR7vAuf1UaREa/3T0tLS18Rax9278UXgywSWZwfDD5xVUlIiq7ZEQITjiTlz5vxHaz0vyMdvG4bx6PLly/8tljruPZM8h8Nxq9b6cgLhZHqyQ2t9fWlpqXgiIiDCcdK7fB84o5eP3gN+XFJSslSsJPTy3twOfAOY1OOjZq313NLS0o1iJREQ4dhuBP4D9OZ5/KCkpORHYiHBxjv0LHBTj8OlJSUlxWIdERDhGCXIsFUHgclQ8TqE/ojIRcBbhzUkSi1dsWLF2WKd4wsJdHf8eh5NWutzJHSF0F+qqqq25ebmbiewDPgAY3Jzc0dWVVW9IRYSARGOHfH4B3BBj8PNwNmlpaUrxULCAEWkLDc3NxU4pdvh2aNGjVpbVVUl8yHHCTKEdQwze/bsp5VSt/Q43GEYxiXLly9fKhYSjpZehkbrtNanl5aWbhbrHPsYYoJj1vO4pBfxMIGzRTyEcLF///7zCYTSP0CmUuopsYwIiDB0PY8xQG9j0eeVlJQsFwsJ4WLbtm1+wzC+0OPwvOLi4jvEOiIgwhBEKfVJL8fOltVWwmDQ5dH+pcfhJ2fOnJkp1hEBEYYQxcXF/wJG9jh864oVK0Q8hEGjpKTky8BH3Y85HI6XxDIiIMIQYfbs2TcB53Y/prV+uaSk5BmxjhABvt/j73lz5syZJ2Y5dpFVWMeO53E6gbwc3ZdmLy0pKZHNXULEmDNnzs+01g92O7TfsqzclStXdop1xAMRYpcf9RCPlSIeQqRZsWLFQ0BZt0PDDMP4jVhGPBAhRpk9e/aPlVLf63F4fElJyQ6xTi/2evnTKYbm80oZcaCV1tql4BIgq1ud8Hf9vwVo0bAHqFewF1RXKQVYFhoL2GdhvFRyzZzjPn1vcXHxFcCr3Y9prSeWlpZulbdPBESIIWbNmjXZMIwNhz1UpS5csWLFO72V//KXv5yktb5Vaz0BuEgpVdhb7mzDMLAs612l1Mda63cWL148JEKenPzSp9nA5crhGK1NMw04FaWKAcVR5gjvd+UyDDS0YVkfAmXKMFoty6owFa+svHpucyzY67rrrkvXWn8NmApcC8QH/T2BHOn/Ukp9ZFnW60uWLPmsDxF5Dei+vPfPJSUlN0uNFQERYqu3t55AetIDLC4pKbmue5n58+cXAVcBPzzKy72ptX5iyZIlb0X7d895efksw+n6nPZ50XCjgrFD9BG+hTJWGE5nhb/Tv7jkS3PaI3HR+fPn3wt8D/upjIPxAvCXxYsXv9XLu6l7eCGnSew1ERAhVoZiZs++XCn1t26HDps0v+66676htb4IuCjMl/4n8LPFixcvi4hYvLT8NIU+kIf7WpSaHGlvIoLUAM+jVAtav7z8mrkbwnHS38F3NcRVnXAC22fOvCsMwtGTT4EXFy9e/KtuAvIt4BfdyrxeUlJyhdRcERAh+uJxolJqbbdDXuCUkpKSVdddd93tWuvekv+EDYdlcepf/4oBWPAU8Ls7D588HTBzX1lxt7asTOB0pYxztbaO4xqqOtD6CWUY1abJ0yXXzunX0NeTcD9wHzACYM/kyeycMWMw7/gz4FeLFy9+rktEqum2L8kwDAmlIwIiRJvi4uIngTu6DQ98q7Cw8B3gN8A5g339hI4Oil9/veeL9Mgd8HC/xfDVkiSH1ndhWWei1KXHsHcRhuqq/6mczhc+vWL2or5KPgWXWPAkUND9+P78fNafdlokbnYpcO22bdvOBF7udvy9kpKS8+RZioAI0ROPM4Huw0dvjR8//j3DMB7TEWp8x6xbR97atb19ZCk4945AAxL8N7z0aYGBWoDiTrTOkqfab88EtF6kNb9ece3ckh5ex6+Be4JV+Pfnz4/knd64bdu26+mWUkBrfWJpael6eYgiIEJ0BOSfwIUH6mNhYeFqrfXMSN7Die+/T0ZlZdDP4+HsW3uIyMkvfTIGw3EXlnUPECdPMmzUAf9v+TVzn3oyMGzZZz6O9Wedxf5RoyJ2cx0dHd7Kysruz/uDkpKSM+WxDX1kI+HQE48buokHo0aNUpEWD5TqUzwAPHDrQeF4ZcXdJ7+8vBTUTizr2yIeYScT+N3JLy/X2866ZGGowsn790f05txud1xaWlr3Q2cUFxfnymMb+jjFBEOOW7pVTBITEyN+A1kVFXZc26tPfunT7Sj1dSxrmDy2CKA1vpS0uSHVZs8eyk88MaK3lpycTFNT97Qh/Ay4QR6aeCBC5LyPG+nKbe5wOMjJyYnKfYzatCl0WwYJwA/RWsQjgngT3CHLJDU0kHR4Yx4JL4QeXsj1XXlrBBEQIUI8ceAf6enpGEYUHp9SpNbWhizWOGGKPK0o0DlytK1ymTa8yHDTQ0BQSt0sT0wERBhknoQzfwfbF5SUpJy/dSsJCQlkZGRE5V7ybHgfALtmnSYPLgpsnHeZrXLZO3dG/N7i4uJIT08PeKhKMaWu7r7fwqny1ERAhMETj38CyzSMAxjd2MiJHk/U7mf0Bnsbo6smnyQPLwoobVEzJbTtE1pbGVZVFfH7y8wMbIC/cv16Tt65M1nBR09Cy5Nwsjw9ERAh/OJx4RFDAR0dUbmftH37cHaGTuvQPPYEaqfOlAdoE1NDu6XZ77fQhqLZtPBqzUB39Oyeay+Kf86WLVH5ve6UFNLb2rofSgY+/V3X/J4wdJBVWLErHj/tTTyiSf7GjbbK7SiWJf7BKEhJ4Py8TAwFc7LTOHF4cp/lGzw+3thVS6epKatvYXlNU8jNW1vOv5I5z/wy5L0Mq66Oig0mOhy9e0/wn9/CqXfBJ/KmiIAIA+QpmGfBQ0F7rM7IP7aU+nrSbQ557DrrYnmI3TgrJ4OC9ERumphDksvRr+9mxLu4/oRDm/48psUzm6rYvL+VT2uagr4ftROmkrUt9Gbv/LVrKS8qiqg9fEGWnlsBEXnxCTjtbiiXN0cERBgAFrzT1+e1YyMfuTxzzx5b5fbMPI2mbHu7nNstzSlZKUzKSCKuq1dqaU27z+Tjmib2tHXiUkM3WMLpORl8c3o+uckJYTtnvMPgjqmBlVaf1DTxxJrdbG8+ckiz/LTzbAlI3pYtERcQT1JSXx+PNuAB4G5pCURAhH7ye3jcBFfQ3ltSEp74+Ijek8Pvtz15vunia3o9nhbn5OKCTIqGp3Du6P5tDanr9PH3nftYUdPEqrqWmI+/U5ydxvdmj2Nk4uBuuD9lRBqnXDCNlbXNPPjxFlp95sHP1n7uOmb9+dchz2F4vQyrrmZ/BPcUKa0DYSGDF7nrSXjxTnhfWoTYxiEmiB3+CAl++L8+e/iTJtGUnR3R+8rbsIH0fftCljPdSXx0x6HMug6luGlyLo+fOYmbJuUyd2Q641Ld/b5+otPBSVmpXDYmi9umjGZcaiL7Onzs6/DG1PPLSYznv0+ZyG1Tckl2Ra5qjUqK58sn5LC2voWqtsAKPQUYlsWIjatDft/d1sbeceMiaqs4jydUSJXxb8Cz0iqIgAg2uRh+DpzSV5ndRUWhhgDC21u0LKZ88gmG3x+y7PrPX0/1ibOZkpHEV6bk8uhpJzA7OxVHmIehxqa6uXxsFmNSE9nb4aU2BoTkwrzhPHX2FHKT4qNyfUMpLinIwmdp1tS1BIYXfB7GffB2yO/Gt7fTmJODJ4JhcZTWZO3e3VeRgs/Bsn/ALmkZREAEG3wO3u5r6Wb96NHsmRLZHd5jy8pIt7la59OfP82dRfl8d/Y4JmUkD/q9jUt18/mx2RQNT2H9/laavf6IPzML+Ma0fO6ZXhAT71BxdhpZ7ng+rG6gOSePgpL3cTfWh27QHQ7qIxmhNzWV4ZWVxPWxLFxD7hvwvLQMsYvMgcQIT8L9ofLubS8ujug9aaV6nftwjxzJiDlz6J74Kb5gDG9edhJGFCa9Tx6RxsJzT+SJteXUdfgieu3rJo5kZlZqTL1Lnx+bhdc0WV7TTNrtdzPmo3cDHZCyMlqC9PpHbN3KnsJC2nuEGxlMagsKSG5o6KvI+dIyiIAI9uhzXKq6sBBPQkJEb6hn2JKUsWOZeMMNJOceGYl77BVXREU8DpDscvDQzLGsrW9le1N7RK55Wk46We7YjEx/zYSRjElNpDr7KgoyAsNqBZddRvOOHWz7619p2bXriO9kVlRQHkEB2TN5MqO3bsV1+KbCw3gKbr0dnpbmITaRIawY4VL4AzC8t898bjdl55wT8Xua8e67B4YSmHn//Yy5/HLiUo/sbTsSEhh5amyENBqRGEdanJPKtsEN9zIzK5VRUZrvsEtuUjxVnT7M9nYSWhoDnmJGBjlnnIGvs5OWHTsOK59WV0fF1KmBbIcRwnS5GNZHbhkNa9+Af0sLEZtIKJPYeRCFvR1XwNqzz474/eRt2IDuuv5J991H6oQJQcuOnDs3pmyZkxTPxPTBW2gwIS2R/JSEIfFeTR2WzP6xJxxxvPCaayi65/Cst8qyyF8f2Uyz1ePG0TByZF/14mZpHURAhAGy5txzaYvgsAKA0+8/GLZk2n33kTZxYtCy8RkZfX4eLaYMSxqU4aWMeFfI8COxRLY7jszh6XhS04/4bNjUqWSfcviiv8zy8oh6IBBIsetJ7t2mCiRzoQiIEAoLlh3mujudlJ17bsT3fADkbtyI4fUy9fbbSQ8hDmmFhTFr01NGppEe7wrrOYuGkHgcYFZ2KvW9eCEAk2++mdRue0ASm5rI3bo1ovenDYNNJ5+M7iVEj4YGaR1EQITQPHbgHy2Zmaw555yoiIdWioJ160idMIHMk0KEBdeazBkzYvflVooTMsK3t2FkYjzDElxD7sVyKkXq2LGB/nwvTPjSlw77e8zq1RG/x+bsbNacf35vAvJ7aRpiF5lEjxHegC2p8+c/XF5UxN7x4/FGIdc5wJi1a0nbt4/p992HK8Q9ZM2aRVIE9w4MhBSXk0aP/7AwHwNl3uhhUV1pdjSkuhzsbO4gsaHuiM/i09PRlkVTl+ehLIvO1FTa0tMjeo/ehATKi4pwmSZJTU20p6S0fMPjOU9aB/FAhBDMnz///0W9N2GaFKxbR96FF+LuSvwTFKXInDk0cn4UpieG5RzOIRzYMSXOScP4SeggvyHvggsO/70lJVG71+0zZvDR1Vez+tJLU6RlEAERhog3mLduHRoYefrpIctmz56NMobG6zM8wcXwoxx6ykmMH/Iv2MT0pF5XZAE43W7GXH75oYbB5yM7CnnTu6O1llYhxpGNhLFDejQv7m5rI2/DBjKLisiYNOkIcTB6JAEKOT8SY4xPS6S+s2lA301wGLbmPnbu3Mn+HgECJ06cSEpKbHSkM+JdbM/JZ/iOjfQ2H5I6fvwRHYqa/HxUFBvy+fPnz168eHGpNA8iIELfXB7Nixd++ikAo84/v2vCNThJuUNvZeXRbPobEyKCcGVlJatWraK6l5hhK1euZNKkScyePZvEKM1rHWBEYhxedyINBYVk7N52pMBMmkRyQQGtXeFOEhsbyd+4kYpJk6I3RGIYZwMiIDGKDGHFDnnRunBSSwtpXeHax14eWscSg2z88ng8VFVVUV1dTVVVFXV1dTFl4LS4gfWXVB8ZSKqqqnjjjTd6FY8DbNq0iXfeeQfTNKNug8wEF02jggd+zJw27bC/c7Zti/i+kO5orZOkaRABEUI1UkpFzRuc+PHHgcZj5kxcycn99j7a29tZv34969atOyge1dXV7N69m5UrV/bZuEaSoswUcpMTyHTH4TTsN4pjUnvfdd7a2srf/vY3W+fYt28fb775ZvQFxB2HNymF5iAi0nNoMr6lhfy1a6MpINI4iIAIsVpRMmpqDib2yQ4V7VepI7yPxsZGNm7cSGcfYbmrqqrYsmVL1G3sdhikuBxkJriYkJbIpIwk8lMCghJsea4mkEa2N1auXInDYX/tQ3V1NZ999ll0Oypd/2/KLQjaQeg535W7dWs0vRCXtA4iIEIfnHXWWdHxPpRi7KpVhxrYEHs6UgoOb3RaWlrYvn27rUu1tLREXUSSeskSmOgMCMrE9EQmpCWS5Y4jM+GQh5IQRDw8Hg+bekQrtsOqbvaOSkel6/8dacNoy+p9KDK3x5JeZ2cn+QP4rdJGiYAIxzB569eT1Nh48O/884OnX3AlJ5Mw/PBgwZV9RFENJiKN3a4XazgNxfAEF5nugIdyQkYSo5N7H75au3YtagC9cr/f36e3FskKXzOp9ygCib0MU46JsvAJIiBCEJYtWxbxVHoJbW2MWbPm4N/xI0fiiAsefLDnjvOGhgba+sjjEIx9NnKrxwoKyHL3PoKSmppKTk4Obre738OPO3qEUY+s03lI9PzxCbRm5RxRJruX8DQaOGHFimjcsk9aiNhFlvHGSmOlVETnQXJ6BMzLmzcvuPeRkoKrx16GhoaBxbhraWnBNM1+zR2EkwMh6m33sIJ4GSkpKYwaNYpRPYS1o6ODzs5OTNNEa016ejqJiYnU19fj8QRylDid0at2B/a0aB2wRcesuWSVfmDru9nbt7Nl9mx0ZDeQWtI6iIAIofECEUlvl7pvH6O7wrUf9EAyMmx7H0cjIAe+mxkqVEqM4Lf6J+putxu3O7BvJDk5mRNOCOz87uzsZH1Xro1obixMdDnIPizMfRyuE6cT33L40KIjJQWzpeWI709csYLNEcz/YhgySBLLyNOJEbTWGyN1rfyNR14qWE4Pd3Z2yKW9fTFs2DBycnJwuQ4NBXm93iHzXDr8ZrDnFVqou2VvTEhIOPidjD7EOhq0Zucc4VWM6pEn5KAXsnMn8RGcw7Esa620DiIgQmj+HomLDKuqIqOq6sjjQXYbtwwfMeBrpaSkMHbsWEaNGsXYbrvbo9mr7O+0t8/S9CYVyTZEtbm5+eC/Ozs7D84/JCREL5uh1ZvwaU1HxuEeoTsrK+g5DuwbilDHapk0DSIgQmgGfZuyVoopH/Q+3h0//Mh07C0jcukIEgY9Li70aFv3RjYlJeVgDzy1l7zqsUyL19+rdxFKRFpbW6msrKSqqory8vKY8D6avb2v1+hIG4Y//pCwOfr4bek1NaTX1ETkfpcsWVInTYMIiBCa/wz2BaZ8/DHK6n1OsufmMX+CG29SCt4g5Yf3Ijg9aW9vP+zfSikMw4h6TKj+4g0yDzLKRi6UvXv3Ul1dTUtLCwkJCYd5YpHGZ+k+53Q60g8904QQaZTHlJVFYnPhBmkWREAEGyxevHiZGsQKGd/ZSeauXb17Jr01/sOy+vx8ZJB4WN1pamqipqaGpqYm9uzZY/t7g0Wjxz/A7/W+kvTASiy75Ofno6IYV6opxO/3JqXgjw8sAEifPLnPsil1deRu3jzYt/yStAwiIIJNtNZ/Gqxzn/Dhh6GufVhP1JeQ2GfDYxgGOTk5Ia+7Z88etm3bRktLCw6HgxEjRkTNvj5rYCtC/ZamPchkek5ODhMmTOjz+w6HIybCuu/3hN5S0TY8kEa5rzmQA4xdtSpogqow8WdpFURABPu8PhgnzduwgbTaWltlLYeT9uGH52L36+BDOMn9WKE1fvz4qE6g22lAg9HiDT5FlZaWxsyZM8nJySE+Ph6tNVprkpOTyc/PZ8aMGVEXj3a/2fsEek+xTHDjSUkjLsQQFoDSmikffTRYt7x+8eLFO6VJiG1kH0gMsXjx4jfmz59vhVPYkxobKei24zxkQ5M5Ano0NM1eP5lBEipNnDiR3bt3U19fH/wlczoZN25cVBtRr6U5mn2aDR4f6fHOoIEVlVK9biyMFWo77ItnW+YI0hvqbZXN3L2b1AkTaM7ODvctvygtgnggQj9RSv04nOcbt3p1yKWrqqsB9LkT8SQd2ch7TYu2IEM4SinGjBlDYWEhOTk5hw2FJSUlkZOTw/Tp06PeA6/rOPq9JzXt3iH5TrX7zaD7WXpDK4O2kfaTho0pKwv3LWut9R+kNRAPROi/gDyqtf5BOM6VuWcP6Xv32ipreb005RQEXaXT7PGT5AwefiQ1NZXU1NSY7IH7LB10+Wr/G2ILt3Po9Ls0UNXm6ff3PKkZeIZnE18fOnZZWm0tmZWV1IUvU+V/LVmyZK+0BuKBCP1k0aJFbcBzRy1EWjP5gw9sl19txbG5w2R7U3uv/y2vaepXLzaW2N8Zvnh85a2dQ+q3V7Z29jscS8AFgPe+/VPb5ae8/z4ujycs96y1lsnzIYJDTBB7rFu37vWioqIFQPpAzzH9vfeI77YPoy9qJ02n7tqbyXT3vTmw2WuSn5IwpGxZ2+Hl472NNPtMTA0+U/fpQXSYFu9X7mdNfSsbG9rY3tSOQwXCvB/yRCzS4mPfea/v9A146XKL388rLQYO08eIjfbm0BI6OqjLO+rMzPcuWbLkn9IKDA1kCCt2+Sbw6kC+mFVRQarNVVcA7333V8y1sUKptsPLvg5vj2B8sU1ZfSsQmMc5MA9S3R7oKafGBSbFM+KdbG5s56l1FTT1MdR1UlYq907Lp91vUt3mIScpPqbFo/Yo5n0OeG2rvvQ1Cpe9RYKNoazMXbvIGj2a2oGLyLrFixf/Wqq+eCDC0Xshm4qKimYDE/vzvYSODqa/847t8svu+2/qx04kL9lty7vY1+GlMH1o7CT/ZG9Tn8NXHtOi3R8YtvvfsnI8pgWWRUdVOfvefpmWDato2bCK1q3rSBgxmn3ayfqGNs7MycBjWhhK4XbGXhU6WvEA2NXSyac1TaAUzTn5jP3Q3juV2NTEvnHjBhTyXWt96bp166qk9osHIoQBv9//eafT+R4wz1YFVKpfge6qZp7GrrnnANBgc57AY1p8WN3I6TnpMW27svoWatrtjcm//HEpVe++QcOKZbTt7D3tbsWiJwHYef4V5J5ZzIK7v8G+Di8e04opT6S63RNyx7k9Aek49NtnnUb19JPJWbPcloCc8MknbDj99P5e8uwlS5aUSq0fWigxQWxz7bXX5jkcjhIg5BbuCatWkWMzvIQGXvrjm3SkDwv0JAzFt2eMsX1fU4YlMzFGPZGqNg8rappCljNNkyce/AZLX+t/xIyskSP5xZ+epfjU00l0OqI+N+Q1LarbvWFb6LBoSzXvVtQf1jlZcPXJ2J2OLzv3XJrs7w15bvHixTdJbR96yBBWjLN+/frmyZMnP24YxnxgWNAGraKCsatX2z7vB/f/nNrxh+IdWRpOGZkeNANfT2o7vGggK8bmQ9bvb2Vt17xHX2wo+ZTbzypm16aBxetrb23ltb+8gHa4mDCzmFafidvlIC4KO+1rOrxUt3kGtNoqGE+t24Ov2/kUUD9hCmM/fNvW90fs3EnVpElYITJPaq1/smTJknukpouACIPEhg0bzHXr1v1m2rRpFwBHzFCm7dvH1GX20yZsP+8LlH3++iOOJ7kcjOrHcEx9p48Gj5+85OivzLI0fLS3kT02ltmu+XAZP7j+qrBct+SDZSSOyCV57ER2NHVQ0+4lJc5JYgTmRrY2trO2vpXadi8tPjMs/zX7TFq8ft6uOHInenNOHtnb1pOyd4+t+xtWXU1133HCrlyyZMmTUsOHLjKENcS47rrrfgXcezC3Rl0dM9591/bQQuPYE3jzx3/AF3ekUJyekzGguY3MBBezR6SR4IjOtqLaDh+bGlqptzGP09bcxB3nzKWlYX9Y7+G17Yfnx8h0xzEqKZ5xqe6wXqfR42dvu4fNje22siIOhAaPj9+v710k4tpamX/zefbPNWoU6846q+fhfYZhfHHRokVLpUaLByJEkLVr1749ffr0ZVrrMSO3bRsz+eOP6U+Qp/d+8Ditw3qPtOo0FFOH9T99bbvfYkdzB6rHfonBptlgZ01uAAAgAElEQVTrZ219K+v3t9Lhtxdp988/+y/WLw9/Rr0ReQWMnTy1m01Matq9bG5sw9Sa+k4fyS4nLqP/fbatje3Udnj5rK6VLY1t1IVxY2RvlNa2UBHEkzPj4qiZchITlr1p61zulhbS9+2jZty4A4ce6ezsvPLFF1/cLrVZPBAhijwZSEI1z275d3/wOFVFxX2W+db0AuKOwpNIj3cyNtVNQYp70H53faeP6jYP25ra+/U90+/n6hNyB+Werr7zXr5833dCltNATmI8afHOoJVPA+0+k6o2D+YgeRl98cymSvaFiPt11hP/xRibIgLQlJOztGzevPsXL14sK62OIWQZ7xDGgssN2ASEDEBVfeKskOIB8FldC3NGpA34nho9flbXtrClsZ285AROyEgKWy9lZ3MHlW2eAQdG3FdZMXiuvMOeM6+Ave0e9rZ7YvKd8lk6pHgALLvr/zFsx0ZSK+xFXM+qrn5ExEMERIgh7oYWIPdJuB94NFi5/eMn887DT9oa6qoN0/BIm89kU0MbmxracDsNClLcpMc7GZlof5J+b7uHRo+fPa2dtPqOfnnqqDHjBu1ZTDvtrGPinVpuY/lzQAkVH3/lAS764R0hHV/gG1+BjVJjjz1kCOsYYfYrKx4+ZcnvfzjlpacPm1CvPnEW733nl5hx9hvur0/L7zPybli8Jw1up0GSy4HTUPgtTaPHj2npsKfaTjA0Y+I9jG7bSErhRWH/LfPmTOHdt15npyeezZ3x+PXQrVZ/3lR1MNSLHbI3rOaSH95xxCKOqhlzGfXZp0V3wjqpnSIgQoxz8kufPgz80LBMJr3zGvEtjWy+8CraUzP6fa6BrsaKRQoTPJyQ0In2NOOv28Af/voe9/4kfMFezyyezBt/eJD4EVNR8Wn4tWJth5tKr2vI2WpXSwdLtvY/irrT76PotT8fFJGaSTOoLprN8mvmSvsiAiIMJQEJx7ncDoM7i/IHtGIoVnAqTXFSO8OdfrTfg1m3AW0GetYLX1nKXY88c1Tnzx2RwffvvIqbrjizqyYZuHJPPjhMWO93Utbups0aOhkTXtuxj82NbWE7n6n9SaXXnt4utfPYRfKBHDucGq4TdZgW/6ncP7SNkdzGcGcgJpTVtOugeAAsuGoe7//lYa69+JT+ezRjRvI/D17P9vd+c0g8ALSFWX8ojtZwp59zUltIdw6NHCp1Hd6wigeAoZyTpFqKByIMDQ+kGQhr3tivThnNsIShNxQzN7mNzAPi0bwHsyX4zmmlFEuXr+ejVZtxOBys31LB2i0VpKUkMuvEcWQPT8XvN7nwjOkUF40PuXnPkT4WI+nwsGWftCZR74/t9SqLt+1ld3NHeBsXh/OBT6+c/T9SO49dZBVWCNZWLPi21twE7DeU+v2Jec/8JUZvNezxRF7aXsPXpo4eUs8r1WEeEo+O+j7FA0BrzVlzpnDWnCkhz21n57fZuBOUwkg8FEjwlOQ2lrcmURujIlKyryns4hGwl5U0FOv8uspbHtSWditF64mjFz4mraB4IAN5ic5F8y/ryAB1a6blL5wRc73ul5frwQhtkZ/i5rrCkUPmuZ3SNXRlte3DbNwR1XsxkrJRRiDYpHK6eKsjH9OREFOVrry1k79sqR6s0z+y/Jq5Dw+Vd2d91a3zLFP/p0c98gPzp+UvfFlaRfFAbLGt/qvzOtp9/wrSHk8vK1/w3rT8hefG0j0P1n7l8pYOFm2t5suFObH/MivNcKcPs6kcq7U66vdjtR2exc9q2s/P947A1DA83kl+SgLp8S4sDRqNX8O0YckMT3ChBvGZHmBvu4eXtu0dzHcyfwiNNJxu+q1/BWkjXyorX/CNafkLfyOtowhISNrbfPNCFDmnbPeC4mkFC0tiR0EGr7mpaOlk0dZqLs3PJD1+cOdEFIF5CVNr9nf6aOz00eIzafWbaDQKFejBq0Byq06/SUOnn6oOD/PT6/Bl1cfse3VRWhOP78uizTJo9Ppp7CXs/PK9jQGxIbAabnyqm4wEFwYKC028wyA7IY6CVDfGUYhMRWsnr2yvOSxk+yA8yy8CtwyFOq81j9BHbEDDUL8GREBEQMJWO34AfC4WbmXGqyUZmIO72qeipZPfrd/DBXnDmZ2VGrLhCjTyCp9l4fVbNHn9VHd4afL6cSowUCgFnabF7pbOw0J7DHSIxxXjawo18KXh+3m6NjNkWYOAQG5oaAvpdY5JcVOQkoClNUopJqUnkhEfh0P1LjBr61t4Y3ddJH7ykMh9vKnmK/O8HvOcPr1JSyOIgISTy9aUL5gzPX/himjfSJzpHxuJ6SwFvFtRz7sV9eQnJ1CQ4qbJ66fR46PJ66fJ68diYGvDj5fJuHDuUj9wpt0tHezuloL2g6qGw0TGUIocd8BrWb+/lWavPzI/Vg2Np+rzmi9KcyYCEjYcDoVpajsV+DYg6gKCJjnSLXB5ayflvYT8jqYT0D4ENu05iGxPVhFYPVbV7qEq0gEcdez32tdX3XKD6ddZobVQ1hsF85SFnj0Sv/krm0W/srZ8wbRo368y1Eh5avDC/mEx78m8uH+YPKgYwvTrZ+1pof6RWEsExBYzCv7cBNgVkeuj7oDI8CwALjRvNaWF0bAWKowew4etybRax1eVG/diacyOcqzbc8vVNtvAymn5C38gNUwExDbT8hd+y47bquFb6ypuyY3qzSoVJ08swGM12fgGMs+gFM7hJ+AaeRIJk6/CXXQD7mk38VHaJbiLbiB+3IW4RkzDkVYwoPtq8DtZWJd53D2P4fjmxuq9WZb+o82ij0rN6h2ZA+lbHp4DbgxRyKEMbgMeFnvFwJCEVjywJ5f/zdtjy3cwkkfiTBuLY9iEXj8f3ZVZ0UjKxkgK7C7Xfg/+2nX46zZiZyGtAh6uzmGH5/jTeaUYC3wYa/e1tmLBbVqTbuP+9xblyf4P8UAG9PKrB201Wqb+nlgrdvisPZHrd4ylpC2plxfewjlsAnF5pwc8i7HnBxUPgLFpR65EVc54XDmzcBddT1ze6Rju4PMaFd54rtsxjrJ29/Fai2Ju0mdt+Q0pWvM7W11ILXs/xAMZICeOfmZvWfmCt4CLQ9mxrHzBw9PyF0bLCzHlaR3OHp+LB/YERhb9XTMZLjQ3ThrFnbl5ts8TFyKkvSN9LI70sQD85N23SHVqfCji0axsT2JDR8Jx/RwMpzMj1u5JGa77taVDZkxTSq0pynvmp1KbRECO4m3jx+iQAgLwXaI0jKXQIiB9vuSHhpmy+hldeGNDG5Mz7MUE/MwcRUVTpxi8Rxc+lijbfWOWZenv27t1/Vt5gCE6CGKCvpmWt/Bj4AMbRV1rKxbcGKU62iZPyh5zR/RvlZbtHOHA7OxUMXDPd9OyYsz7cHwfe/tWl07LX/hHeYIiIGHo4WOzx8IT0amltMpTskducv/mIjpN+w3gYMcJG5oOiI6PHe9jQZFS6h47Zd2Jzkfk6YmAhIWi/IXv2/RCUjZW3XpNxCupsqrlKdl84dXQPPcQ7nyNjKGbedROTCulWFmY+cel8vREQMKG02kstFPOb+ofR/re6g2jQp6QPQYz+qxfNnT2RkyswiqruHkScJHN4rfJYxMBCStTRj29EMVyGy77xLUVC+6N5L3tuGpuhzwhe+xubh+0c0vA1t698thwPtSfbBZdWpS3cLU8NhGQ8KNZZPN1/XykbqnkO/lfKH0oZ6eW5JK2KK1t6WfD05/XQxSkF9KifQNryxecpjWnhWwMDQWKb8kjEwEZFKblL3wcCDlcpLWet7Hq1osH816WP5g/bflDBS9aWr1m4Rwj+mGP2g7voJ3bIRFbjyDO8oxZ/lDBtz/5Zmr0VhgobA0ra81T08T7EAEZVIMp9Qs75Xx+a9AysZV+d8w8lCoFrgn0fA3EA7HHW/1MpNQfqzrlERxZD5RjGPA/RnxGx4qHCn756QN5RZH1Pm6ZqTXzQj5npdCW9TN5YiIgg8qJec/82uGw1VJcvab85umDcQ8jMhz/GZbicHW/jzjLKw/HBvs9PlbX2R/G2tZkf87EZ8oQVk88xsFVvI54l/pmZpqrbO8vJ0QsFbRG/8Jm0UenFTy7W56YCMigY5r6AXu9VzUoO1lT3Q4yUx2MH+liYm4c+Vkubmp5iXH+SvFEbLDC5ubA1XUtLKtqYFnlflvl/76rVox7sOFWFPr2sKDlRQqyu97TbBfDUx3Eu1REIieUld9yL9jxPgB/h+z7GADS2gzUNa5YoO1EaVAwsSh/4dZwXrvh8cJG+picbDCG8X+JZ7MlbgIr406Uh3VE4wavXDSd0cnB41Rtbmznhn+txegq/+RZk5mVFXyn+aMrd/Lqzn3HtWBM9O2g2LOaszpLGOOv6Kszszzj61sHPcx7WfmC7cA4G0Xvmpa/8EmpGf1HYmEN1HVzqN+Zfn2HDQX5OXBlmC+/py8BybD2c1PrK10upp+PEk5lm3M0jcZw/pY4DyfWcf3sFPDjlTt56qzJvX6+rr6FBz7eetA9V8C3PtzMbVNyuf6EUYeVfaeinnfK6/iwuvG4s+N4/x5O6VxOsvbwhbY3DhvQCOEJ74mAeNxhUzw6RDzEA4k4Zbuvc6LiW4H4UO6xw6HTp4x6tilc1254vPC3wJ0De+Caba7RfBx/Mi1GKu+6T6dDxR+Xz3B6ZgoPF48jJyngiXT4TZ7fUs3TGyqDVgylFLdODkT5fWFLFZ3+40OMNYpC/x5O6fyEBO3j2rZXMRlwpOFXMr6+9epY8D4UfKkof+FfpUUTAYk4aytu+YnW+rsh3Tyn8ciUUU8/HEYBeRj4YdjO58jkb+6z2OoaS0n8DIzjaD+DBiamunEZinWN7TIp2A0TxcUdS5nk28n5He/j0r5wnXpQBaSsfMGDgJ0VVea0/IUyCnMUiPGOpvGx9B+UwXdDzYX4/dYPieGMhRlmHTd3DXkBNBup/Mt9BpXOXF53n4XrGB7yUsDW5sBG/uNdPBQWn2t/n1yzis/3GJIKM/WD+juU+pmdCUqHQ92BIAISLaYVLNxdVr7gETveQFn5ggem5S98NDwVZHDTLKRazVzZ9gYAX2/6AwYmb7rPodqZxf8lXkyHpGA/JjCwuKT9P2SbtVzb9vcegjE05bSs/OYntL3K0Tw19xkJ1y4CEuVem+I9rW0NJz0MPDoUf6OFg4s6lgGwoOVl6h3Z/N19Bk40/0g8m0YjXV6EIYAPg4s7lpFt1jHHs5bJvs3og0JhHCP10bjLjoAoxQJ5I0RAok5R3sIPysoX/AO4LERRd7jS3g62BxKK4ea+g0Ne17e+ih/F35Iuo1MZfJJwKluduV1JZIWoNqZdQ1IpVgPF3g1M9m467Kno6InGoOwDWbfnluctexEtlxblLXxV3hARkNgwosv4hd9nXWaj6NcIw1yIpfW2WFr/4ERzVdvfAfhy69+wcPCu+zRqHcPZ4RrPh8fZxHy0MLC4uP0/pFvNnOwp4wTf1sOW08bQE/CF+4Rl5QtO0Vpfb7O4bBoUAYkdpuQ8vbSsfEEpMDtE0ZFrKxZ8oyhv4a+PqqGweNOK4fVzBiYXdrzfrSdsUhI/m3VxhbyXcBq1jmHy0oSJTLOe8zo/othTxonejYd5FcdZVIIbbHrlb0/LX7hU3hwRkNgaLlDcoTUhY/xozXzgqAQk7Z5t+xseLxwyttE4mO1ZzWzPam5ueRGAHa4xfBw/ndL4WWxwjRMPxSYjzQbO63iPk7xbugSju52Pz3VkZeULTgHsrqiSgIkiILFHUd7C0rLyBZ8BM0IUPXn9nlu+OnX0M384nu01zreLcb5dXN/6NxSaNiOFvyZexB5nDh8mzJENSgSGnIZbLVza/jYzPZuY7NsEsTkkFW3s5vB4VbwPEZCYxXAYP7JM65VQ5UxLPwAclYAYhsI6RlLgaRSJVisLWl8OeHOYBz2TdiOFFxMvOKb3onQn09zP+Z0fkma1cm7Hh6RY3SMHHyuyqjvDdaZNe78yz+s1bW1K1FrfI61UeJGOXvjd6VogM6ThDXV20ehnBtwbav5toTaPo5BWu5w5fJBwCu0qiX8lnkGLch8Tv2uk2cj5He+icPDF1tdwHB++1aMZX9/2YJjq2zvA+TZaur9Oy1v4JWmhxAOJbUVW3K01S2wo9w+BAQuIabEbKDhe7DrGX82Y1sDKy9tbnqPZyOClxPNIwMO77nlUObKHRG8ow2rhc+3/BBRXt71NXPg648cd66tuucD06/Nt1EkcLutWsZh4IEOCtRULdmrNmJD9MJg0PX/h5oFco+HxwveAc8TaAVqNZP7tPp1KxyheTjw3Zoa8TBQXdXzCeP+OXoakjlfC44GsrViwS+vQnSiHQ/1+au4zt4vdxQMZGtVD80fgJzbU+9fARQO8TIVY+hDJViuXt/0TgDuan8HAx3sJZ7Ilbhzvus+mNUIRhzVwTudycv2VXNf6Kob00QaFsvIFl9gRD6VAxEMEZEgxLX/hf3fFyApl3wvXVNyUMz3vz9UDuIyk3+wDCxdnd37C2Z2f8LXmRSgsVsbPZoMrn3+5T2evY0SYrqM4s3M54/y7uartHeIPG5IS8RhEFtlq4JyGbBoUARl6OBzqJ6apQ8bIMjAeA748wM6uYNtYBjM9q5jpWcX1ra/Tbrh5x30ObcrJxwmnsd2ZY/tccz1rmeDbSqGvnLmekuN2/8XAUR1H6X18AbATgK3a5+34sdhbBGTIYVr8DvieDRtfV1a+4FfT8heWitUiR6LV0ZVFLxBGcHuy/fQUDzX+ioSu3BgiHpFlw56b3X7LnvcB/HJawV/8YrXBQ97+QWJa3jM1wK9C9owDfsRlYrHocaJ3W7/KJ2ifGC1K+C31bSDRRtH90/IXPiYWEwEZuiKSv/ABm0V/uGbnTf0KEGXI8HrYmO5dY7us7zjZqRHD2J3T+KmYSgRk6BvYUL+zU87hcvRrl6yhREHChdWPkdxTPZ+JwaLE2ooFD2NjZYJSart4HyIgxwTasL5nqxGzdL9ynIt+hBe7A+Un+LaKsaIhHnsWjLCZuA2NvkUsJgJyTFA06tkG4F07ZcvKF/y33fP6TKtDrBs+zvSU2esQyOK3qKBQz9rsWK2elrfwfbGYCMgx9PLzHZtFH+jHWWUmN4yM8e2wVW6Od4sY6+jp1+rPst03n2hZ2t6GW62/LuYVATm2vJD8hSuBjTaKOsrKF9jdNSvLE8OKvdAn432bxVRHjXb1qwNmqIdteh8fFOU/+5HYVwTkWOQrNss9LgISeU7yldsq59KmGCuCrCm/ebzWXGXHzdda3y0WEwE5JpmWv/Bj4G077v2G6lvt5HaWTaBhZLJ3lQ3FVjIDEmEU6rf2nBp+Py3/2TKxmAjIsVsZDPW8nXKm37rfRodLPJAw4tIWZogVojlWqxgqPDXB1hrCst0LZgEX2jzbc2JXEZBjmqLRzywyDLU0ZGdKM62sYkGo5DfrxKLhQ6PICJGbY3bncjFUeLCVBMU04x5ra07BxtaPp7o8fEEE5NjGsnTIOD5KaQyDr/VVJv3rW99HAiqGV+A9a/v8PNOqFyOFo9ExVEgBeeEvv7mx9L3Z89Z9UsTyt09h5/oJNO9P67VKEUiLIIiAHPtMy1/4JwW1PY97OhIo3zyGT/95Gp/+8zQ+fuO0eX99+fEr+nx4iv8Si4aPCf6+Nwn6cImRwuHtWVbIjJ3vL1v10D/+8Q+WLl2KUop9e7LZWDKVbWUTexb9UVHewk1i1eggE7HRUG2n+r7p178H8Hni2L62kKb6tK7eGWzYsJFt27YxfcaU24HXgp0n7e6tDzc8XngNMEWsevSYJPT5uWQTDMO7ryhLu3tbn5tuRoxwf/sPv3928oG/Fy1axAUXXMAVV1xBfXUm+2uGM/OsUpxxPsB6SqwaPSQgRpRYX3mLbqhLYeOKEwFobm7mzTff5L333jusXPaIxFP21bR/2te5Gp8ofFdrzhOrHh0vJF/JC8nBnb7Xa24jQXKYHw31YM3O+Pr2XSHKbQfG9fbBnXfeyUknnURSahtFp655qChv4c/FrFHsEIgJotTbNfW9W1dPRinFm2++yX333XeEeADsq2kPGdcn/e6t52utLwDqxLIDx6P6jrTr1hI95qjMq7jahnjcHkw8AJ588kmWL19OR2sSIh4iIMct0/IX/tr0O3jsscd47bXX+ip6GzaGqIbds+1dpZkDLBXrDozxvj1BP/NLVTmqYQ4FF6XfvdXOuxkyevWf/vQnnC7zHrGsCMjx7YXoxoWbNtma/7PV00q/Z+vOjK9vPXtN3GQx7gCY1UecqyTdjpYR3wGhYVH6122Jx6N2zudyGZ6bbrz9cbGsCMhxzdduu99u2OnLsJeFDYDvDntI9kwPgESrIehnJ/cza6FwiN+m3mDXePfbKeTzWXeJVUVAhADP2yxnO1KvicFfkz4nlu0nTvxYQbyMDLNWDDQAdrsK+HvShXaKPmzzlJ8CT4tlRUCEAA/aLNevhFNPp1wrlu0nGiNovo80SwRkILwfP4OTE1tntZc9d3tH2XOnheH9lonzmOp0CdGmmkAEXjt5DB7sWYE61jyXoRWzQcUphQF4521WKA2tRiLJVrtYuB+MNWspd2T1Ii6SC30glMWdxCx352XAZRpoL3sOpRRa6xLgTYdh1KScdPNMr89WaLelwOtiVREQ4XD+YlNAHulc94LbsiyArxiGyrUsfbCJ013/1Dow3fv3xAuY3yr1rT8U+IMJiDjrA2FVXCHFPQIv6MCLWgwUm5bFujce47nX3+fHT74a6nQSeSHGkFoRG3xKHzvOD3DvzZfE729q/WGXu99NPHo2dgf+LwF7+8sws6rX46aswBoQLqyQCzpGjxzGd2//AruXPsHUwtHBir0D/EcsKgIi9E7QgHAOh8G/n/8B//2tL5GeEnox1oHlppviThKr9pN0qy5IRZFEUv1FdWV5bDTtDXRkDUul9NWfcmZxr8vQF4hFRUCE4CwDPuztg/cXPczc6RP6fcKKXoZihFDi23tjl2W1iXH6bctA81Lrsz9SrrXmV9+9sefhl4EqsagIiNA3R6Tk/N4dV3DSlDEDOlmtkSwW7SdWkCqRJcmkBiwg1d74fn1v8vhcbp9/vngfIiBCf2hevXDLnGnjDzt20RnTB3y+diNejNrvRq/3uY402QfSf1SXgPj7v4ItKyMFgDOLJ9O+5jmZPBcBEUIRH+d68wd3X33YsZNnFPa/3oopj0JAeifHXyHGGWjHyOp/M+PpWtb78uPfRCm+2bbm2ZFiSREQIZi3UPb8t0zTmnfO3KlkdvW+AN5fsbH/D7VLQeK0rMIKmweiG8Q4/TamddCm/e3UPPf6+9xy9dkkJyagAcNw3C4GFQERgnoN+mBcrIfvuebg8cX/+Kif4nGoqmbKuH2/cfay2koDWrIRDuCdDgiIA82B1/LDlZvwm1af3vPVX/8Ve2sbeeIHh6Y+tNZ3i0VFQITeOmoVLxoaph74+5ar5jG1MA+Ap1/+Dzfe/1vbPTilFAd2FOaZ+8W4/cTV63JdJRsJB9YpOvjvVtPAMBTX3PO/pJ50Mw88uogPSjfhcATs6nAY/Omlf1N4wb28uWw137/zyp6n2ysWjcUOlxB19uyBzGR1YIcuADd+4Qwe/J+/APDy28tZu6WCay46GQ3EuZx4fX601ny4cjP/fPo7B79nWtY+IBvgBO9nYtz+VggdbHOmCEi/O0aoruErTYvp5IWX3qKpJRBa54kX3uaJF97u9XuZGal87bpLaW43SU10HPCsxQMRARF6I++Ua62Otc+/DFwNUNvs57YvXcCvnn2TvbWNAGzeWcWPf9f7ZvU9e+sZPXJ4V0XjNeBrAPFaNr/1v0LoXhpCJBfIAMkyG6lzpLHLE8f/Pvumre/ce/PFDE91YVng8WmSEhxfiJt6/VKxZuwh3aoYwV10wzXAd1o7LbJSnSS4DG679hxb3/3Rb1890Etbamr1iwPHL2qXyA/9xSF5VMLK2Z0fAHD9r97w7KoMvRR68vhcvnnzpYH32YDEBCdxU6//m1hSBEQIQeK0G3+WnHDokdz/lcttfe/5v33A4n98vCCh6Iazi7ePrQbwo8iwmsSoIiBR5fyOj9Gmyd43ltjalPTjb36RbutAME1zkVhRBESwiTqwdAVwOgwe/OrnbX3v1u8+NQYgye8YB3BT6ytizHA9ExGVAZPvryBryf2Y7aFDwUwtzOPiM2f0NP7zYkUREMG2gBg/6v73V20OYxGI0DtKoQoMNDe2virGDBMy/zFw2r0Wb7z+sa2yv3jo+p6dqWcSi258W6woAiLYJOHE6x9WgcQ5AORkZ3D958+w+/Wvaq1yf7b/J9LoDVgshHDy/dfq7BZdembx5EeAR4BHEhLiLnIX3XirWDDWvXMhJulc+/ztltYjIbDKauIF37ST8rOt5g9zS+I89fPEggPj/5Iu5cmULx12zELxzt7rxTgDIPMb2zAtW7J8Nt06TsLQQJbxxqonUnTDUz0OzQEuDvG1pKfe2DbvnvMyxIBh7mUptHh1A2D+nBRe+LQ5VLGNIh5DExnCGjrcb6eQ15RBmKPBo4JVCbHrQPjupcOJc4YU3q+KpURAhMFlPbAqVKEzJyaKpY4Cf5AqYWCJcQZATrqTFd8vYO54d7AiTxIkkZogAiKElzv6+vCnV2UxZ2yCWCnMAhJYxiu7+gdKwXAXb907mjfuHc0ZEw8JidullgJ3iYWGLjIHMrRYQWCseF73g/PmzeOrV57GxY7XwfKKlY6CYBkJFX5AEnQdDaeOd/O3B2dijb0MnTQS38jTR48qKBTDiIAIEeRs4AEg8dYFN9901tnnjDn33HMBaOcujMZtOKqXYbRU4qh492BWOMEewTYNNhqZJFsdYqB+G1Thn/AldFwS/vyL0e7h3T+dUFlZ8a3c3LxfiqGGan0RhiyVlZU6VOV1VH2Ao64M5663wNciRgvB88lXsn8xDOwAACAASURBVCj5iiOO/7HuO+T594iBbPhw1rAizJHFmLlnY6UU9F1cW5/mjs47RewmHogQQaqqqh7QOsTKIK0xc07HzDkdb9GdAUGpWYlRtxpH9VKMpnLpQ9jsUdU5RomA9PqO+fAXXIZOHI5/zBXoxGz6tWJNGXNramoyR4wYUSfGFAERIlVvtR41gC9hZs/EzJ6Jb0rXJl/Li2vH/6E663HseRfVXntci4oKstqqxUiSl057MUedi5U+BmvYDMyRxQfT1nYr1O/TmqZ5J/BfYmARECFSDZ1St4X0QOxgxOGbcHXg3yd+7WAj4Nz+MsrXjmPfGoz9ZWAdH/nVgwnIfuN4mkC30Amj8BecA8rAHH0uVtq4g5kuD2lFeJY2a62vFQERAREiRE1NTbLf7x/EDR8K//hAXnbfpMDfyt+GY28pqnkrGE5U536c5W+Bv5NjaTW4FaQH3aqOweXRVgdmzllYw6YE/na4An+n5h8pDnrwNlIqpaZKrRYBESKEaZoRXjuv0c5E/KPPBM48eNQ745ugFJgenBXLUO0VXWKiMVprMOpXo9oqQMUNGdu2GL2HgTFxDK2XRJvgTMDMmoOVNgaMONB+cKVhjizGSh0b3IPQkd00qbWmoqIiNS8vr1lqtwiIMPgVzh1DNwNGHP6C84N6M6BR/g6M6g8xmjeDkQSGC/ztOPZ9htFSAWZrYJhMGURnDsYC5aDRkROkl+wIlIEoeVyag/MLjmR0/DDM7OnopBywTLA6wJmAP/8ydEIGGM6+vQYdWzvrHQ7H50Fyf4iACMIRDR9opxsz73xMDhca39QgoqMCIQwxO1GeJpSvA+X3gLcB5WkEqxPl70pS5K0/8hSuDFAG2uEGZyI6Lh3iMtDOeHR8CjouJdArRx/WmHasrYBeVjubk66nPe/ObrfYJXSWF9XZgPK1o3wd4GtGeRrA7ECZHYGNnf5eThgX2A9xxP254tGOeHRCOjjcXffXTTz6I+xDCKXUeKkrIiBCZLjmmBedAw2g4UK7MxkUn0sfGZ4k1Z0ELUdmzzMJMoGsHBG9v2MVy7JSpFoPPWSb8hBEKTVBrDA4pMf1PtfhkP0yg811YgIRECEyxIkJBgeX0btQuB0iIIPcKRohVhABEQaZqqqqaVpLboqIC4sSARlMtNZiYBEQIQJMEhMIgiACIvSbuLi4KWKFyOMXry8S3nWaWEEERBhEfH5JbBQN2iVV8OBjec4UIwwtZBnvECPhxTmYeRdjpeSh3Zn4x14ec5vChjKN3t4F2pSc6OFHKVxbFoPpwVFbhrHv02FiFBEQYVArXRyOPe8dDKwRt+oxrIxJmCPmBHYi554T2J0sDd6AqOrw9XpclvEe7Xtr4Ni3GqO2JNDwbH8V5Ws/rIjLFTdWDCUCIkQYo2ETRsOmQCVc94dAFrj8i9DuYZg5Z2JlTBJBscm6lt5TAhuiH/1Da5x73kG17cVRU4pRX0aoEDU+v6zEEgERBpsv26q8u98KCMqmRV0HTcxR52Gl5WOlT8IcdZoMffXsJCvwW7rXZi7Y0JYAyuzEuePv4G/BUb0co2EDqJ4bMm1pgywQEQERBpkB7kJ34Kj6D46q7scsdHwK/jFfAIcTc+QZWBkTj1thafdbQZu5D+rauW1cxvH95llenJUfoFrLUW17cZa/Cb1FKVYDjlx8hlRvERBhkHvJ4VtRaqA8bbg2B7wU14Y/HxIW1zD84y8DVCBdaf6lh4IPHqO8tbct6GctXeJyzA8EagvVXoNz1yvgSMXYvwFHTUmQuFzhDXHvMGQ3ugiIMHg95J8T77Gsrkiwg4mB8jXi2vTCwSNxq/4XtA8rtRBrxOxANFvLD650zOwZAc/FGtrDPF4ruDwoYJ/HJCveMbRfIqVQvlYcVZ8EcrWgQFsYTbtw1HzY9QyjMxVhmj6p5CIgwmDRfFPN3aZl4tqyJJDDfNebKF9rBBsfF0bLLoyWXYcddh3svfogPgV/3sXouLSuxskPhoE17CSs1Hy0O6triCyW+vIqkLo1hGv3VnUzN44dHoNDfIHw98rbjGrdi9GwDtVZC6rryWgTx75SjLpSMBJDCERkxUMnjcJfcBE6YRj+sZ+j8iqdnZubu09q+xDpj4gJhg6VlZW/BbonpcBo3IKj+iOcu99CtdcMkWESPziT0fEjsNLzsVLywREfGCbRJmCiXcnopNFYqePRKXkDu46/HaNlD6q1AqNpMyhnYHxeOcH0YDRux2jcivLsQ2Fw3shFOPoQtlyrmaf33QEotDsXK2M8VnphQAwtE/ADJlb6FHTSKKy0CQP2FlVrJUbjFlR7ZVcnwdF17wYoR9fnOzHaKsDX1DXvMBSqs8ZKn4g5chb+cdeiE47Y+vH93Nzcn0htFw9ECD/XHFkZC7HSC/FNvjmw1n5vCUbdSpy73kB5mmK02+IMJIpq342jfXcMJIt1YODtUzwAKo0UDgRvUB1VODqqcFR9EBv2jHXByDklsAE2OSfUF1xSzUVAhMFoJ5TK0iHSlJojZmGOmIVv6lcDHkrDBhw1K3DsWxPYxKUcYsjexMExxkZTKJF/QmtxPP7R56ETs/AXXot2Jvb3DNcBD4shRUCEcPfl+r38SmNlTMbKmIxvEgEPpWYlRt1KMFw4d/0D1b4PGcmEcldoAVFoFBot9up6vfyYo8/FSh0HCvwFl6HdmRzN/JZSaowYVgREiMkKb2Fmn4SZfRIAvkk3dYnK6q4JVidGw3YcVf8CdXzlrNrqzLJVzkQdh36IhU4Yjpl3AdrpBmcS/rxz0AnDe+20HCUyhCUCIoSb6urqEyxrEFb/aAszezpm9vRuB38E2sS54yWUty0wadtRh6PyQ5SnPgLLiKOgrTbL1TnyyDYrjs2XTBlYw6ZhjpwdWKJttWLmfw4rpSCiXnZlZeW43NzcHVLrRUCEMGEYxiWDIiDBmlNl4B//xcMPn3Tf/2/vzOOjqs7//z53sicEJAQUgVYrigJBe4GZWm2Bum+4MHWpxP5al2+ttt+2tnaxdWttbS1u7devv9YqoFUYtSouBatg6zJDOSqriIoKyKKsgSQkmbnn+8e9qRgzS5KZZJbn/XrNC165Z+6589xzz+c+Z3keUBaqcQu+jYtQbbshFsO3+SVvlVNpztq3WVWnVG5pycEc35zDAmIcKC4lOuxETHkNECM25FicAQeBVUqWLK8eAYiAiIAIaXs5VCo7ku0Yx50gPeTjBWFtYy75xFss0UZ8m5ZgNW2A2F4wMayGD7B2voHa857XUWXXPMLaFOZAAD4oGpSd/pNpw5QOwvQfhVM9DFPaHzCYsqHEakdjqkbE2U3eHT8s4xwCLJKnXgRESBOxWI7s8jYO+MqJDTuWxFesXA1xoqjW3VgN72FtXezup7BKAQssd2+D2rsN1fSh9+9OlLPX3UtiYuC0ePXGPt1BKvXxZjqr1NtHUYzxlWP6DcEpr8VUDQOleGnbKCpI7uFZg+poGzEAos1YTVtQuz9ANXvX5Ox148wYb0e100lkX+Xt58CAVfaffSnGKsNUDMCU1WDKaz+ejDbOf36nMi04/UcTq7UxJdVgFXlCnELHb3InSkBpaekweeJFQIR09st5l1LVuP2e8mFKBxCrPZJY7ZF912m9tD4lp6i15kjaRnw5u+yYZ/TeUK3QU2RhuyAAvhRH1NY3tYqxMkw0GhUjiIAI4oHkH0t2togRpK0LIiCC0O59pD6h3xqTzk0QREAEweP9ptTDiPtkE7ogiIDkINVigsygtzd37aEREREEERBBANjrdG1Y6p3dMpEuCCDLeHPnRq2e3aCcVmIHTsHpfzAFkFy113i/sWuC8PquvRxUVSKGSysK39ZlWB9pb/+PIAIipI2SVX9+BtS1xatnY0r6ExtxPE7/kUQ/e3IWZsjLLRbv6NoQ1q42sXeaNIPiNXNRTZspevdxcGLu3k+YLcbJmVso5Ao77jzkDlBXfvqIIXrIuThVBxIb4UVMFVLEcPbLG7om5pbioYBslu5qV2M1bsG3/hmshvfxrX+209w0SjF5wBVvLRJ7iYAIGWDnH0bON4YTEpdycAaOJTZkPM7A0cSGTJBbHYcXtuzi9ncauvy9P9X1o6ZqgBgwbhOMUvTuo6hoK0Vrn0A1b0mlDd6x35VvfVeMJwIiZFJE7hy50MCkrr1oR4kdMMnL4304saFHy9AXcM/qtTy1vespKILD+3P+cFkY54pFG8Xv/A3adlP0wb9Qu9fS1fU5PotF1d9+a7IYM7eQOZDcVP1vGngImJD6l4rwbX4R3+YXP9aUsgFEP3OaG5SvqJTo0CmYqv3dgICFYEeluiUeAKt37oZCExCl8G1egrXtVVDFWLvfx7fuKbA6pq21utqeRTzEAxF6kx13HlKnlLrdmC56IsldFUz1IUSHfckVEqeR2NDjcAaMzLtEUi9s2c3t7+zs9vevGTWQzw+szDuRUG3NFL33CLS1uvlf9myk6IMXINac9i5DPA8REKEP2fmHkUuMwe6d2mLEBh+DM3AkWBZO1eeIDQ2AVUKuLStWGKa98gGxHnhbo/uXcePo2txsOJYPa/tqfFuXQtseVPM2fFvCqKbNnU5uZ2T4w1Lz+317zUnyFIuACH3qjYx8Gji5zy/EacIZOI7YEL+7lt+0YCoPwqmpw1TUYHxl3vBYH4mNUuBEsfZs5o51bTy/q+cd5cW1zZw2tBqncgju0E0fCqlSYGKo5u1YO99ys0QaN6eI1bAO34YnwaokG/YPW4qz+1/x1t/k6RUBEbKAp///mdOOblkRMjlxSx23oy3eD1NU5WbQqzwAU17rCYzjJVLyxMbECe+tLLczVJbbebb/P9qIteMdrIYNqLbtEN0Nqug/zT1cNpHrBlyZll9igLu3/oTPRjd8/BfjQFElpqQWp3oozoBDoKjcW7TQniTK+fh3dvrbvOtVyvud3r/RZqxda7EaP4KWbajW7e45VM5svmtAOcfud8U7y+SpFQERsoSJcyLVY6Jv7rpozxzqWteIQeJ5a1YNPx54Ne8XHZC2c45uXcOM7Tdg5HFK5nX8tf8Vb31NLCECImQhgUcWG+M4nL/ncS5s/Bu+HEpj2ltcNfBnrCgZlfbzjmldxS3bfy0G7pzFluLq/rJBMP9eCsQE+YNxnK0AD1ZN5fzBd/NQ1RkoiZm1j3j8NCPiAbCi5AierjhejLwPMXz8ud8F7HflW34RDxEQIfuJtP+nQZVyX1WQK2t+w+slhxe8YR6pPJMVGbbDHdX1vFzmL3hbK2I8WnkKJ+8/k4crT35cHsv8RTYS5hdLgFP3/cOa4mH8eOBPKTFRLtn9AGc0LcAU2HvDjP7fYkH50b1S1w0DruDHu4qZ1PxiwTW+PVY191WdybyK43GXNBhQlpbHMp9fFoS8wf9w5DqMuTZRGQfFCXsjTG18ipFta/PaHhuLhnJbdT3LSkb3et1HtS7jhh23UhxvBVnedCCGp8un8FjlSbxfNPRTxw1q1OKg/015OkVAhGwXkFD4v4FbUy1/aNu7TGh5jeP2RjggujFvOrTnyiextmgYcytPdt+C+wgHxdcan+CI1jVMbHktb1ZpWUR5tvw41hftz18rT03gzyoiQb/0MSIgQi4w/uGXq3zG2t2d7w6K7eSU5gXs5zRyQvM/8eXQm3ObKuPRiuNosKqYV3kSrWTfnogyE+OcxscAxfmNT1FkWnOokzBs8g1lQfnR7LCqeaZiSqrfjESC/oA8mSIgQo4QePTfxsR6tnzXQTGqbT2BlldQWExqfomhsY+yYj2XRYxlJWN4vWQUBlhQ8RU+tAbk3GqzA2PbmNL8PAYfn29dxZjWVThZInw+WplffgKbfAPZbQ3g2fKjaValXe9cfEXXh88ef508lSIgQo7gD4VDwLR0nzeKhd36BmNaV1FqWpjUspT9o+/iUJyhhumwV5WxqqSOpcUjMKqEeeWTaLSq8nZpcoXTyOnN/8QyexkZ3Uxd63KqnV04GVr0oDA0q1KWlI7nnaL9abKqeab8GFq7IRadYZQ6YvE0/xvyVIqACDnjgSy5zsSi1/ZWfe64vmGIs4e6ltcYFltPjFJiWESVRRuKWIdm5sNQjKHYOFjE8JkWNhSN4M2S0Wzy9aeNItm/0sHGCofBTiOjWldxcNubOKqcGD6iyiKKoq2DjS0MxYDPGIqI4aOVvaqI10q/wDrfYJpUSWbnh5QiMk3mP0RAhJxi/JzwWJ+FxBkS+po5kWDgPDFDfiMbCfOMJecGlruBBQWhL70m5okVRECE3Hx8V4gNhL5CWRaLg4EHxBIiIEJu3tZHxAZCn72+OM6dYgURECFnH2AzW6wg9J0H4pN8AoVyr8UE+Ung4cXGxEtWJAiZ61KikaC/WOwgHoiQy16IcWaKFYQ+aHm/EhuIgAi5/hgrNUusIPQ2vrLyV8QKBeRvignyl/YMhYLQS7wYCQaOFTOIByLkgxfimLvECkIvskBMIAIi5IuAGCPLKYXeQSkiwcCNYggRECFPWPzVwBvIjmChd95WfihGEAER8u/NUHJSCxknEgzcIlYQARHy7cGe5r8HeFssIWTsHcWy/ihWEAER8pc/iQmEDIkHxGLfE0sU6P0XExQG/lC4BSgRSwhpZkYkGPiBmEE8ECGf8fm+LkYQ0szbIh4iIEIBEDl7woMomQsR0oeyrBvECiIgQqFguESMIKSJ58PnTJSozyIgQsF4IcHAImVZz4klhJ65HgrgGjGEIAJSYDQMrDwR2COWEHrA+ZFgQIImCiIghcaqyaNjKDVdLCF0y/nw+RZFpvkfEksIIMt4CxZ/KHI3mEvFEkIX2BMJBvqJGQTxQAqcSNB/GUq9JJYQUnvVVBjUF8QQggiI4GLMVUCzGEJIoa2ctjjoXyGGEERABM8LCYSBk5WSZiAk0A6YHgkGnhJLCJ9yTMUEQuCRxZOM4ywUSwif7iHUnMg0/3liCEE8EKFTwudMXGTgXLGE0MHzuF/EQxAPREgJfyh8OvCEWEIY4HMenn/20UGxhCACIqQuIg9HJgELMUaMUaB8c9B2LqzZCnB5RV39XWIRQQRE6IonMgmlREQKDAPceOBGjq3as28PsVBZnFI+un6vWEgQARESsnfF7EkK9b8rmkoPu3HjAWxqKxKjFAD9LIdfDvuAuvJOV3X/E8NVFePq/y2WEkRAhE5pWjbrG0qpe4znebQYiyvWDeftvaVinDympijKz4duYlx54i1BRpkxlWMvWikWE0RAhP/QuPy+GgtroTGM7ez4jC1DmLezvxgqDxlX0cTtwzeQ4mClYzDjKusukg2FggiIAC0rZp/iGJ4ySeY7ljaXc82GA9njyMrvfKBYGX514EYmVDZ26XuWpXAchlfUTd8gVhREQApZPFY9MDcWjaW8VLPFsbh58/4s3F0lxsthjqxo5vLajxhZ1u158WWWUieWjZ2+WawpAiIUmnCsvL/WccxcY8yk7nx/0e5+3PVhLR9GZYI9lxhYFOVbtVs5rrohHadbVFFXP1msKgIiFBCNy2YepVAzgEk9OY8F/GVbDTO31ohRsxwH+PqgbXxz0Dac9K7Mvqqirv73YmEREKFAaFo2axdQna7zbWkr5pYtg1nSWCnGzconXC2a+7l3J9X6WtN+akspHMc5vGLcRavF0IWJzIgWlnisSad4AAwpbuN3wz7goYPfZXxlkxg5e5hvUBMi0/yTP3PUeQr4cdo9G2NAqXvF1OKBCHlOy8r758VizmmZrmdDWwkztgxueK2pslp2svcJjxtlvrt42hfe73igcdmsiQoeBA5Or5PDqPKx9W+K6cUDEfKQ1pUPTOoN8QAYVtzKjGEbuGTQR98DrldK3lEy/hZoWQDXA5+PBANndiYeAJV19Ytxoy4vSu9bqLpY7oJ4IEKe0rRs1gLg+F6o6gFLqVWOw5yKcdPfaf+j/+HITzHmOEBW7aSXhSg1PzLNf3NXvtS4dNbnlWIWMDo9HohqLR87XcIViIAI+YZZ/teSZhNtyXA1zwHfq6irX56o0MS5r/iVpS7DcJF4v92mDdRtRvHnxdP8a7rdLt57ZFJzQ2PakohV1NVLXyICIuRdb7PqgWvaorEbM3T6dUVFvotKjvjaoq5+ceLD4S8oo84F8x1ph0lxlLJuMTh/jUwLLE3XSZuXzzraGF4SARFEQIR4AnJdWzR2bQZO/UhFXf20dJxoYihyiFKcizEXAqPkqVRgzEKUtSDqa7tdn/XF5kxV1bLy/lNiMeepnl2uonzsdOlLRECEPBSQn7dFYzek85yWZZ1UNubC+Zm6Zv/cyJeUT00xjnMGSh1VAKu5YsBTylf0Wmus7e5Xg1/Y1JuVNy2beSOoa3pwiicr6upPl6dNBETIM/a+PnOAY6kdaTqdKSkumlJ0+AWLevM3+EPhepQ6GGP6YfnOwjgH5aqoKMvCOM58IIyyjFHO/MXnBMJ9fV1Ny2Y9CZzarUYBX6ysq39ZnjYRECEPSdMqrFcU/LC8rv6lbPhN/rnhQ7HUuRjj8/50EkqNA8r6VFzcZcsGY94Fnga2gQJlNq72Nf9l11mTo9naTpqXz17YlfhoSimMMRdU1NU/KE+ZCIiQp7SsnH1hLGZm9+AUi5QyU8vHXtSQC793/JyXh/t81niruGyc09ZCu6AYzHiF+iLQ3237KrUnwP1+uyptN/CcgjfaBcMqKsZpa11jlFqypabp7fcnT3Zy1mNdPnuhk5qIGKXUlPKx0xfJEyYCIuS/F3KpZam7nS5G01NwX3ld/f8TCxZUW/kNcHUCz+NV4zgXVIy7SHafi4AIBdU5LJ11DYqky3otS2EMk+UNs0DbyfJZR2H4rVLquPZkY0qpZuDq8rHT7xQLCSIgBUrz8lkLjUkYzn2RUuo75WOnLxdrFbqQzByksCaC2VE+tv4VsYggAlLgtC6fWRXDmm2MObPDoYU+y7qhdMyF4nUIgiACIiR4u1w282BQ9UDMMi2/Kxt3yV6xiiAIgiAIgiAIgiAIgiAIgpAnyByIIOQgtm1X4AaeHAUcDhwEFHUoFgNWArdqrZuTnG8M8G3cHCHVuBslH9daP5SGay0DYlrrNrlzIiCCIPSNaFQBlwOXeYKR6vM7R2t9XoLz/gj4VScCBPAMMLU7nb9t28cDvwXqgCjwT+A7Wus35G6KgAiC0HvicQowC6jpxtdbgQO01ts7Oe8xwAskTvB1k9b6Z1283snAPzo571ZgrNZ6s9zV3EeywglC9ovH94F53RQPgBLip6/9dgr9wOXdqPOmOOcdBHxX7mp+UCQmyKqO4mRgIhAGntVaO2KVgm8TpwO39HC0YBMQL9z62BS+P8C27eFa6/UpXrMFjEtQ5Ci5syIgQvo6iQrvDXPKPn/eYNv2sVrr98RCBdsuBgMzeygeUeAarXUszvFUN492JStiCVCeSJDk7oqACOnjlg7iATAMNyLqt8Q8BcvFwH5JymwD7gPeA9YBDR3EY7XWemuC778O2Enq+CDJOQQREKEPCcb5++fENAXrffiA/0pS7GXgvFSHluLwG+B8oCJBmZ/LHRE6QybR+76j6I87sRhvKEAoTEYCwxMcbwNO76F4oLV+2xOQzlZFtQK/1FrfK7dDEA8kOxksJhA64bNJjv+js2W53RSRJ2zbXgScBRwGVAJrgPmewAiCCEiWUismEDrhM0mOz01nZVrrBtwJe0FIGRnCEg9EyE0P5EUxkSACIogHInTHA9kjJhJEQATxQITueCAiIIIIiCAeiNApw5McbxITCSIggnggQmcUJxIPCXMjiIAI4oEI3aFRTCBkA7KMVzyQrMUfCld6ArsX+CgSDMR6qd4SYH9gILA5EgxkW+hx8T4EERAh9z0Q27aLe5ppzh8KW8CXga8C4z2bDOaTAfkcfyi8DdgCfIi7c/ol4OlIMPBeD+ouBiYBU71/h9Ih/pQ/FG7GjTW1FngXN1vfg5FgYIc0X0EEROirzlf1pYDYtj0COBTYAazUWu9NUt4CzgEmAEfgplL9rG3bW4DvdzX9qT8UHoEbMPIcYEiS4pZnq33tdYF3nlXA08BDkWBAp1j3wcC1nnD0T1K83Puth+/zt9/6Q+F7gdsjwcDbedIeBwJ+3Gi5S7XWq3Lkur+Em9fkBEADV2itV0sPk3kkI2HmG/cRuEHxzoojFqUJvm5w4xHFow14HpiltX6kC9c0APiz13G3sx64WGu9IM53vgLMwE1P2hlRYEgq4TX8obDCjTJ8M1CVRnMb4B7g6kgwsD1O3dXAz3CTGpWmoU4HNxT/zZFg4JUu3IMvA5cAp9B5IMNk19aS4Nh7wBzgD1rrj1K8nq8Bf+CTodZneW2irYttvozE4d8jWutAmp6v7wG/79CX7QKOlFQImUcm0TPPPcCVuOHZSzv5JBP40gSfKuAMYK5t2wd24Zru7SAe4C4bfdS27VEdHtADbNt+Ajc9aV0Sb/bsFMSjFlgE/DHN4tFur4uBN/2h8EWd1D0eN8bTj9IkHu3P0FTgX/5Q+JspdnrFQAj4Gu5wWVfbBUnaxWHAL4Dvp3g947020TFPRz1wQxa/nN3kvdR0fBHu73mXgghITnsfw4FAL93Hs1O8pkpPdDqjcl9h8SIFzwdOT/E6JqQoqF/KsD0GAff5Q+Gr9xGPo4HnSD5U1l18wJ/3rTMBR9M7Q5dnpljufOIvG67PwufKZ9v2n4CfJCh2hPRAIiA5jRdqu7fGkV9Osdznktz3z3kPaSnwGKmlPG3nmRTKjEvxXA24k+Uf4SZN2g7sxB2mSpVf+0Ph6f5QeBKwAKhOUDbsvbUe6/3mw3FDqh+GO9y1JMU6f+MPhW9M1jTonZ3k/0qx3KEJjg31XjqyRTxKPe/t4jQ9D0IPkEn0zHMl8APgK2kcNtmXtcDftNY6xfLJXhral8r+BXdVUqqsA/6eQrlngc6GerYD/wQWep8VkWDgU2LhD4WHACcCJ+FOmtYkqEvh96XkJgAAC2RJREFUzvW0eN5VZywCrokEAy8lOM8a4A5/KDwKmI47pzUwQfmf+kPhOZFgYEWcF4s9tm1/G3ceyE/65yKbcIccb0uxfHEPj/eWeFR7LzWTkxR9ExnCEgHJEy/keeB5L+95xzfgUtwJz3i8QuKhqWgGUo3GbNseh7fCKQ6OJxhveZ3rSiCUbBWXx3eBMq8TWOp1dAuBpZFgIOn+hkgwsAV3cneWt/x3Au5kdLz5hxLiJ+a6G/hWZ0IVp+7VwM/8ofA9uBPnRyQQ6ZuBUxO0i1nALG9BQ1knRZYRf5jrIxLPR+3QWrfk03Pk5Yd/Bvh8kqKLgVO98PRChpFVWH37UCRbrfKC1npSmus8EngtQZH/wV0V9PUOf/8QuM57Y1+bbR2UPxQ+E5hN6hPzfwIuS1U8OqlvILAcd99IPKZEgoGF3bxPm4k/X7NFa71/GtvE3z2vLh77aa13prFdd2kVlm3bn8UdghyZpOjTQFBrLXHCegmZAxE6UtvB+2jDXelyqNb6Lq31G9n4dhsJBh7DHRJKhXt7Ih5efduBS5MUq5fm1GNxG4O7YTSZePwFmCri0bvIEJbQkal8POSzApimtX4zFy48Egzc7w+Fv0HiMfLtwBU9EY99eAY3LlW8+ZVDpDn1SDyOBp6kQ2SATvil1vrnYjHxQIS+p108WoELckU89mF+kuN3RYKBtLylenM2iYYDRUC6Lx6n4s6PJRKPGPAtEQ8RECH7uFZrvTwHr/v5BMdagDvTXN+rCY7t7wWEFLomHtNxV1uVJyjW7HnH/ysWEwERsotXgN/l6LVvS3Dsfm8VVzrxJTkuw8RdE4//BmYmsdt24Hit9WNiMREQIfuYobWO5ei1J9qf8VAG6huR5PhuaU4pi8dNwK0kXh26DjhGa/2SWKzvkbcjoTNW5PC1JxKQ19JZkRcUMlHIjHdT2dsiwmH7gLtw9/MkYhlwstZ6o1hNBETITlpwNwjmm4CsiwQD29Jc16l4oV960ePJN/EoBf5K8lhuC4GztNa7xGoiIEL2srqvhq+85E41uMEQB+FuCmzCXSrb/tmZJJHT0F7yPnzANUmKPSDNKaF49AMeJ3lokjlAvda6VawmAiJkN2/0olh8BQjiZiOsJXGww32/u52Pw6i0//smsJr4EYFXpPHaFe6OfX+CYssiwcBKaU5xxSPV0CS34SYrM2I1ERAh+8noLnN/KDwZd4f2VJJvEItHe+a8jh24Q/x84avTcO0KN+XurcAXxfvoNrXAiyTeXW6AH2mtbxFziYAIBY4/FK4B7iBxkMaeYhF/ZeFf/KHwDcD73uc979/1wAZgI51nfzwYNyrx5H08pWRswM17InTOwSmUEfEQAREE8IfCxwCP0of533FDkh/kfTJJKzAtAxP2+UQTnafx3ZfLbNt+QGu9ScyVvcg+ECHT4nEE8EQfi0dvsRM4IxIMROTOJ2Q58MMkZQ4BnrVtu0bMJR6IUJjiMQh3ojSVuY4Gz0t5FXdYaT1u3osBwGBPgOL9O5T4AQ17iwhQHwkG1sidT47W+hYvF8rPEhQbDcy3bXuK5PcQAREKjx+RfKf2OuAqYF4kGNgb53gqYjUAN0HUV3v5Nz4P3BQJBp6T291lEbnGtu3+wBUJitnAU7Ztnyih2kVAhMLyPi5PUmwe8HUvt0bPXv+DgZ3+UDiep/Nr3Ci9R+DmOj8MdyL3M3Q9XesO4HXvM0eGq3rMd3CXbyfKnXIM8Jht26fnW6ZFERBB6JxLSTystBKYmqa8HO0cFufvL0eCgReAFzqInAUM88RkmCcmKs5nE/B6JBhYJ7c2rV6IsW37G56InJmg6PHAHNu2p2mto2I5ERAhv5mU5Piv0yke/lC4Ahge5/B7cbyW9tzuIgp9KyIx27bPw00edVyColOBmbZtT9daS4yxLEBWYQlpxwvzkSjn9TukP07UocSP4vqR3JWsF5EWzwN5JUnRCwDJASICIuQxhwP9Ehx/MhIMpDveVl2cvxtgq9ySnBCRRuAU3Ki7ibjEtu3fi8VEQITEqBy97mQxrTIRFO/cOH9vzoBYCZkTkZ3ACSSPCP1927avF4uJgBQyyeYABubo70qWpS+tk6D+UHiw1+l0RoU/FC6XppZTIrIFdy5kfZKiv7Bt+yqxmAhIoT4oLbghyuORq7u3k73xp3sVzfkkXhBysLS2nHs21nki8mGSor+zbfu/xGIiIIXKuwmO1di2nYvDWMuJHxUX4MA0eh81wI+TFJO31NwUkTXAibghYhLxP7ZtXygWEwERAfkkRcRfmpq1RIKB3bj7POLxVX8oXJ2m6u4C9k9SZro/FD5UmlpOisjruJkfE+1CV8B9tm2fJRYTAREB+STn5ujvejLBsSrSsBTTHwpfjJuQKhk+YJ4/FB4nzS0nReRl4CwSL77wAQ/Ztn2iWEwERATkY3LVNb8tyVvj+f5Q+I/+ULi0G8Lh84fCvwX+1IWvHQqE/aHw5f5QuNsbaP2hcK0/FL7AHwo/4g+F5/lD4a9LE+4VEVmAO9eVaH6tBHjUtu1jxWIiIIXC20mO19m2PSPX5kIiwcCHwB+TFLsciHgh31PtwEcCC4gfDjzRBH2Zd02b/KHw3f5Q+Cv+ULgkSX39/KHwqf5QeIY/FF4KbMHNNng2cBpwrz8UPk+aca+IyKPAxSRevVgBPGnb9nixWOaRUCZ9zz9wA/QlCnn+PWCUbdtzccOGb8EdBqoGSoE1WuvdWfjbrsHdkZ7ojXAcsMIfCr+Iuzt9HrAlEgy07tOJD8DdpfyNJOdqAM4AvusNecRjEG6srku982/DjXW1CXfCtgg3LtZg3JzdyZ6T80n/znqhcxG5z7btauD2BMWqccPA+7XWb4vVxAPJ5wdiLzArhaInA/cCq4BtuOlYlwNLgJ3ZuDPXE4GzcUOXJEJ5wvBH3LhULf5QuNEfCm/1h8JtnsDem0Q8PgQme0ETz/eEOVVqgDG4AfuCnvicBkxM8SVro7TkXn1m7gB+kaTYQOAnYi0RkELgJnoWr8nC3ZmbyiSx08PjXRWRrZ4X8o8ufrXC69hT6cDfBb4YCQZe9epsj6v0RC/cuzXAdRk4b1s3j3WHRCHSDV2PHBBN0o56HJJda30jMCNJsQsko6EISCG8UX2IO7bb0877ohTKvJ/keNpdfk9ETvQ62nQnBVrkicfbHepsjAQDU3FXsW3JwG3bC/wGmBAJBjJx/kShPFZlQATjinNXEzl54dYTLQ5Zmabn5gfAPQmKlCHD9CIgBSIiTwBfAtb24DQNKdSzC4iXPa8ZeDwTvy8SDDiRYOB63F3ht/ZQSIznXRwdCQYmR4KBTQnqnQuMBL7piU1PQ8gb4EFgVCQY+EkkGMhUqtVEcyqz01zXwwleXu7q5jkfTOA93ZvGa78UmBvn2DNeWBQhQygxQXZh23aV55pf0sWv7gS+rLVelkIdBwBz+OScwibgMq31vN74nf5QuBg4End4q/2TKOTIFuBF7/P3SDCwupv1DsdNe3sUMAo3CVVVCl7Zi8BLwAuRYOCtXmoLt+AuCCjap/P9tdb62gzUdQVwM+7QIbjLZW8Dfqi1Nt04X4knFBfs8+etwOVa61Car70Y+IMnJu28AEzTWkskZhGQghSSI3Enccfhhiqv4+Mot47nLTR5Qx3/Bn6rtd7YxTps3NDrm4BX+jrntD8UrgX8uKHgm/f5bOw4RJXGOhVuNsJDvI461uGzNkNDVKneoxHABO+e/1trvSGDdQ3x7F8CLPbiUfX0nKO8F4XtQFhr3ZDB6x+Hu2puLfAvSTolCIIgCIIgCIIgCIIgCIIgCIIgCIIgCIIgCIIgCIIgCIIgCIIgCIIgCIIgCIIgCIIgCIIgCIIgCIIgCIIgCIIgCIIgCIIgCIIgCEIu8X9uF5SYCj+LIQAAAABJRU5ErkJggg==;" vertex="1" parent="1">
                    <mxGeometry x="60" y="310" width="110" height="110" as="geometry"/>
                </mxCell>
                <mxCell id="9" style="edgeStyle=none;html=1;exitX=0.5;exitY=0;exitDx=0;exitDy=0;entryX=0.5;entryY=1;entryDx=0;entryDy=0;" edge="1" parent="1" source="3" target="7">
                    <mxGeometry relative="1" as="geometry"/>
                </mxCell>
                <mxCell id="3" value="" style="shape=image;verticalLabelPosition=bottom;labelBackgroundColor=default;verticalAlign=top;aspect=fixed;imageAspect=0;image=data:image/png,iVBORw0KGgoAAAANSUhEUgAABLAAAAJ2CAIAAADAIuwLAABT0ElEQVR4AezdBXQUadqw4R3GZ4WVsXV3d3d3d3d3d3cZW3chQYK7u7sMBM8kSCBYIG79/NTPp5z5WJK2qu7rOs/I0emues+Zuqnqem8TAAAAVCVBCAAAIAgBAAAQhAAAAAhCAAAABCEAAACCEAAAAEEIAACAIAQAAEAQAgAAIAgBAAAQhAAAAAhCAAAABCEAAACCEAAAAEEIAACAIMwgAAAAQQgAAIAgBAAAQBACAAAgCAEAABCEAAAACEIAAAAEIQAAAIIQAAAAQQgAAIAgBAAAQBACAAAgCAEAABCEAAAACEIAAAAEIQAAgCAEAABAEAIAACAIAQAAEIQAAAAIQgAAAAQhAAAAghAAAABBCAAAgCAEAABAEAIAACAIAQAAEIQAAAAIQgAAAAQhAAAAghAAAABBCAAAgCAEAABAEAIAACAIAQAAEIQAAAAIQgAAAAQhAAAAghAAAABBCAAAIAgBAAAQhAAAAAhCAAAABCEAAACCEAAAAEEIAACAIAQAAEAQAgAAIAgBAAAQhAAAAAhCAAAABCEAAACCEAAAAEEIAACAIAQAAEAQAgAAIAgBAAAQhAAAAAhCAAAABCEAAACCEAAgNxAty2LrT2LlB2LpW2PF+2LL96N5bgz0BoAgBACoSEny1V8f4+8ZI25zK1N3VWz6dvS1B4AgBACoKK3bYuojkvA790y4VxxZHgCCEACgQhxZGaPvkPTe+UztJbFvUgAIQgCAzGvbG2PulJTe+c/Iy+LomgAQhAAAWZaL2c9KGm+wM+mBMdAdAIIQACCrmiYkdTe0qb8+AAQhAEBWzX3+0INw0gMDQBACAGRSb2vUDEvSbsjTui0ABCEAQPYcWpBEXT6z5+8BIAgBALJnzz/yDcItPwiA7BGEAAB7/pZvEG76dgAIQgAAQQggCAEABCGAIAQAEIQAghAAQBACCEIAAEEIIAgBAAQhgCAEABCEAIIQAEAQAghCAABBCCAIAQAEIYAgBAAQhOUHCEIAAEEIIAgBAAQhgCAEABCEAIIQAEAQAghCAABBCCAIAQAEIYAgBAAQhACCEABAEAIIQgAAQQggCAEABCGAIAQAEIQAghAAQBACCEIAAEEIIAgBAAQhgCAEABCEAIIQAEAQAghCAKBtb2z9WSx4eUx6YIy7NibeN2Y/M9Z9Lg4vjsgJQkF4TrlonhdrPx2znh4T7hNjr4nJD4oFr4itP4m23QEIQgAgvdobYsmbYsQF/2feTHlY7JsoCAXhrTswI1kh5zgaC14ZrdsCEIQAQOo0jo1RtzuvyFnyluhrE4SC8L8N9MaaT5zXAam9NHb+PgBBCACkrHwuGETnTH1ktDcIQkGY6G6J2c8e3GHZ8sMABCEAkArH1kXNRYNOnTF3jkPzBWG1B+HxjTHh3kM5Mk3jotwAQQgA5GLGE4ZWO0lGbr9JEFZvEDaOiVFXDPHIjL06elujnABBCAAcmJZv86z8QAz0CMIqC8JcbPxGvgdn68+inABBCAAseXNyaZ7nzHpadB0ShNUShL2nYuGrCrBspjwsygYQhABAbiDG3DG5NM9/xt8jjq2t/CAUhG27z+wtUZjpbI7yAAQhANDemFyUF2pGXh4NNYKwkoOweU6MuVMB10z53ksECEIA4PiG5KK8sLP+y5Hrj8rQMCLfo3Hzj6Ni1F8XNcMKvFqaJgQgCAGAsm04UeggTGb+yyrkBZJHlud7KG4ZFRVgoDuWv+esr5bxIAQEIQDQsS+5KC/GTH5wnNweWdffFbWX5nUc2hsj6zoPxswnF2udlPN3p4AgBADqrizWtf7o4XFgemTd4tcP/QjMeGJk3dFVMe5uxVohtRdHX0eUDSAIAYBl70guzYs0NcMyv9fckRV5PC86MjJt7z/P3CAt1sx7cZQTIAgBgMOLkkvzos7St0V/Z2TXkrcMaW/GZ0TkIqNy/bHu80VfGI1joswAQQgAzHth0S/9Zzwh+b1iRvUcj0kPGNz3rbsy2hsz/H3nvajoS2LaoyM3EGUGCEIAoG1vjB5e9AAYe03y0s6Mam+Iifc/7xq8Kk5sjoxq3RaTHlj0xVB7SRxfH4AgBABS4dCCGHl58TPg4tj958ionmOx6LX//jvOeU6G7w3unxKjb1/0ZVAzLGW7cQCCEABoWRpjry52DCSz5pOR64uMap4T819y6/uzz3p6NI3P7O8Gc3Hzj2LEBUU/+6NuF/snByAIAYDUaW+MaY8tRRPOeW50H43s6jkW+6fG9htj07ej/ldJB3Y2R3b1dcSSN5fivE+8b5zYEoAgBABS3AZvKVUbbI6yo/2WEv0pwNznJSENCEIAIANPD9YMK/7Tg7dN7q2VEYcXl+o54U9Fri8AQQgAeL/I/5rN3ynP7+7Y+fuovbgULxTd/ZcABCEAkDEn60uwA0Eyi14bfW1RMgz0xqqPJkfeXiOAIAQAzrlH+YtLUQ5TH5lsh1gCdLfE7GeX4pzOeEJ07A9AEAIAGZbrj3WfL0U/jLlzsvUFRdW6NSbcuxRnc+nbo78zKgEgCAGAvf+K2kuLXhEjL4+WZUGRnNoZdVeWYt/5rT+LigIIQgDg6OoYd7dS/OqsuyUKjv6umPLwop++0cPjwIyoQIAgBAA6D8bMpxQ9Kpa/JwqOLT8o+omb/OA4uSMqFiAIAYCB7iTYivvM4YXR3hAFRH9njLlzcc/agpdHb2tUPkAQAgD11yfZVry62PKDKCBuGV3cGlz/5cj1R7UABCEA0Dw3xtypWIEx57lRQKz8QBHfA9RQG1UHEIQAQNueYr2nZOw1UUDMelpRTtP4e8axtQFQpUEIAPSeioWvLsrPCAuIifcv/Dma9fToOhQA1R2EAEAuNn2z0A8iXhYFxMT7FfgErfxADPQEgCAEABKNY2PUFYXqjSRgCohZTy/czduLYsev438BEIQAwIlNMeHehamOxW+MAmLVRwtzXuruEofmB8CtBCEAQPeRmPOcAoTH3n9GAbF/cgFOytRH2h8SOGcQAgAM9Mbqj+UVHmPuFH3tUUAM9MT4e+R3z/b1TgpwfkEIALDrj1F78RDbY9vP03v/8+T2aFkW+6dE04S4ZWTs+Vs01CT/vm9itCyJ1m3RdThyA5FCu/8y9Brc/N2IXACcZxACACSBNPbqQbfHjCdFri/KbqA72WFv919j7Wdi/ktjykNj5GXn+xVqL062eZj3wuRO6c7fJQHZ1xbll4sFrxz06Rh1u6R1AQYdhAAA7Y0x/XGD2druadFzIsqlvzMOTI/1X4yZT43aSwu6reKwmPbYWPOJaKwr5xfsbY2pjxjcu15PbIkhAgQhAEBfRyx+/Xnlx5pPlGdru67DyX28eS/KMwIHsef+7GfGzT+Ott1Ret0tyX/9fD7nvBdHz7EAyC8IAQBysf2mqLvLuR4TPbyoDKW65x8x93lRMyz5DGWZmU+O7TeUurty/VF/3blOx7hrY+fv/WgQKFwQAgD0tcfef8Xyd8fURyXJMe5uMfMpyS/0jiyPEjtZn+zLN3p4Ej9pmNpLY+nb48iKKKX+rmiojWXvSB4iHXt1jL9H8nDvivdH45gY6A6ASgtCAIDDC2PBy2PEBaXsvcH9hHLfRLfmAEEIAFDoFJz97CS60j/THhNNE2QhIAgBAArxgGhyV/A2GZsZT0z2qxgKAEEIANB7MtZ8MmouTPoqo7P0bdF5IAYBQBACADSNj3F3S5oq6zP6DrHzd+fxBCmAIAQA6D4ai9+YpFQlzexnRfst8X8CEIQAAM1zztwYrMAZPTwaauJsAIIQACA3EJu+leeWEhmYFe9PthD8DwCCEACg51jMe3HSS9UwM57w/x8fBRCEAACndsXkByWlVD0z9uo4ujoAqjoIAQBalkTdXZJGqrYZeXnyJlWAKg1CAIADM5IuSgKpKqdmWOz5ewBUXRACADSNi9qLky6q8tn52wCooiAEANg3SQ1qQqD6ghAA4MD0s2vQ7PlHAFR4EAIAHF11K78bNDXDYv+UAKjYIAQAaNsTdVfdehGZUVfEsbUBUIFBCADQezImP/hcRWTGXRsd+wOgsoIQACAXi17z74vIzHxKDPQEQOUEIQDAlh+ebxGZ1R8LgAoJQgCAlmVRc+Egisg0jY/MAwQhAEBva0y87+ByyIy5sx8TZh8IQgCAFe8fShGZ+S+JDAMEIQBA89yhF5HZ+8/IJEAQAgD0d+b1sKipu0t0H4nsAQQhAMCW7+dbRGbVRyJjAEEIANCxL0ZdkW8OmZphcWJTZAkgCAEAlr+7MEVk5r0wMgMQhAAAJ+sLufGgObQgsgEQhAAAS95cyBwys58dGQAIQgCAUztjxAVpzKrRd4i5L4g1n4ztN0VjXRyYkdx5OzgrmsbFzt/G2s/E/JdF3ZUpbcKWJQEgCAGAtFv1kXSl1KQHxubvxNFVkeuPfy8XxzfEtp/HtEen61ssfFUACEIAINW6j8TIy9IRURfE4jfGkeUxZCc2x4r3R+3Fafk6J3cEgCAEANJr2y9SkU+LXhet26Ig2htjxftS8RDsus8FgCAEANIqF5MfVOZqmni/5MeBBXdkZUx9VJm/Wt1dYqA7AAQhAJBGLUvKnExL3hy9p6I4khhb86kyf8FbRkVWAYIQAGhviMa6qL8uNn27pLPl+8mrNfdPjZ5jUTyrP162UqoZFvXXRwk0jonaS8v3KOxro0hyfdGyLHb9Kbb+tDyL88C0ZHECFRiEAMBAT+z8XUx9RCreTTL3BUV5qDLXH3VXledL1V6cZHbJHF4Uo+9Qpm96SfS2Fv4PKVZ/LEYPL/viTKp+3guTxQlUThACAEfXxOQHp25fu/kvjc7mKKBDC8pUERfG/ilRYkdWxqgryvN9G0YUMOJj60/O3PBM1yx4RXQdjswDQQgANI2P2ktSutf5+LvHye1RKOu/VJ5vsefvURYHZ5VnR4qlb4+CGOiNxW9M6cpMFuc949SuyDAQhABA87xSNUMeTVio+4RTH1mOnRg+H2W0/abyvGs0NxD5W/HeVK/MZHHeI7P3CUEQAgA9J2Lctcl1bcpn3osjf53NZfjks56W3OYqr8WvL8MXP7om8rT3X+lfmcnMf1lkEghCAGDdF5Ir2kzM/smRp8a6kr9e5dJUPFLYcyzqriz1d6+/LvLR35mJP6o4Mxl8xwwIQgCgrz1G3S4z19xznht5WvvpUn/mzd+JlNj911J/98VvyO8D/yUrKzOZuS+IjAFBCAA0js3SNfeIC6K7JfIx8ykl/cDjrk22iU+LXEx7TKl/+ZmP+S/N1uLM2v6EIAgBgHWfP3M5WxVPjeYGYtRtM/TMZOE1TSj1+cqnkUYPz9jiPDA9sgQEIQCw6HUZu+befmMM2aldJf2oY+6c/AouXXIx+UElPQiHFsTQ9J7M2MpMFudNkSUgCAGABa/I2DX31p/FkO2bVNKPuvpjkUJbf5qNRupoyl4Q1l8XWQKCEAA4s+V3hmbHb2LI6q8r7aYLqyKFOvZHzbAMbMDY1569INz5u8gSEIQAwMZvZOyau3lONl4xOu7aSK0ZTyrdcVj02hiqLO058V/Px2YJCEIAoHlOli64ay+JvrYYskWvLd1HXfr2SK0NXy3dcZjxhBiyJW/J1OK8NPo6IktAEAIAuf4Yd9fMXHMvfmPkY9bTS/dRd/0xUuvgzNIdhwn3iiHbNzFDQZjka/aAIAQA6q/PzDX3sbWRj8kPKd1HbVkSqdXeWLrjMOqKvLYJmfLwzGxCeHx9AIIQALJnoDemPToD19yrPhJ5qruqdJ+2+2ikWSn3Y+zviiFrWXrmFThpnzWfCEAQAkBWndoVdVem+oJ75pP/a0+/DGx0PvLySLlS7kbYcyLyse2Xaa/BmU9NohcQhACQYSc2x/i7p/SCe9Yzorc18ld7aYk+cN1VkXLTH5+lm6U3/zi9NTj72cniBAQhAGRe1+FY/IbUvVZ04zdioDcKoYRvUrl3pNzsZ5fuaLQ3RP4Ozo4J90nd4tz0rcj1BSAIAaByHFkZy98ddXcp89X2xPvG+i8nrz85QxBWdxAmBnpi959j9jOj5sJyL877J1t3dDQFIAgBoDLlBqJtTxxeGIcWlHpalkZnc/wXQSgIz9LXEcfXJ0ulLIuz61AAghAAKAVBKAgBBCEAIAgFIYAgBAAEoSAEBCEAgCAUhIAgBAAQhIIQEIQAAIJQEAKCEABAEApCQBACAAhCQQgIQgAgOwShIAQQhACAIBSEAIIQABCEghAQhAAAglAQAoIQAEAQCkJAEAIACEJBCAhCAABBKAgBQQgAIAgFISAIAYAMa+vsHjFr7bu/X/OYd//8qpd9Y/iLvjKIeeGXSjcv+kqq54VfSeehuPKlX3/0u352+vyOnrehq6cvTgMQhABAe1fP1/8w7XQz3OZpnzHVMKeD/1ejFvb1DwSAIASAaramvum+r/++RqrCeeL7f9Vw8FgACEIAqE7z1u68/LlflEZVO3d95be2NjQHgCAEgGqzeffBK573JVFU5XOP13zn8PG2AKqHIAQAevv6H/a2n5zuAWNe/oU/BlA9BCEAcGPdYiH0X2MmLt4SgCAEAKpBLpe7z+u/p4LM/3zBTACCEACoBss275VA5qzZsudgAIIQAKh4P/zHHP1jzpqf/GtuAIIQAKh47/juCP1jzprXfvUvAQhCAKDivfizv9c/5qx57Ht+HoAgBIDS6B8YaDh4bP2O/Us27dmwc7+d0Erp2R+/Sf+Ys+ber/tuFBUgCAHg5r3N3/zT9Kd88LpLnv35s65Hh7/oKy/7/B9uGLOo5YQ4FIRGEAKCEIAKsmjD7md97Lw65OJnff7DPxvTdPhEIAiNIAQEIVSG60YtLNL/xSPd4Pipjrd955+DXdi3fd6XTt8tzOVygSA0ghAQhJBFghC2NRx6wJt+MOTl/eZv/qOntz8QhEYQAoIQMkcQogavfOnX81zhL/j0b7t7+wJBaAQhIAghKwQhnGjrPHNvMP85vW9eIAiNIAQEIWSFIIR3f7+mgOv8r1NXRfoJQiMIAUEICEJYcfMthV3nt3/Bl+1VKAiNIAQEIWSAIIRXf/nPBV/qn/jluEgzQWgEISAIAUEIR1rbL3zG5wq+1C9/7hePneyI1BKERhACghAQhFAza12RVvvpnQkjtQShEYSAIAQEIXzuxolFWu3P/OiNkVqC0AhCQBACghBe99W/Fmm1n34StaOrJ9JJEBpBCAhCQBDC6a3ki3fZunjjnkAQGkEICELIAEGIV4wWev48ZUUgCI0gBAQhZIkgJA8L1u/69p9nFHZO7xOYlS3pz5rTHz4QhEYQAoIQskQQkofTCVTwZXN6QUbR/ODvs4t32frp68dHOglCIwgBQQgIQgThnNU7BKEgNIIQEISAIKQag7C7t+8OL/xKkRb8Z26YEKkkCI0gBAQhIAgRhIkP/XS03xAKQiMIAUEICEKqMQh37Tty8bM+X4wF/5N/zY20EoRGEAKCEBCECMLE134/tRgL/ncTlkWaCUIjCAFBCAhCBGFf/0AxwmPWqu2RYoLQCEJAEAKCEEGYaG3retqHbyjsJ9/R1BLpJgiNIAQEISAIEYSJrp6+D/9sTAE/eXdvX6SfIDSCEBCEgCBEEJ6xZNOe533yN/l/7Ie89UeBIDSCEBCEkCGCEEF4xtaG5u/9ddbzP/Xbu7z06//1SS58xufO/2O/94e1gSA0ghAQhJAtghBBeJaOrp59h080HDy2pr7p/D/2771iVBAaQQgIQsgiQYggzH93iq0NzcG/JwjN/2PvLqCruhL+77/j1vYZd3d3Ly3FoS0tlFJa6i11oQR31+AWXIJrgCDFnZRQgkNwDwRCCAkhzn5/a531Z6xyc7P3uefefD9rPzIzNDnXmPO9+5y9CUIABCFAEAYeCMK8G4Xe5aOhjJ892sf4gSBkEIQACEIABKF7IAjbjFoS+jG3S0g2zhGEDIIQAEEIgCB0DwRhyv5T5VpRZmf6WeMWQcggCAEQhAAIQvdAEGpFmW892DX0A/7dUwMMKoYg/GiVFlrkNn7Gug1pxzKyrmmTzLKym1eu5acdPjd1eerTPWd8oU4HghAAQQiAIHQLBOH5yzm/bNqvXAc8fkmKCRcIwjtqtdMlx4pA84EKi0tmrtr5q8f7EYQACEIABKETIAh3Hz3//UY9ynW0327Qrai41IQFBOFjXRMvXsk1IdO04cj5m2+r0ZYgjFYACEKAIMTpi9lrdhyetHR7rymrWgxL0sVgD7Wf9GDbCd7QCeJLA+ZqxmDw7A1z1+56N/1Mbn4hQeiaok5X632qaqvyHu24xduMA3rRj569rFsZ16cdXbx5X9LGvd5YnXp4+4HTh89cupp3gyCM6vHJqi2nLE81YTly5pLmsQlCAAQhgOgIQujkffaatOZDF/7jxaGfq94mjGfyuw27N2w/sffU1Zv3HLc7H0UQ6kq8GSt3/qhxrzAOVdfvlZSWWdniQt8R9Jy8sknnqX94Jj7E+Z/PVGv988f63N96/FvDknSb2f4TF0rLygjCqBifrd5G9wqaCtA3An9tNpggBEAQAiAIg0vXH3YZv0Irjth9VpUBDdpNnLxse1bOdePGzZs3dboZymg7Otn626ZP4mr95PCG6s6E4Nr1guPns2atTnt5wNwv1g1zrY6P3Nliy54TJlzZufn6mkCzwb9/Ol4LitjKjH++NKzliEUrt6fruSAIgzk+flecXiBTYTl5BZonJAgBEIQACMJgOXcpp//0tT6cqKkiqr8xauGGvbqtyFilsork+Z/72UWdX1b8d8UNX2TKTy+WLgGt33r8J+5u6fSp0OWvNZuPHjBjrS49JQgDNXRxsrFE145qPpkgBEAQAiAII08n+rrFq/ZbCd5sj5/jx4/00oShlWsXCcIQx5+fG+TNRoZOL5BeJu/aVJ/HH58dOHDm+suaUo40glDXjWsG3tgzasEWghAAQQiAIIwk70T/J016R/acSXOSy7YdJAh9CMJv1O9yJvOqKY9Fm/YpBSO+ismTPabvO55BEEZw7Ew/a/2rqF807UsQAiAIARCEkbF06wEt7BGcM6d6cWNPXcgmCN0FoXaN23XknAnZyYwrWvclUM+SFrPVCjQEof+jbtwY44BWRSIIARCEAAjCCNwr+ECbCcFcwFBXkYV+WRpBGPr4v9rt3jlwyoQsIWlreOvK+nAD6gv95ly5lk8Q+jkWbNjjaKVcrY1EEAIgCAEQhP7RBmJqgyCfQmmqMPRlSAnCUMYPH+556FRm6DtJNO40JeBP11fu7aSlVglCf8an72lVUFRi3Hiq5wyCEABBCIAg9IN2DH+0y9SoOIv6ToNu2teeILQShFqxM/RFWc5fztFmEtHypD3Rfbre1QSh61Ht9ZHGmYnJ7xCEAAhCAAShc5og+tmj7u8YtLppodY+JQgrEoRai0X7iIR+Ce7ZzKsO1o9xviKR690pCMI3Bi8wzuw4dIYgBEAQAiAI3Xr7nUNaUMTRc+X0brHxS1LCC0KCULM6B09eNCG7dDXvp+7Xm3UxvlCng26PJAjdbz/oxMUruQQhAIIQAEHokK7I+vhdcdF7RjUhOYUgLFcQain/uWt3mfIoKi69+9Uo7hnNJ3v16wJBOHrhFuNMTl4BQQiAIARAELoyfN6maD+j+liVuBUph0wICEJF3Zy1u7S9mymnViMXR/WbJG74Iu/KWBcIwoEz1xtn9JklCAEQhAAIQmrwQ7ZMOHLmknkfBKHuDm2XkBz2Bn3rdh6N6rdH29HJxiWCsNO45QQhQQiAIAQIwiijRflj6bzqV4/3u1FYTBB6QXhbjbZ/fHbgs71n6h7Lw0rlCtB2Aj9+pFf0vjF6TFppHCMIm3SeapzRFxkEIQCCEABBaFnK/lNaYTLGTq1eiZ9HEF67XqDHaOzRMqTR+5bom7jGuEcQ/qRJb766IggBEIQAQRg1tGrf1+7vHJNnV1outfIGoQPag/7ztdtH6TM2bO5GNqb3bZy+mG3ceGnAXIIQAEEIgCC0Rktr1GqeEKtnV99v1CO/oIggtGXw7A2se0kQRnBdmdKysq/c24kgBEAQAiAIrdG0iQ9nOd9u0K1e3Fh9td95/HJdc6gXQrdyaW2Ppt0S//nSsM9Wb+PuV+s3EoS2aFf3aNydcvKy7cZfBOGPGvcqKS3jelGCEABBCBCEgXYy48rnnMWYbkp8uOPk6SvfzczO+9Bv/bVRePuEpd+o38X6YXz6nlZnM68ShBW3++h5R49Fl6E2bD9R3xQs2LBnfdrRXUfObdt3Upf7Tnt7R4cxSx9oM+GLdTuEXYN6BxrfEYQaM1butD49qD0zCUIABCEAgtAanYW7eDYUmV0nrLicc92Uk7Y71zKY1i8J08wkQVhxvaeutv4o/vzcoJmrdup1/9AS2Lr3hDYP/EKdcpThJ+5uqcI0EUIQfvOBrnYXNOqT6L0DCUIABCEAgtAGTcW4eCoad5pyISvXVEBWzvWazUdbPCSFgZa4IAgrqG7cGLsviu7rK+/u8LojdEzS1m892DWUn7948z4TOQShhq4JN5akHjyt15QgBEAQAiAIrflbsyHWJwZ1jZ+ta8MadZhs8dhaj1xi3ktOXoF2sQ9l3F6zrYvLWfWTwxv+r5LypXodLT72irxVtMOkJos+U631+/1w/Ucrt6cbIQgjPXpNWWUq7OjZy1+v762ETBACIAgBEIQ2rEg5ZPcZ+HK9jjsOnTH26DLCvzw/2Nbh6VJDTS5V8H7LaJ/lq+C0rcUHrpWETIWdyMiq/sao96zBte8eMUIQBmN0n/S2poIrskuqty8OQQiAIARAEFpT483RducGtRCIse34+SyLa95UZHERglC1b/GBD5ix1tamKbqzUSvH3PrJd9Rqt2XPCSMEYZCGblcO40rysrKbw+dt+lTVVvoJBCEAghAAQWjNvuMZdh/+vHW7jRvazczWQdZ+K4EgDNvylIMWH/jctbuMPWt2HFYHejWo5WpN8BCE3lqyaYfPmfK465XhNo+BIARAEAIgCD0v9JvjYN0IJ7SVmTY0s7UfXdir3RCECzfsdXADoTWaoP71E/29aWqCMLAjaeNeUx66V5YgBEAQAiAI7d8M5q3GYWVogzhvewl3tBGFraPVLvwEYXi0t7vFB95iWJKx7UPuUiMICUKCEABBCIAglKFzNkZX0mgxGF1sZuVoq7w8nCAMj64KtvjAtWCpt0OdfwhCgpAgBEAQAiAIRUt3WlxZVBsAGPee7DHd1lWjmiAlCMPw9juWl6WtFzfW24/ePYKQICQIARCEAAhCB1XzYv85xhczV+2M7FqjBKGW/rf+8P/47MCd6WcJQp8GQUgQAiAIARCEI+ZvsvioF23aZ3yhHedsHfPzfWYThGHQFZ6OPjv3vDYyccUOb5dIhwhCgpAgBEAQAiAI72s1zuKjzszOM77QeiGfrNrSyjH/+JFeBGF4vl7f4ebgn76n1YNtJ2jpGq0ESxAShAQhAIIQAEHoJKu+UKeDrYf8zQe6Gh99t2F3W0d+5Vo+QRgGBZs/58S/erzfa4Pmaxmbs5lXCUKCkCC0AwBBCIAgPHQq0+JD/kb9Ls2HLvRtaF1KW0e+KjWdIAzDmKSt/p8f6232UPtJ/aev3br3RGFxCUFIEBKEYQJAEAIgCGetTtOhMgbNWk8QhuFM5tWP3Nkigi/cp6q2qvHm6H7T1uw9lkEQEoQEYfkAIAgBEISdxy/XoTJe6DeHIAzP/a3HB+RF/NmjfTqOXXb8fBZBSBAShAAIQgAEYUge7TKVGvSWtSQIw7Nye3qgXkrNWNZ+K2FFyiHdH0sQEoQEIQCCEABB+EH++dIwHSrjR417EYRhq9l8dABf0989NWDO2l3vm4UEIUFIEAIgCAEQhD9o1JMa9G5FIwjDduTMJT2BwXxl//BM/HuvGEQQEoQEIQCCEABBeEetdt7RMq5dLyAIwzZ0zsYgv7gN2088dSGbICQICcJ/AUAQAiAIy8pu3jpaxumL2QRhRTa0vLfl2CC/vp+r3mbk/M1Bu4KUIJy8bLsJWXFJqbVVbQlCAAQhAILwat6NW0fL2HP0PEFYwbfTzx/rE/BXWXtUXMjKJQiDMzqNW25Cln4608lhEIQACEKAICQIGbuOnCMIK+hERta3Huwa8Bf6mw90TTt8jiAMyPjNk/1NyAbMWEsQAiAIARCEToKQsXHXMYKw4o6evRz8lYp06+w7B04RhAEZb79zyITgRmGxq68bCEIABCFAEBKEjPVpRwlCK7JyrteNGxPwl/uLdTscPHmRIAzC+GmT3rn5hebDNB+60P5vJwgBEIQACEIGQehijZnBszdoHZcgv+I/adJbS8sShEEYeuBXruWb9zfY+l/UBCEAghAAQagl++hAgtAdLdz6aJepQV4W8qmeMwjCgAxdafyeW1DoU9a40xQnv5QgBEAQAmAfws96czgMgtAZreCiE/qP3xUXzNd90+7jBGGgLh9tOWLRmKStU5en9p66uvZbCQ7fOQQhAIIQAEHoLdLAIAhdO385p8eklT97NHD7Uvz+6XhtyFkZg5BBEAIgCAEQhH9+bhDnWwShn/Yey+g28e2/PD84OJeSLtt2sDIGIYMgBEAQAiAIG7SbyPkWQRgRWkRk3rrdrw6cF/FpwzotxlSCIGQQhAAIQgAEofuV3Bdv3qdMisZRUFRCEEbKhaxcxaFuHvvHi0M/WbWl/+fcOoBKF4QMghAAQQiAIBy3eJvdR63VIEwMIwjdU5mv3J4eN3zRb57s79s595TlqZUuCBkEIQCCEABBuHXvCbuPWtegGksIQugZHjhz/d+aDXF9zt20W2KlC0IGQQiAIARAEOYXFH2sis1V3bUXeW5+IUEY9hhMEL6XI2cutUtI/sq9nRx9WjUbWemCkEEQAiAIARCE8qdnBwXnqlGCsOuEFQbvIyevQFvJu/i06sbF0rKySheEDIIQAEEIgCBsMSzJ7gP/UeNexSWlBGF4Q/fOGXyg/tPXuvjAns28WumCkEEQAiAIARCEq1MPW3/sQ+dsND66nHM9ZoLw6Z4zzIfBC/3mWH/m95+4UOmCkEEQAiAIARCEhcUld9RqpwO2eyfh8fNZxhfT3t7x2ept4mesKyktM/7KzM6z/rb583ODTEzQ7anb9p00bmTlXP/0Pa3sPvPbD5yudEHIIAgBEIQACEJ5tvdM6w//D8/EKwmMY5v3HL+1bZ1+Y+rB08ZHV/NuWH/ePlOttW5mi4GtI6q9PvITd7ecu3aXcaNu3Bi7z/z6tKMEIYMgBEAQAgShzWv/gjM+uM10KuziGajfenxRcalxZtPu4/81t/nRKi201X7ejULjFxfPmx6XiWZ60fXS33pFHF0//OrAeXaf9ncOnCIIGQQhAIIQIAhjc2guy7y/mzdv/rJpPxe/t/obozKyrhkHElfseL+LBr/ToNvizfuML26r0db6k/Zcn1kmaml686H2k/7rET3ebZq+kgj4bYT7jmcQhAyCsNIBCEIABKFn7KJtjn619o5bsmW/3ZvTnu8z+0N/b6MOk89fzjGO/fyxPtafMV1pefTs5SitQe3w/p4PSt847Dh0xthz58vD7D7tF6/kEoQMgrDSAQhCAAThrZu+vl6/s7sD0KyXlmAxFaOZzJmrdn67QbcQf6kuKB29cEtZ2U3jTK3mCS6err82G6zuNVFFr85LA+Z+wIP6WJW41iOX3CgsNhV2+mK2LkZlH0IGQRgmAAQhAILQ/6dCedZx7LJLV/PCXj/mHy8ODeP36p9ydzWgQle/wlETnsjICj3GvNs1I+j1QQtCeVzffKDrhOQU1VdFytO7KtXi0ASmEYKQQRBWNgBBCIAgvEVF8YNGPV0fiaZiGneakrRx77XrBSYEuuwzIWnr35oNqcgv/fhdce0TlmoW1Ng2aNZ6d8+VbpJ8JX5eyv5T75dPmkVcuT291cjF32/Uw7ttMlLajk4u10P7RdO+ugu0uKQ0jF1SXES4rnQlCBkEIQCCEIhpBGEIZq1O8+2QFGnac69Z39n9p6/V703esl+LnSoUZ6zcOW7xts7jlzfpPPWnTXpb/I0/atxrzY7DxqqlWw/48Fxpo8U/PTvo/tbjn+g+XWvGPtxxcr24sb9+or8uwrz1Z/TUmQjpMWll2PeXvjUsSXO/oUwYXi8o0htDL6KLZ3jE/E0EIYMgBEAQArGOIAzhYryYPyV9ssf0yznXjSUnM65E/kFFNAj7TVtj5XLi2m8laMuQMUlbV6ce1qTo3mMZx85d3nXk3LJtBwfP3tCg3cTba7Z19+wdPnOJIGQQhAAIQiCmEYShOXDygrfVewyPL9XrOHV5qurX2PCFOh2C8KBmr0kzvtOaPTHwftBSsUYIQgZBCIAgBAhCglB6TVlVGZ4T7ZFoZXeHaq+PDMLDmbxsu/HXxOR3YuOd0CdxNUHIIAgBEIRArCMIQ1ZSWuYt4hLz4+UBc92vpxKbQTh95bvexg/RPrRyjy4hJggZBCEAghCIfQRh6LThwedrt4/t5+RXj/ezsifeipRDlS0ItaJpbNSgxptDFhohCBkEIQCCEIhtBGEY62dG9qTf9aaIB09eNDZoIwT9tIg/Ir2TjS+0yssn7m4ZM28DTQ8ShAyCsBIBCEIABGHoBs5cH5PPhnpmVWq6++3pYzAI17575DPVWsfMO0GL4hghCBkEIQCCEIh9BGFYtE1cjD0VmvbU/W/GKu2OUBmCULtBxFINqr7Kym4ShAyCsJICCEIABGGIOxNq5ZVYeioSkrYaBx5oMyGyj6v31NXGsXcOnNKOHbHxNvhi3Q5nMq8auxysWMtg/KhxLwOAIATgAkEYehO+OnBebFwp6m7lFd2R+PG74iL46LpOWGHc23c847sNu8fALPHK7ekmeB5qP+m/DpXB+NOzgwwAghCAIwRh6IbP2+QweNyP22q0ffudQ8aljmOXxXwQSmZ23t2vRveVjeOXpBjHbF2hzWA06jDZACAIAbhDEIZu0+7j33qwazQ+/J826X3g5AXjWFFxqb7Lj9Rj7DRuufGLdqpU/WqejYVk7Jq1Ou2/jpbBiJ+xzlgAgCAEQBDaoDX6G7SbGF2PvUnnqbn5hcYXpy5kf+XeThF5mM2HLjT+0hcEKu3oumY4ccUOE2D6nH6y6n9s6cFgpJ/ONBYAIAgBEIT2TFmeGhXb1usgZ67aafyVevC0drerDEHo7cHYbeLbUbH06Pcb9dh+4LQJvKd6zrh1zAzGPa+NNAAIQgAOEIQWbiQL+JnrY10TL2TlmkjYffT8txt0qwxB6Dl3KUc7MX6sSkBvMf3InS1eH7Qg70ahiQZHzlz6VNVW3pEzGFv2nDB2ACAIARCEDmjK5a5Xhgftwf7myf6rUw+biNK1tfe1Gufno1aSmYg6evbySwPmBu2Kx782G+x2YtCBATPW6sgZjNcGzTeWASAIARCEDqi+ArKh9g8f7jkx+Z3g7DY+e03aDxr19OexP91zhgkATR33SVytrbQj/mb4W7MhCzfs1aYpJtromJ/sMZ0cquSjxpujtU6VAeAEQQiAIHQg7fC5Z3rN/Fz1NhG5JrBW84QlW/Y7SEELS4/qPfaN+l0qSRB69EKsTzvarO/sL9Tp4PObQVOUjTtN2bznuIlmpWVlLw+YSxRV2tGw/cT8giIDAAQh4ANNKGk2I+bHtesFxhe6U2va2zu0Eqn2/fPhtOkPz8T3m7ZG97CZYFMW6mn583OuNqX4ToNueieb4CkuKdX2j6/Ez9OaLk7fCbqDsdrrI8cu2ub+uw9fZ5i/Xr8zdVSpxv/Vbjdy/mb3M9sACEIAcJ9AupRUG23/+on+djes+3K9jtqpWbvJnc28aqLN/hMXuoxfoTJUwFR8c0XNCo5J2nroVKaJBofPXFKwaS0iHbkmdW3tMKkfqO37vA6MPTcKi5UHuhPSe8ZieDB087O+3orBdzIAghAANG2oCwj7T1/7cMfJv3q8X7nWHdF58Hcbdq/+xqgWw5K0iZz2l9d357Fxoq/1A4fN3ajrKuu0GPPLpv20WcX77Z6naSI15EPtJ705ZOHAmeuTt+zPyrke7W+JrXtPTEhOaTs6WVd4/uPFobrZ8gNmldXPX72v0y+a9tVzpSVDh87ZuHJ7enZuvqk09GC18aPmDCcv2x5Lg6GtcdbtPHrpap6pJAAQhACg+6N0kWfK/lOLNu2btHS7brHTMiRdJ6zQ0PqK+peaR1qwYY96SXNKlW1ZBe2hrymCkxlXNHSOGPTNEhzcfKiHr/1CvGfg9MVs/cucvAIDAABBCAAAAAAgCAEAAAAABCEAAAAAgCAEAAAAABCEAAAAAACCEAAAAABAEAIAAAAACEIAAAAAAEEIAAAAACAIAQAAAAAEIQAAAACAIAQAAAAAEIQAAAAAAIIQAAAAAEAQAgAAAAAIQiDqXLtecDLjSmUb+QVFppIDAAAgCAEMmb3h//vnW5VtJG3cayopAAAAghAAQVjJAQAAEIQACEIAAAAQhABBSBACAACAIAQIQoIQAAAABCEQ8whCAAAAEIQAQUgQAgAAgCAECEKCEAAAAAQhEPMIQgAAABCEAEFIEAIAAIAgBAhCghAAAAAEIUAQEoQAAAAgCAGCkCAEAAAAQQgQhAQhAMC9V+LnPd1zhsUxfkmKEQAEIQCCEAAQcP9Xu53dv//VhEYAEIQACMJKCwAIQgAEIQCCEABAEAIgCAGCkCAEABCEAAhCgCAkCAEABCEAghAgCAlCAABBCIAgBAhCghAAQBACIAgBgpAgBAAQhAAIQoAgJAgBAAQhAIIQIAgJQgAAQQiAIAQIws9Vb6P/xg3y2Jl+1lgHACAIARCEAEH4vYe6GwAACEIABCFAEAIAQBACIAgBghAAAIIQAEEIEIQAABCEAAhCgCAEAIAgBEAQAgQhAAAEIQCCECAIAQDRjyAEQBACBCEAAAQhAIIQIAjhUt6Nwqt5N/S/TaVRXFJ64OSF5C37R8zf1D5h6Qv95jRsP/HBthPueW1k1ddG/P7p+N89NeCfLw2r9vrIhztOfmnA3B6TVk5etn3NjsPppzOLiktN5XC9oGhn+tnFm/fpsQ+bu1Gfem8MnbNx3rrdegLLym4agCAEQBAC0YIgRE5egSqo07jlip9fNu33hTod/utV0FnUT5r0rvHm6Bf7z1Esbd17Imb65+jZy+OXpDzbe+Zvnuz/8bviwn6jfqpqK0Vj1wkr1qcdLSgqMbGlsLgkaePelwfM/fljfT5yZ4sPfiouXsk1iFGlZWXnLuXsPZaxIe3Y8pSDeldoLNt2UP9S/+b5yzn6OoAgBEAQAtGBIERmdt7weZuqvDz8o1ValPd1+fQ9rWo2H61JIZ0dmmijc9ZNu4+/MXjBDx/uGeLjDePJ6T99bdrhc7bOjzUJuevIOYvjyrV8E4L9Jy5oLvSOWuU4jVY9mn9z6kK2fp2jcSIjy/hIz4aLR6GUCvKVAt63Rfe3Hv+DRj0/9EuTT1Zt+dMmvTW13n3S26tTD2s+2bh3ISs3xKf6thpt7X7Y67ceH/brHvy/PAGCEABB6Jyuu9NViBbHI52mmBAoVJp2S9SpW8VfIM0XaeZwwYY9JaVlJvDeTT8TN3zRdxp005H7M75cr2OLYUkV7xa9uHYPTBd8fmj8aMY4jJlS85/GLtrm7un95gNdveT2pzq82VHrQ61l3suNwmJdtm1xhP4h1fcFCUlbq78x6mNV4iry0PSP6xJrXVqckXXNOKOZef2uqBvNhy40AAhCIPgIQqd0Um736VI2mA+0ec/xunFjXJzc/Khxr6nLU2/evGmCRyfWypLfek0ViaE5WM2ZbNx1LCqCUJNCbw5ZGF4JfPW+TuY/5RcUeRchOxrrdh41vhi32FXZ6qpL814UDHZ/ka5nDuUi6uf7zP5MtdZ2f7XeTve1GqeLSx38FUEQhgAAQQgQhAShrtzTCZnrU5y/vzBEy4oE6oK3volrvnJvp4CcAv6t2RDdeRXkIFS1fr9Rj7B/rC4XNP+j9cgl7p5Srf1jfHFvy7Eujv9r93fWakZBCMLs3PxXB87zLgp1N379RP9Zq9NuzVUShAAIQsAPBCFBODH5HWs3z4Rw0aAuNgvCjYJaLebr9TsH8ETwHy8OVXcFMAjjZ6yr4CWCf3l+sPkfJzOuePepuhiaftRdiz58s6A3tovjbzNqiZFIB6EiTWnq20dAFxRoTVpDEAIgCAHXCEKCUMuBah08/891mvWdHcG7CnWT5J+fG2ThgTh+iq5dLwhIEGr1SC0eU/Efq9V0zHtp0G6iu2dy0aZ9xjHVi6ODP3zmUmSDUEub1GkxJiIfAa1opVtVCUIABCHgCkFIEOr2La3oEKnTHd2sqAMw/lKFdh6/3JvmCv74bsPuW/aciHgQ6raux7tNs/JjtUOjeS+608/d09ik81Tj2BPdp7s48rtfHWEkckGoda2+WLdDBD8Cn7i7pdYj1fcRBKFlAAhCgCAkCDU36N31FMGhHNWCLsYvuk9SN+m5fVAO1psZOHN9ZINQ66Da+rFaj8S8D908pj/gaJ8PXdLp9FsGR+viJK7YEakg1DXV7ROWBuRT8M+Xhp3JvEoQWgOAIAQIQoJQU3NaMj4IJz0PtJngff3v2qrUdPdzHQ5XRtGzFJEgnJCcYvHHalcPc4uP+094ZeXI2nePuDhmbZKuz2lEglC/V8veBuojoPVptbs9QWgBAIIQIAgJQl0B2KjD5OCc9zzVc4ZxTMvYeMuWRO9oNXKx/0GoJWE1vWbxx/aYtNLc4uP+E7oLzjijTThcHPMr8fOM+B6EOXkF97xm40pyB5ePzly1kyCsKAAEIUAQEoRD52wM2qnPyPmbjTMdxy6L6hTU0LZvmh7xOQg1J2l96R1tQW5u8XH/CW2WkJmdZ9zQrZ4ujnln+ln/g1BZftcrw4P8WRi9cAtBGD4ABCFAEBKEx85dtrCptIO9KI5oNUUH2o5OjvYa1MSItzmhz0GoSrf+WKYuTzW3+LD/hPsvHXYdOefiaP/wTLwRf4NwzY7D97ceH/xPhK4uJgg9AAhCwBCEn6veRrsmBHDo2/0ABqF296rx5miXJzEWNiRgQ+r/WlTG25DN5yDUVN6X63X0fwcI7T/hbndHI1HyHlO++h+EWtcnWj4US7bsJwgBEIQAQRjokbRxr4MgjPGRrJM8e7xFSqJ9ePfy+R+En63exvt/fNv63KM/4O7J1Aykse33T8e7WBb1at4Nh0EY/UPvz73HMghCAAQhQBAShDE1/vTsIGOJukJXWkb7EzJi/iZfN6Z3P3SBpfkwv3X2WPokrra+kYmL49SuhuYDEYQaP36kl9a/IQiDBCAIARCEBKH7GaRQZGRd+8q9naL9qeg9dbWR4ASh+zk6Bxtd/PclkcYqXVjr4jhD2V+BINR4vNs0ghAAQQgQhARhTI3HuiaaitGG2s63WHQ/tBaOkZgLwuzcfPNhbhQWu9sx0rvO0JZqr490MfGljWEIwhDHnLW7CEIABCFAEBKEsTM+WbXllWv5lfxt9vKAuUqCmAxC5Xpk14b1StsKvVG1m4X1I+ybuMYIQRja0LUAWTnXCUIABCFAEBKEsTPGLd5mwuVtqhHtV8F5NRh7QXh7zbYmNKcvZn+sSpyLY9Cegd7TW3HT3t7hYr/EC1m55QpCxov95xCEAAhCgCAkCGNn3NdqnAlXvbixUf3YH2w7QdvBG4nFIPx2g24mZA+1n+ToMLbsOWFsaNRhsos3gJHyBCHjI3e2SDt8jiAEQBACBCFBGCNDa+5fLygy5ac97qL6gWsnxqLiUiPBD0L3a7poYRVHh/FK/DxTYYXFJZ9zsDOHttcjCMMYtZonEIQALAchAIKQIPy/2u2+91B3lcZPm/T+5gNd9TW8b796RcohU04lpWU/e7SP/5uh/a3ZkGZ9Z3cYs3TAjLU9Jq3UOZxmOL/ToFt5f9SdLw/L9zI4doNQj9GEztn+E9pwv7ik1FTM0q0HrB/YN+p30fxw1AWhtonXjXw/atxLwa8rcm+r0TZoCxQnJG3VBySUocdi96i+UKeDfmx4Q3+lGAAEIUAQEoT+z84pbxZv3qd1Gv53SiT14OnO45d/vX5n14fRadxyU05jkrb69ix9qmqrZ3rNXJ5yUM+JeR/aX0GHVOPN0aGE9B+fHejtqBbbQXhvy7EmdC73n9BrZyrmhX5zrB+VvlYwEg1BeEetdrpidvySFG0sWVD0358C3Qa5Zsdh/V2hnUV9OyR91kyF6Vswu0f1dM8ZJloAIAgBgpAgVApevJJrPkxufqHORL01PxwNreZvykMTPpqU8yeY2yUkX7qaZyTk9VHihi/SP/h+P/OXTft5PzB6g1Bvhj88E6/t1DVHqtkYrbai9/+tMXV5asexy/750rCnQj85drz/hFbuqeDWJl+73/7XIsfPZwU/CKu8PFyvr14aE5qjZy8rdL9Ur6MPx7bj0BmCMBwACEKAICQIdXa7OvWwKY9VqemaJXB3taopDyWHPxNcZzKvhr1X/sMd32MNEl1od9b7mVEYhLpi9ske03XrZojTm6FfD+l6/wnd/leRC3S37j1h/ZC0eaaRAAfhzx/ro3k/E5a8G4W6kc/1CsDP9ZlFEAIgCIFyIwgJwt882f/85RxTflr24xN3t3R0VJnZecHJIT3MEfM3mQpLXLHj36cKv/VgV+2TYSTaglDbReqyXs0VG8fc7T8xa3WaCVebUUusH8+MlTuDHITa2sFL6Io4dCrzL88PdvoNxbXrBQQhAIIQKAeCkCD81eP9rubdMOHqPultRwe2afdxExr9Sdc1qJsqjSXa80CXQXpLmxw4ecFItAWhbgw7fOaScc/p/hP1W4834dIyS9aXHtGdeMEMQq2zMmzuRmOJHuYjnaa4O9pyfHFDEAIgCAGCkCDUNZ9hXwN56y4vR2vM6D4lExrd+uj0WZqY/I6xKmX/KT1pO9PPGom2IHx90AJvbwz33O4/oc6/ci0/vGkuF8+qkeAFoWpw+sp3jVU3b97UmkyR39qEIARAEAIEIUE4aNZ6Ex73k4QDZ64PcTs47xzO0Xisa6JxwFuTI+qCMH7GOuOM//tPaBlYU379pq2xfiR7jp4PYBCqBsP8eyyEu0nrtBjj6LA37jpGEAIgCIEPRxAShLrszcpUz7lLOS62KGyfsDTEtW3cPUXafTE7N9+4EXVBqEVBjEv+7z9R9bURpvz+/sIQu4fx5+cGGQleEI6cv9k4o+lZrQzsemkZghAAQQgQhAShgyN0f4qsoX3eLJ0TW9gfnyBs2H6iccz//Sf0RUZ5l3jVDnv6p9xPVEY+COvFjTWOaSt5R2sU66sughAAQQgQhAThh6wsqjt5jCXaZU4/MyInUrqY0N2ujMYYgtDblcS73S6CtP9EEC6CHbtoW3AWxlQQuttvM/RNEYO2v7+GUpMg/CAACEKAICQIRy/cYuxZsmV/RIJQZ9K6zcnF8/OVezvdSiCCUO9DE2mO9p/QfvqmPLQXpd0D0PIqRgIWhPrJxhfan1Pxaf342yUkE4QACEKAICQIP2h9RW8ncVs0mWD9IB9sOyFSl5xp6L3q/QqC8BdN+3qTyRHXqMNkFw9Qq4aGvru6NmC0+9s37zketCD8VNVW6jTjl9cGzbf+EO56ZThBCIAgBN4XQUgQVn9jlPU1A3Wi7H8Qas8xF8+P9oS4tQooQTh1eaqJPIcbTmqHfROaeet22/3VP3u0j5GABeGzvWcaH2n/FesP4TPVWusvJYIQAEEIVIog/Fz1Nvpv3AAOneUENgh7T11tbNP2X/4H4Svx81w8P7ol0vv5BOHna7f3NkwPiN8/HW/9Mf6ocS8Tmse7TQvUNh5eEDrfA8O9Hz7c0/qjOHLmEkEIgCAEKkUQfu+h7ibGuA9CbdVgbLu/9XjnQej+hi5vpJ/OJAi98dKAuSZIJi118ol458Ap82GKS0q/UKeD3Su3M7PzghaEf3x2oPGdFnCy/kAWbdpHEL43AAQhQBAShFqfw9imcnAehO6nJTW+36iH+X8IwmXbDpog0XTll+t1tP4w3xyy0HyYte8esftLH2o/yUjAgnDQrPXGd1OWp1p/IEPnbCQI3xsAghAgCAlC7+4au+KGL/I/CLUdgvUnp2m3RILQGx+/Ky6/oMgETPuEpS7uGv3QD8UbgxfY/aXLUw4GMAh3HTlnfKdfav2BtByxiCB8DwAIQoAgJAhvr9nWONB1wgr/g1Ar2bi7wZIg/PNzg0zwaCt57T/h/3XU323Y3eKv+3aDbmVlN4MWhLolW2EckYlf6y/oE92nE4TvAQBBCBCEBKHOeGIjCDV55WL6dMbKnQShN57sMd0EUuNOU3R4fu4HmHbY8hRWl/ErjAQsCPUuMhFi/Urg+1qNi+UgBEAQAgQhQUgQXs274SIIV6QcIgi90XrkEhNILvafuKNWu8LiEn/e3h+5s8WpC9kOgtBZRLmn7S7tPpaqr40gCAEQhABBWG4EIUGoze4JQm/oNTVB5WL/ifnrd/vz9NZqnmDEQRBG75ywnuHYD0IABCEAgpAgJAgJQrf7TzhY9lOzeXZ/0Zy1u4IZhKqXABc+QQiAIHQPIAgJQoJwdephE3gEoYv9J7RGUU5egfkf2sDA4m/5Ur2OujbVZRA6WIjFvd88aXkLmXteGxnLQQiAIAQIQoKQIMzNL/T+pP+zNwRhrO4/oYlH8z+qvT7S4q9oMSzJSCCD8N6WY02EaOcPB3+BEIQACEKAIIxuBOGH+GiVFtafn/gZ60zwEYRu9p+o2Xy0+U9XruXb/S37T1wIbBBqms5EQklpmfXPcsP2E2M8CAEQhABBSBAShF+s28H68/NCvzkm+AhCN/tPKEsuZOWaf5O4YofFn//3F4YYCWoQfjZC+xAeO3fZxT4iMR6EAAhCgCAkCAnCnzbpbf35+fUT/U3wEYTO9p/QHYPm3zTqMNniD5+QnBLkINR4N/2M8V3Sxr3WH0jb0ckxHoQACEKAICQICcLqb4yy/vx85E5vjij4CEInq1P+tdngf1+65nPV29j6ybfVaJt3ozDgQdh/+lrjmvu/PTRGzN8U40EIgCAECEKCkCB8qucMF+vKDJ69wQQfQehs/wldwej98KVbD1j8sc/3mW0k2EH426cGGN9pY0brD2Thhr0xHoQACEKAICQICcJeU1a5CMI/PBNvgo8gdLb/RI9JK70f3qzvbIs/NmX/qeAHoUbqwdPGRzcKizUN6+JREIQACEKAIIx6BKH/tx55Y9/xDBN8BKGb/Sd+9mgfY0xZ2c2v3W9tL4RfPd7PSDQE4aNdphofaaMXF49C+5TGeBACIAgBgpAgJAiPn89yFITBX2uUIHS6/8TO9LNb956w+AP1t1+0BKGezKNnLxu/1H7L/vWi33qwqxGCEABBCBCE0Y0gDMFX7u3k6Jw4/XQmQWiixCO2959oNXJxm1FLbP20T1ZteTnnerQEoUbTbonGF7qw08Xx39dqHEEIgCAECMLoRxCGQH/M0TlxlZeHa082gjAq2J3N0/jqfZ2++UBXWz9NvWokeoJQa+16dzy6VrP5aBfHr7uLAxKE2irTuAOAIAQIQoKQIBy9cIv+sKPRYcxSgjBa/PHZgTrmYI5VqenRFYQav3myf1FxqXFprpu7BzXWpx0NSBDWixtr3AFAEAIEIUFIEJ7MuOL0VH78khSCMCpMWZ4azBr8fqMeWp8m6oJQQz/fOHP+co6j670/U611YXFJ2EHIksUAQQiAIAwQgjAUf3p2kLtz4o9WaTF95bvGgbTD5w6fuUQQ2qIGcBQYVjaxiMYg1Ji6PNU4kF9QdNcrwx0dc924MUaCEYSfvqeV2yvPARCEAEFIEBKEg2at15932oRjF20zVu09lqHd837RtO+16wUEoS2dxi0PWg3qzXMm82r0BqGOf2LyO8aqvBuF1V4f6e6YxyRtNeHSf6FYPx63y1MBIAgBgvBL9TqqmqJihLGSO0EYiszsPK3i6PrMWPcT2rrwb3nKwc/Xbu/92Pqtx9+8eZMgtOLcpZyP32Vv/wn3t5AFPwi90XvqamPJhaxcXUXptGAzsq6ZcP20SW/v5zjccQQAQQgQhJV2qO5cBCFBKE/1nOHDK1j9jVG68amCV8q1HrlE56z//mM1r0UQ2tKk89RAfernr98dA0Go8VjXxIrPZm/affzbDbo5PU7tamgq4O8vDHGxPI/3pY8rAAhCgCAkCAnCXUfO+fMi3l6zrWZLsnPzTTmVlJbp1dQFaY6ygSB0sP+Ehb0riktKYyMIvdVxFm/eZ8JyNe9G3PBF3lchTofu+A3UhpbemLU6zTgAgCAECEKCkCAMbUNCB8sYPtljuvYSCGUxw3fTz3Qcu+y7DT/o3qTPVW+juwpjLAjZf0K72xuJlSD0xm+fGpCQtDUnr8CERpfKvzUsSd+k+HBsWlXI+0iGTYfq4sC+UKfDwZMXjTsACEKAICQICcLdR89rN22fX9PbarTVkobtEpL1Si3Zsl+7n63ZcThp416dMbdPWKr7x3SPa4g/6geNel65lh9LQcj+E1pNJPaC0BufqtpKF2cOnr1h465jmv0z/0aXR2ozmKVbD+h7EK0A7PBT6WDj0KFzNjo6ti/W7aC/IkxotDDppat5BgBBCBCEBCFBKAG6k9D9PYo6EYyNIGT/iSovDzcSkCB0P2f+tfs764porZb0sSqRWddHGzxofSlTMZr2d3qQd748TKu2nn2fhWe1HI4uLn2+z2y9gVmKBiAIgXIjCAlCglCnWbr2MqrfJLpiLTaCkP0nNFHpZxAyrGyjf/pitj9HqwlDLTZT9bUR3vj90/H/9S1G38Q1BgBBCBCEBCFBWF4DZqyN9veJtgKP9iBk/wndMqcVZQlC34a+Cbp4JdfYcEctS3vT+//pA0AQAgQhQUgQalFHF2nk891ZqQdPR3UQsv/ESwPmGiEI/RrdJr5tLNF8XbQGIQCCECAICUKCUPYdz3C7T7378c0Humr/7ugNQvaf2HHoDEHo29C9izcKi40lLbyFRiM9uownCAGCECAICUKCsBK/0/7x4tCi4tJoDEL2n9BrYYQg9Gska/VOe7SsS3TfEgmAIAQIQoKQINTC9w3aTYz2N0yzvrOjMQjZf2L4vE0EoW/j0S5TjVW6F1FbZURxEAIgCAGCkCAkCCU3v/DXT/SP9vfMqAVboisI2X9Ct4Bm5+YThP6Mbzfo5uLZ/luzIdEdhAAIQoAgJAgJQtHu2N+o3yWq3zNaKnND2rEoCkL2n2jaLdH4giDUPN66nUeNA2MXbYv4o3uh3xwDgCAECEKCkCCsoL3HMrRTdlS/bb5cr+OpC9kEYdj7T3zibl9XGPISxQcEYZtRS4wbeTcKv1SvY2Qf3dM9ZxgABCFAEBKEBGHF7Uw/q6aK6neONq3WpnYEYXge65ro2yv1o8a9dP+qcY8grBs3prSszDjTa8qqWAhCAAQhQBAShAShtxGF7jWK9pUzVBoEYRhS9p/y7WXqPXW1cY8g/GuzwZrEMy5pH4vvNuwewcf4eLdpBgBBCBCEBCFBaMv5yzmaZ4vq98+m3ccJwvD85fnBPrxAH6sSp7dZtAfhn54dVL/1+IDXYE5egXFvecpBXx6R+78AARCEAEFIEBKEcr2gSPNs0fjO+WiVFiPnb+aS0bAlrtjhw8t0f+vxRqI8CKu+NkLrdv6kSe9gfhaqvT7Sq0F/vDZofowEIQCCECAICUKC0KOy0sYAUfS20eIWa3YcZlGZitAW/1+9z/n+E4s374uNIPRW6P3Wg12D9ll4ssd0vZQ+v3OqvDw8doIQAEEIEIQEIUEoB05e0HVxUfGeqRc31rsKkSCsoC7jVzh9pb5ev3NJaVnMBKEcPXtZa+QEZ/+VQbPWm0jQhKT34fJ5VH9jlAFAEAIEIUFIEDqi9Qn1bryjVrvAvlsUGNNXvustJEMQVlxG1jWn+0+0S0g2EkNBKBev5HrzY5EdP2jUc9u+kyZy1IRa1NTXR+29EAAIQoAgJAgJQqcuXc17fdACrxOCMz5XvY2ezFuLKEZFELL/hObTYi8IpbiktO3oZG0BH8H92b3PQmSVld3sk7j6k1Vbxk4QAiAIAYKQICQIPWcyr+rE+rYabSP+DvlCnQ56Gi/nXDcegtDt/hPuz92jPwg9W/ac+EXTvj5/HH7ZtJ+3sm5wHDx50bclWP/x4lADgCAECEKCkCD0TW5+4eiFW/7WbEhE3ht3vTJcK2EWFJUYD0HogJaZdTQbPO3tHbEdhN7yKsPnbfpyvY7+LKSk3+XdkxlAytQab452/SToE21iD0AQApi3brfONirtWJFyyJQTQei/Y+cu95u2Rl/P+3CZ3B+eie80bnn66UxTYc/3mW39HRvKVxhsPqEPlEo+5oPQc+16QcexyzSV7egToeDsm7hGv8UE3t5jGc/1maULvF08D795sv+wuRsNAIIQAHTzjNZ/tztOX8w2DlzNu2H3ODOz80xE6Q7Dmat2KrR+9mgfi6d6Ws3/4Y6TJySn+LyJORzN6mirOiOVIwhv3Vi4ZMv+J7pP17JMthYRrf1WwqzVaYXFJVH3V7QO+/Fu077ToFtFngHthaMvoVqOWDR//W7vr74AAQhCAACycq6vSk2Pn7HuqZ4z/vnSsNA3tdOZ7o8f6aUty7UKZdLGvZGKQJzNvOpoynfXkXOVLQhv0dTo+rSjujpA/1R5t/f8aJUWui/xpQFzFVT6OslEP32FtGzbQc1wvjxgrj7yv386/rsNu2sC+d9nEfUv9W9q2xv9Af0x/WEtJqy7W6OshAGCEAAAncBpGnP7gdMrt6frS31dXXlr6NJo1eOOQ2e01YEWJzQBgN5TV7uowT8+O9BIJQjCUKYNdRWl6k5PtVKncacpNZuPvnX5sfpH02hvDF6gBNKf2Zl+9kZhsQEAghAAAPjgp016uwhCLUREEAIAQQgAQKXDhhOfqdZaW5YThMEFAAQhAAB4JX6eiyB8ssd0IwRhYAEAQQgAAHd7OtomQfvREYTBBQAEIQAA0JI/LmpQNyXevHmTIAwuACAIAQDA3a+OcBGE/aevNUIQBhMAEIQAAGBFyiEXNajtJS9k5RKEAQUABCEAACgpLfvDM/EugrBh+4lGCMJgAgCCEAAA9JqyykUNaizdeoAgDCgAIAgBAMCOQ2c+WbWlixr8ToNupWVlBGEQAQBBCAAAjp27/M0HujqaHuw3bY0RgjBoAIAgBAAA2w+cdleDn6nW+sq1fILQOQAgCAEAwKBZ69enHS0oKjEhOH4+6+UBcz9WJc5RDWq8NGCucY0gBACCEAAAFBWXfuTOFqqUT1VtddcrwzuMWbpo0759xzNOZlw5m3k1I+ua/h/NB85du0v/0d9fGKI/6XToYI6cuUQQOgcABCEAADh69rISJTjj4Y6TjQ8IQgAgCAEAwKrU9EAFoVYuJQgBgCAEAAB+GLtoW3BqsE6LMcYfBCEAEIQAAKB9wtLgBGHK/lMEIQAQhAAAwCePdpnK9CBBCAAEIQAAldHfmg1hepAgBACCEACAyuir93ViepAgBACCEACASie/oCgINfjRKi227TtJEAIAQQgAAPxz4OSFIARh29HJxk8EIQAQhAAAYOnWAxGvwd89NaCwuIQgBACCEAAA+GrE/E2RrcHbarRNP51pfEYQAgBBCAAAWo5YFNkgnLt2l/EfQQgABCEAAGjYfiK3DhKEAEAQAgBQGf3hmfhI1WDTbok3b94kCCMDAAhCAADwhTodIlKDNd4cXVRcaiKCIAQAghAAAFzNuxGRGqwXN1b7H5pIIQgBgCAEAAC7jpzzvwaf7zO7uKTURBBBCAAEIQAAWLhhr58p+Ol7Wo1asMVEHEEIAAQhAAAYNGu9bzVYs/noQ6cyTRAQhABAEAIAgDcGL/AhBX/8SK8FG/aY4CAIAYAgBAAA97ce7zQFf/90/KzVaWVlN02gEIQAQBACAIBfPd7PRQd+4u6WTTpP3bjrmAkmghAACEIAALDveEbPyStrNU+4vWbbikeg9rhXOyVt3Judm2+iBUEIAAQhAAA4m3l1zY7Dw+dtUv880mnK3a+O+N1TA77fqMf3Huqu8c0Hun6+dnv9P7ohUP/+35oNeaj9pNcGze+buGb2mrT9Jy6UlJaZWEIQAgBBCAAAMCE55cG2E+yOjmOXmWAAAIIQAAAAAEAQAgD+//brWAAAAABgkL/1HHaXRQAAQggAAIAQAgAAIIQAAAAIIQAAAEIIAACAEAIAACCEAAAACCEAAABCCAAAIIQAAAAIIQAAAEIIAACAEAIAACCEAAAACCEAAABCCAAAgBACAAAghAAAAAghAAAAQggAAIAQAgAAIIQAAAAIIQAAAEIIAACAEAIAACCEAAAACCEAAABCCAAAgBACAAAghAAAAAghAAAAQggAACCEAAAACCEAAABCCAAAgBACAAAghAAAAAghAAAAQggAAIAQAgAAIIQAAAAIIQAAAEIIAACAEAIAACCEAAAACCEAAABCCAAAgBACAAAghAAAAAghAAAAQggAAIAQAgAAIIQAAAAIIQAAAEIIAACAEAIAAAghAAAAQggAAIAQAgAAIIQAAAAIIQAAAEIIAACAEAIAACCEAAAACCEAAABCCAAAwCGEAAAACCEAAABCCAAAgBACAAAghAAAAAghAAAAQggAAIAQAgAAEPxD5/PYfghXAAAAAElFTkSuQmCC;" vertex="1" parent="1">
                    <mxGeometry x="350" y="320" width="190.48" height="100" as="geometry"/>
                </mxCell>
                <mxCell id="4" style="edgeStyle=none;html=1;exitX=1;exitY=0.5;exitDx=0;exitDy=0;entryX=0.013;entryY=0.442;entryDx=0;entryDy=0;entryPerimeter=0;" edge="1" parent="1" source="2" target="3">
                    <mxGeometry relative="1" as="geometry"/>
                </mxCell>
                <mxCell id="8" style="edgeStyle=none;html=1;exitX=1;exitY=0.5;exitDx=0;exitDy=0;entryX=0;entryY=0.5;entryDx=0;entryDy=0;" edge="1" parent="1" source="5" target="7">
                    <mxGeometry relative="1" as="geometry"/>
                </mxCell>
                <mxCell id="5" value="" style="shape=image;verticalLabelPosition=bottom;labelBackgroundColor=default;verticalAlign=top;aspect=fixed;imageAspect=0;image=data:image/jpeg,/9j/4AAQSkZJRgABAQEBLAEsAAD/2wBDAAIBAQIBAQICAgICAgICAwUDAwMDAwYEBAMFBwYHBwcGBwcICQsJCAgKCAcHCg0KCgsMDAwMBwkODw0MDgsMDAz/2wBDAQICAgMDAwYDAwYMCAcIDAwMDAwMDAwMDAwMDAwMDAwMDAwMDAwMDAwMDAwMDAwMDAwMDAwMDAwMDAwMDAwMDAz/wAARCAE6AsIDASIAAhEBAxEB/8QAHwAAAQUBAQEBAQEAAAAAAAAAAAECAwQFBgcICQoL/8QAtRAAAgEDAwIEAwUFBAQAAAF9AQIDAAQRBRIhMUEGE1FhByJxFDKBkaEII0KxwRVS0fAkM2JyggkKFhcYGRolJicoKSo0NTY3ODk6Q0RFRkdISUpTVFVWV1hZWmNkZWZnaGlqc3R1dnd4eXqDhIWGh4iJipKTlJWWl5iZmqKjpKWmp6ipqrKztLW2t7i5usLDxMXGx8jJytLT1NXW19jZ2uHi4+Tl5ufo6erx8vP09fb3+Pn6/8QAHwEAAwEBAQEBAQEBAQAAAAAAAAECAwQFBgcICQoL/8QAtREAAgECBAQDBAcFBAQAAQJ3AAECAxEEBSExBhJBUQdhcRMiMoEIFEKRobHBCSMzUvAVYnLRChYkNOEl8RcYGRomJygpKjU2Nzg5OkNERUZHSElKU1RVVldYWVpjZGVmZ2hpanN0dXZ3eHl6goOEhYaHiImKkpOUlZaXmJmaoqOkpaanqKmqsrO0tba3uLm6wsPExcbHyMnK0tPU1dbX2Nna4uPk5ebn6Onq8vP09fb3+Pn6/9oADAMBAAIRAxEAPwD9/KKKKACiiigAooooAKKKKACiiigAooooAKKKKACiiigAooooAKKKKACiiigAooooAKKKKACiiigAooooAKKKKACiiigAooooAKKKKACiiigAooooAKKKKACiiigAooooAKKKKACiiigAooooAKKKKACiiigAooooAKKKKACiiigAooooAKKKKACiiigAooooAKKKKACiiigAooooAKKKKACiiigAooooAKKKKACiiigAooooAKKKKACiiigAooooAKKKKACiiigAooooAKKKKACiiigAooooAKKKKACiiigAooooAKKKKACiiigAooooAKKKKACiiigAooooAKKKKACiiigAooooAKKKKACiiigAooooAKKKKACiiigAooooAKKKKACiiigAooooAKKKKACiiigAooooAKKKKACiiigAooooAKKKKACiiigAooooAKKKKACiiigAooooAKKKKACiiigAooooAKKKKACiiigAooooAKKKKACiiigAooooAKKKKACiiigAooooAKKKKACiiigAooooAKKKKACiiigAooooAKKKKACiiigAooooAKKKKACiiigAooooAKKKKACiiigAooooAKKKKACiiigAooooAKKKKACiiigAooooAKKKKACiiigAooooAKKKKACiiigAooooAKKKKACiiigAooooAKKKKACiiigAooooAKKKKACiiigAooooAKKKKACiiigAooooAKKKKACiiigAooooAKKKKACiiigAooooAKKKKACiiigAooooAKKKKACiiigAooooAKKKKACiiigAooooAKKKKACiiigAooooAKKKKACiiigAooooAKKKKACiiigAooooAKKKKACiiigAooooAKKKKACiiigAooooAKKKKACiiigAooooAKKKKACiiigAooooAKKKKACiiigAooooAKKKKACiiigAooooAKKKKACiiigAooooAKKKKACiiigAooooAKKKKACiiigAooooAKKKKACiiigAooooAKKKKACiiigAooooAKKKKACiiigAooooAKKKKACiiigAooooAKKKKACiiigAooooAKKKKACiiigAooooAKKKKACiiigAooooAKKKKACiiigAooooAKKKKACiiigAooooAKKKKACiiigAooooAKKKKACiiigAooooAKKKKACiiigAooooAKKKKACiiigAooozQAUV8QfE7/gp74i8G+P9Q0u10nT3tY5XijaTKvFjOGPYjIrlLb/grf4uUR20+i6T5zsSZ1f5duOMD9ea++p+GueTpqpyRSdmryXU8GrxNl1OUouesd9H/kfoVRX5+S/8FY/FVmzyf2VZ3GJdoh2DhcdSR60+8/4K0+LFtbORNF0WKaQb3hkDnep6YIPFTHw1z11PZqmr2v8AErE/60Zbt7T8H/kfoBRX5/6J/wAFXvGOr31xMND0420cwTylBDAH3P0r0DwJ/wAFTbM6gqeJtLjtrRmEfnW75KHuzAnAArnxHh/ndFtOkm0k3ZpvU6aOfYGo+WNT8Gv0PsCisnwZ470j4h6LHqGi31vqFpIAweJs4z0zWtXx1SnOnJwmmmt09GetGSaugoooqBhRRRQAUUUUAFFFFABRRRQAUUUUAFFFFABRRRQAUUUUAFFFFABRRRQAUUUUAFFFFABRRRQAUUUUAFFFFABRRRQAUUUUAFFFFABRRRQAUUUUAFFFFABRRRQAUUUUAFFFFABRRRQAUUUUAFFFFABRRRQAUUUUAFFFFABRRRQAUUUUAFFFFABRRRQAUUUUAFFFFABRRRQAUUUUAFFFYfxC+I+j/C3w8dU1y8jsbFZFjMj9AW6VpSpTqzVOmm29EluxNpK7NygjcMV5Laftu/Dm+nZYdcV1VzH5gT5SR/T3rO1H/goD8M7C7jtxrEk1xLIsaokRPJ6ZPYV6y4dzTm5fq87/AOF/5HJ/aWEtze0jb1R+anxy1ea7+L2twzL5Ecl+0au03DjdzgdeAa5LxNAhtbv7LMoktSzygYMm0NwFH5V778S/2LfH3xT8aX/ijRtHa80u4ujNbsYyRMpYnIHbg1kap+wz8TIpPMh8J3N1dTSM++IEBFIyd+fyAr+oMNnWX08PTi68OaKtK8o30Suvn8rPofkWKwGJdeco0pNSe9nrq/x0R5Lcaq0tiIlmjJaLfcoY9jlTjHPtVPSdXeXUWtYGlHloPmZAyp6YzXs8X7D3xRmig+2eHbr7VsCo4U+WpJ43cckUyb9g/wCI0QupIdDu9onWCQoSQePmYfj+VdUM+yxxcJ1oWe1pJrp5mH9n4rR+ylZaba9WeS3er3Oh2kzSQsqxsC0wIGCeOPpTLF73VIpLW63SLM+7YUGNvHzepr1zVv2KPH2jaHcTahpM01qhMGx490aqBnP1968rkupNEjhRY47a8gV7dflJEQ6Ec1vRxWFxDUqEoztu4u+vS+v4CqKpRsqqcb9/RM9a/ZW/av1L9nnXvMknuP7H8zY6H50dCegXtgV+nXwx+JulfFrwha6zpE4mtrlA2P4oyexr8VfDGr31/YTyPGs0McpBBI2kjP8AWvaP2ef2v9e/Z21qxutPjmvdLnIFzZyP8jL32+lfCcb8BwzL9/gko1Y6W2UvJvv2Ppsh4kVB+xrv3b/cfrFRXhvhX/goP8PNf8NLqF1fTaa+B5kEibmjJGcZ7/lWhL+3p8MITFu8RJ+++7+7PX0+tfhdThnNoNxlh56f3X+Z9/HMMK48yqRt6o9iorx61/bu+Gl5IVj13LLJ5ZBjwQf8Ktv+2t8NxPcRr4igk+zkKxVT8xPYA8nH0rP/AFfzNf8AMPP/AMBf+RX17DPT2kfvR6tRXkcn7cnwzjLBvEUO5WCY2Hkn0qxB+2l8OZb77O2vwwvjOXXjHrxmpeQ5ktXQn/4C/wDIr65Q35196PVKKzfDfi7S/GFit1pd9bX0DqGDRPu4PQ1pV5c6coS5ZqzXRm8ZJq6CiiipGFFFFABRRRQAUUV8p/tEf8Fr/wBmv9k3496h8NfiL8RrXwn4r020N5LDe2NwICnliQATBCm4ggKpILHgZwaAPqyivg6//wCDl79i/TpcN8YrGSPahaSLTbqQKWxgYWMsSM87QQMHJFfY/wAFfjR4e/aC+G2m+LfCt8upaDqyGS0uV+7Mucbh14NA7aXOqoorA+I/xU8N/B/w3JrHirXNL8P6XDnfdX9wsES4GTlmIHQUXtuI36K+XPF3/Baj9lvwZEzXXxo8FzCOZYG+zXgm2s3TleMdMntkVh2//Bdn9mW/vrSCy+I2m6kdQZEtGspI7gXRaXygECOWzv4wQDxShJS0iyuV7n1/RVbR9XtvEGk2t9ZzLcWl5Es8Mi9JEYAqfxBFWaZIUUV8z/t4f8FevgH/AME4bK1b4oeNrbT9QvpTDBplhE1/qDsACSYYsuqgFcswAG4c80m0txpNn0xRX4q/tQf8HpPwo+Hupva/C34d638RI2tXKX17eNo8Mc+BsDI8LOyZJzjB47Zr5f0b/g9q+L1jZ2kd38HfAV9NHNK9zIdRuY/ORmyiKFGE2jgk7t2AeOcrm7L+vmPlP6SqK/nu8Lf8HxWsprZ/tv8AZ30yTTWGB9h8XOk8Z9fntSrfT5frX2/+yt/wdafssftAXunaX4g8Q33gDXL4EFdWs5VsoysZdi9xt8tPukAE8kgDJNV0uwsfplRWX4M8baR8RfDNnrWg6lZ6vpOoRiW3u7WUSxTKRkEMPY1qUEhRRRQAUUUUAFFR3d3FYWsk88kcMMKGSSSRgqxqBkkk8AAc5NfB/wC1v/wcmfso/sheL7/w3qnjyXxH4k02Qwz2Og2E18kTBQ3zTopiH3gOGJz24NBSi2felFfz66r/AMHw+oJ4xvPsP7PdnJ4f3sLUz+K2W8K4+UuBbFMk9QOgPU45qeDv+D4fXobq3XxB+zzpNxB50hnew8WSRP5RzsVQ9qw3DgEk4OOgoFY/oVor8zf2FP8Ag6i/Zz/bF8Z2XhfWJdU+GniTUFPkR6yN9jM4Usyi5UBVwAcbwue1foz4D+Ivh/4peHYtY8M63pPiDSZiVjvNOu0uoHI6gOhI4+tA+V2ubNFBr8bfj9/weWfCD4ReOtZ0XQ/hz4i8Zf2RevZfabbU1tYpzHKUd1LwkFdoLLjIbpkA5oFY/ZKivw1u/wDg93+H8fjZreH4HeKpPD6xjF42uwrcs+CT+68ogDOAPn568V+y37Onxps/2jfgT4S8eafZ3On2Pi7S4NUgtrhlaWBJUDBWKkjIz2oEdpRRRQAUUUUAFFFFABRVfVdSj0fTLi8m3eTaxNNJtGTtUEnA+gr8dfGv/B5d8H/BnxG1jQ3+HPim4t9K1CSw+1JeKPNEcrI0u3y+AQuQOTzVcrtzAfslRX4x6b/wekfBW71m5jm+Hviy1sY5cQzPcAvLHsXB2rGcHcWGM9AOua/Xf4N/E20+M/wn8N+LLGNobXxFp0GoJCzh2g8xAxjJHBKklSRxkUcrtzAdLRQTgV8U/wDBQP8A4L7/ALOv/BOfxRH4b8YeJrrVvFcyCT+ytGtXu3hXcATK6grHwcgE5IBxnFSNRb2Ptaivxk1b/g9B+Clj431a2tfAvii+0O2hBsbsP5Ul5Jk5BVkygxjqPxrt/wBkn/g7V+EX7VPx18G+AY/A3ibQ9T8YXxsUkluFmjtnJIjB+RQdw54OO2c8UR97YUtNT9ZKKbNMsELSNwqKWJ9AK/Hj9pL/AIPEvhX8CfH3iLwzY/DPxZr2p6BdyWZIvY4Y5nRsE5ZeB19aOlxpXP2Jor8UZv8Ag9g+EM8ttHb/AAn8bReZFvmlub6ERwPj7vyKzNz3AAr7e/4JD/8ABaXwX/wV30TxTN4Y8N6t4avPCLxLeQXkomVxJnaVYKoI46deecUR12Bqx9oUUUUCCiiigAor5q/4Ki/8FNvCP/BLL4B2njrxZp97q8N9qMdhb2dq+x33Eb33bW4UEHGCTmvzivf+D2b4SwXM0cPwg8aTJHJsSX+04VWVePnAMeQOvBAPHTmgrlZ+2VFfjS//AAeh/A8eI7azXwF4qaykRDNfm52xwscbhs8kuQvPIHOOlfsVoGsReIdCstQgZGhvoEuI2RtylXUMMHuMHrQSXKKKKACiiigAooooAK+af+CqcTXH7Md1Gu35pejPtXOOM19LV86f8FQfD41/9lvUFZNy28yylgcMuM9PrX0HCjtnGGd7e+te2p5+ac31Oryb8r/I/LwR3vh7RLZftRkjnVSVByy5/h4960rL7edWjs54rdpZHjLm3bJOGGMHtxWTc3Vxfi88u6kjkuIEKFgMoMYPPvThYQaVqWmyab5rXCqqbcndIW4+97HJr+tnUbXLo57rT+rdrn4vUg425dPy+fTf8ep+03wQRY/hB4bVGVl/s+HkHPO0Z5rqq439ni1ksfgh4YhkbdJFYRoxBzkjrzXZV/GuY/73V/xS/Nn7jhbexhbsvyCiiiuM3GXFvHdwNHKiyRuMMrDIIr4m/be/4J6LrkuoeIvC9u0bOGlkt4vujP3sDtX25TZI1ljZWUMrDBBHBFe5kPEGLynEKvhn6ro15/59Dz8yy2jjaXsqvyfY/D620K88CTXVjPlXTOI3X5h9aZYKbmSbzmkmDbVwp2mLnsK+/P21f+CeH/CbXt14j8KQrDdY3SQKfveuBXw947+EOu/DvXZI5LXULeSOMboniJ+av6iyPijB5xh/a0GufqtLp+l/xPybMcrr4Ofs6kXbZPuZlxaTQGJpbhfOVpBEu77w7E/hVG2s0ZLe4kl86TdvJVjlT6VJJ4bvi8dx9nvPmBLf3dwqvZ22pR2LJLZzLjkAIfmweor3IytFuXdfj07HkSna93p/SNOa9hmtzMiyLA0oIck53D39afpeq21tLJcXiXBWRsxuCMqMYOTVOPRdUfSbe1hjuprdiWO9doj5549qoX1lef2jtxczRsfKeIjasTf54op0Yu8oWa3/AOG8zZyio89jo7y8s9W17dJMYYY9u1SPl28dah1HWI7fxTNIsjLbqTtdULYBB6Dvio18LXCaTNM9pNcEIhMKnqPr1z0qvFaQ6oYZLi3vLOOyk+eHJLkkfdzWEqcb81nb166dOpo5Xd11/VHrX7Mv7TWtfs8+MrPUmurrULeYCNrLny1iPBJz3wc1+qvgfxhZ+P8Awjp+tWDb7TUoVmjPoD2/A5H4V+J16VuLuFVkmRSQrEEhgD3I9BX6f/8ABMzxG2u/s5LCZfNGnXslsvsoAxj2r8m8VsjoPCxzONvaRai7dYu9r+afXzPtuEcxl7R4R7O7R9D0UUV+Cn6AFFFFABRRRQAV/Hz/AMHNyXUf/BbL40CeVpofO042pIUbYzptsSowTwJPMHPPXgV/YNX8ev8Awc0rDF/wW6+N8cPKx3OmbjtwzM2lWbNngdCxAx2AoH0Pg2v6av8AgzF+N958Rf2I/Hnhe8lmkXwLrUFrahmYqsMwmmG0H5R8zMDt9AT6n+ZWv1e/4Nnf+Cyfwt/4JfH4laT8U5dS03S/Ext761u7K2nvGuJI1ZTCYo1IDDgqx2j5mBI4qoysmu6/4JNrn9FX/BRL9vnwV/wTj/Zi8QfEfxnfRwR6dDt0+z2PJJqV0zKkUKKgJ5dlyeAFySQASP5Fv+Cl3/BW34vf8FRvixceIPHeszWGiKiw2HhnTriVNJsI1YsuIi2HkycmRgWPHTAFQ/8ABVH/AIKe+Ov+CpH7TWreNfE19qFv4djuZF8N+HpLnzLfQLQ4AjQAAF22hnbGSxPOAK+aIYXuZVjjRpJHOFVRksfYVny826NJSsrL+v8AgDa1fAmpT6P430a8tUmkubW+gmiSE4kZ1kUqF/2iQMe9ZghdpvLCsZCdoXHzZ9MV1nwU8Pa9qPxv8MWGhaPeap4iXV7f7Jp0cBeWeZJVYJsxn+HnI4AOeAa1jF8y9TKTVnc/ua/ZyaZ/gH4Na4haG4bR7ZpUOMhzGpboSOuTXTeKPE+n+CvDd9rGrXcNhpemQPdXVzM22OCJAWZ2PoACa5H9l7TZNJ/Z18FQzQXVrMNHt3kguFZZYGZAxQhgCNpOMEDAFfgR/wAHaH/BZfVPHXxNvP2Yfh3rE1n4b8NyK3je5thJDJqV7tJFgXyN0CK4LqFIZ8AsdpFPEJxqSXmzSFpe89ih/wAFmv8Ag668TfFnVPE3wy/Z4n/4R/wvb3X2dfHNpOwvNXiAG8QxSRjykJyu/OSASMZU1+Lnjzx/rnxR8W3mveJNW1DXda1Fg91fX07T3FwQoUFnYknCqAM9AAKyKKy5Ve4SlcKK/TP/AIJzf8Gsv7QX7c/hfTvFfiJtP+EvgnUmVoLzWojPqN1EQD5sVmrK23BwPMeMkg8cV91+E/8Agx68KwadcLrn7QXiC6vG3eQ9h4Xht414+Xcr3Dk4PJAIyOOOtauk0rtoyc+yP54aK/oA+JP/AAZAx2Xwpun8I/HiXUPG8UW6CPVtAFrpdy/dGaOWSWMHn5gHxx8tfjb+25/wTt+Lf/BPTx3HofxP8LXGjpeSyx6bqkLefpusLGRue3mHDr8ynBAYBhlR0qXF9NRxlffQ9A/4Jr/8Fl/jf/wTA8Tp/wAIL4ovbnwfcTibUfC146y6de4DDKiRH8hzuyXiCk4Gc4GP6jv+CVH/AAWi+E//AAVa8G3TeE75dJ8Y6Oqtqnh28bbdQqR/rY9wHmR9RuXIBBB6V/GHXvH/AATo/wCChPjr/gmj+0rpfxJ8CyQTXVqrQX2nXIBt9Ut2Uq0TnBK9chl5BHpkGdFqXvof3CUV5d+xh+1Fpf7ZX7NHhL4i6TDHZx+JNPhup7ITrM1hK6K5hZl43AMD9GFeo05RadmIK4P9pz9ozwz+yT8A/FHxG8Y3n2Hw54TsXvryTGWIGAqKO7MxVR7mu8ZgikngDkk9q/lG/wCDmP8A4LG61+3r+1DqXwv8M3cNr8JfhrftbWq2s/mf2/eqMSXUpHG1W3IiDIAUsSSRtjmV+XqaQircz2RV/wCCvX/BzB8Wv2+fE994Z+H2oXnw3+FMLFILWwZodT1UNGFc3U4OduS4CIFGDzknj8xqKKaikQ5NhRX2f/wT9/4IJ/tHf8FEdM0fxD4V8F3Gj+ANWn8seKNVkjt7TZuKtJFGzCSZQQRmNSPev0L0v/gx48XS6UrXv7Qnhu3viybo4PCs00Srg78OblSSDjHyjI64q+RmXtF0Pwlr9FP+CDn/AAXV8Q/8EtPipH4d8TSXGsfB/wAQToup2XLSaP8AM7G5gVVLM2XO5O/Uc8H6f+PP/Bk78WPCejC4+Hfxa8G+MrqO2iZ7XVbGbR2lnJIkVGVp12AYKliCckEDGa/Kj9sr9hb4qfsAfFVvBvxY8J3fhfWihlg3Sx3Fvex5/wBZFNGzI45BwDuG4ZAJxRKFlcqMr6H9qnjr9ozw/H+yNrXxT03UY5vDcfhi48QWt591XhFu0qn6nAGPWv4UGOWP1r7r+E3/AAXw+KHwq/4JR+Jv2VU0ux1PRdbgm0+y1+6u3e60mwnlDzWqRsCrKQZVU7hsEnA+UV8J1LtfQoK/tU/4Il/Fyz+N3/BK34J6/Z7dknhu3tJkSMosc0A8mVRkAkCRG579uMV/FXX9oX/BBr4Qab8EP+CRHwK0XS5JJoZ/DiarPI4wXuLyR7qbueBJMwHsBVK1mLqfXVFFFSMKKKKACiiigDJ8f3Js/AuszCTy/JsZnL4+6AhJ/Sv4Ofi1qdrrPxU8TXljcNeWN1qt1NbzsCGmjaZirnPOSCDz61/dx8YrBdU+Evie3ZmjE2lXS7lOCv7pufwr+DPxE7SeIL5nDK7XEhYMRkHceuOPyp9AKdf2Ff8ABtP+0PqH7R3/AAR8+GOoapBImoeHzeaBNO8it9s+zXLqsowBjKMgII6g9a/j1r76/Yd/4L//ABK/4J8fsE+JPg78O9Njsdc1y5kktPE013539jpKxMjQ2zIVE2GYBy2ASGIJUAuNrO/y/r0DqfqT/wAHMP8AwcFwfAvQfEX7O3wd1K4HjnUIRaeJvEFnO9vL4bUmKTyIiY8SPNEzKWRwUDdckV/OJq+sXfiDVLi+v7q4vr26cyzXFxIZJZnPJZmYksT6mtvwj4O8VfH34lW+laLYa14s8WeI7siOCBHu7y/nkbJJ6szEkksfck96998Of8EUv2tvFTqtr+zv8WI2aJ5v9L8Pz2m1VLA580Lg5U4U4LdgcihQb1SHKp9k+X6+kv8Agj/qlnon/BS/4P3d9H5lrb64HYf3T5Mm1h7hsEe4puo/8Egf2ndJ8ceHfDdz8EfH0OteKgDpdu2nkfaASRy2dseMHO8rgDJwK+rP+CTf/BGb9qL4V/8ABT74ZTeJvgt4m0Ox0G9/tTU7nVoY4rKKzw8Tt52WQsSxAVSWPbjmnGEnsR7SNz+ru7Kixl3I0i7DlFGS4x0H1r+FT9s7Up9X/a0+JFxcafPpc0niO+zaTf6y3AncBT74Ar+62cZt3BZlG05K/eH0r+Ff9ttLqL9r74lpe6jdatdJ4jvVku7iMRyzETMMso4B7celLXlL6Hl1f0A/8GQVixt/jtcg2zRq2nRMPN/fISJCPkz904PzY6riv5/q/ev/AIMfNYuB4w/aA09rq2W0az0i4S38sec7h7lWfd12gFBjOMt7VVPr6CP6EaKKKzAKKKKAPxe/4PTNV1Sz/Yx+HVvDDnSrrX5FnkU8hwiMoPtx+eK/mkr+nr/g8002Kb/gnn4SvHJElv4kWKPryXCE+3RO9fzC1UtkNsK/vM/Z9n1a4+B3hNtc06LSdX/sq3F1aR3IuFhcRgYEgADZxn8e/Wv4M6/vE/ZlkvJv2c/Acmoah/a19L4fsZJrzyfJ+0s0CEvs/hznpU20uI7iiiigAooooAKKKKACvn3/AIKTTyRfs43ixbd0kgHzdOlfQVfO/wDwUztmuf2cLny1YssobgkcV9Bwr/yN8P8A40ceYW+q1L9n+R+WFx4bn/tCZIox5kZRnVfmMakdMfXNSeGprXVtZt4Jma1m02cBm+bZJjAK+nFEup7/ABD50gj+xWsSqdsh3k/xbvUg/wCelX4Wmn1KOC3jWaCxkFzAXxuLNjJOOo+tf1pLdR6b6aO/+Xf9T8ak3pu3tf5r/g/cfsl+zzdi++CXhmUKqhrFMbenpXZVxn7PVvLbfBbw6szIzm0VvkGFXPOK7Ov45zS31yrb+aX5s/acL/Ah6L8gooorhOgKKKKACsXxB8OtD8VSF9Q0uzunbqzxjcfxraorSnUnB80G0/LQmUYyVpK5wM37MHgW4kkZ/D9myyDBQj5R9Kkl/Zm8CTGLd4Z039z9w7On613VFdn9q42yXtpaf3n/AJnP9Sw/8i+5HAz/ALL/AIDnuY5P+EcsVMeThVwGz61DJ+yd8O5XZm8KaX8z+Yw2H529TzXolFVHOMfHSNaa/wC3n/mEsDhpKzpq3ojyH4xfs8eDNO+F2rSWuhWNnJa2zOjRJg5HIFflX42kWXxFOtxuVVuC6hH/ANZg8bh6V+wnx6/5I74hx94Wbke5r8hvG1k8/iO4ltrYCTcf3ec7m6mv2nwprzxFGs8Q3NqSs227ad2fD8XUadKVNUly37aL7kct/Zs2rCaRZWt5Jmw7qn8Ppiv02/4JUSxf8M5TQxv5jQ6g4ZiuC3yrj+Rr830a6NgsMlutrNNAZM5PBzyD+FfpL/wS5lR/gBMqkMVu8MQuOdte34pyj/Ykor+eP57nn8Jp/wBoK/Z/kfStFFFfzSfqQUUUUAFFFFABX8ev/BzVr48Qf8Fvvji6pCq2tzpdqPLXbu8vSbJST6nIPNf2FV/HZ/wcrWd5a/8ABbX46NeKym4v7CSFjHsDxf2ZaKpHrjbjPcgml1A+FqsaTpN1r2q2tjZQS3V5eSrBBDGu55pGIVVUdySQAPeq9fph/wAGpf7KGg/tPf8ABUaxvtbmuYpfhnpf/CXackcqLHcXEN1bxhHUglgVmc4Ax8vJHGdacVKSTdkTKVlc/Vj/AIJO/wDBqj8IP2cfh/pfiT456Pp/xO+Ikx+0m2uJHOj6crBGWPyM7ZXQg5Z8g5PA6D9TvCHwV8H+ANI0/T9D8K+HdJstKULZw2mnRRJaj/YCr8v1HNdNRR7Weydl2WwKCWpiyfDfw7Lqj3zaBorX0jBmuDYxGViDkEttzkHnr1qb/hBtEHiGTV/7H0v+1pVVXvfskf2hwpyoMmNxAPI54rUoqeeXcqyPN/2wP2nPD37Gf7MvjT4oeKppIdD8G6a99OUiaRnbISNAqgklpGReOm7PSv4afif8Sda+MXxD1nxT4i1C61bXNeu5L29u7h90k8jnJJOAPbgAADgAV/U9/wAHcXxY1j4df8Ej9X03S2hjh8Wa7Y6Zfu7Lv8gSeaVRW5JZkUHHIGTxX8odRbW5WtrBX7ff8Gq//BE7w7+0glv+0R8TNLh1nQND1XHhWwm3CKS9tXIeWVCNk0YcrgcgNF3OcfiDX9LH/BNH/g4v/ZB/Yy/Yn+HvwzvvF2rQv4Z037Kxg8N3p2ODuYSYjbLEsTvBYE5HatacrXfXp/Xczkr6H7RRRLBEscaqiIAqqowFA6ACnV+Zd9/wdrfsdWQbb4u8QXDLLKmIvD1/gqpG1stCPv8AYdsc4rFv/wDg74/ZLTTnmtNQ8XSyrIEW3n0S4ikZcgb8qjqBgk43Z46c1PLY05WfqdXlH7an7F/gP9vn9n3WPhr8RdKXVPD2r7X4YpNazIcxzRuMFXU8ggj06GviaD/g7T/Y1n8v/isvEUZaHzG8zw3fgI+cbOITk45yOOfXipZv+Dsr9jNNTe3XxxrxjVsec3hrUAjdBxiEnue3Qe9GqDlZ/MZ+3p+yFq/7BP7X3jr4Q65qNrrGpeCL8Wb31vE0UV4jxJNHKqNyu6ORDgk4z1PWvIa+9P8Ag4g/bg+EP/BQ79t3S/id8JJb6S31Dw1b2Oti5sXtT9sgmnVW+ZVLkwmL5sYwFHUED4LpPR2JZ++n/Blf+2ZdW198Svghq11PLYzPb69oEXGyCQrMLsevzCOEjHfOe1f0EV/In/wa5/G21+DP/BXfwfHeXV9a2/ijStS0cNbqrKJDbtOpdSOVHkHpzkgdCQf67Kcr2TYHwj/wca/tzal+wx/wTA8aap4b1K10/wAYeLAnh7SWd1EyC4YRzyxKwIZo4mY9OMg8cGv48a/dr/g9++J6ar8WfgJ4QhvWb+xtN1fUrm0CkKjXEloiOTjDZWFgOTjB6Zr8JakqXYK/aj/g2R/4IK6d+1PeaR+0D8Uo7yTwfo940mhaJJa7IdYmjYqJJS6kSQghuExyo5Ofl/Jn9k74BzftTftKeCfhzb3x0y48Z6tBpUd0Lc3HkNK20NsBBbntkV/cl8FPhxb/AAh+Efhvwzaw2sEeh6dDaFbeIRxF1QB2VVAAy248DvW1OXKufr0/zMpavlN7RNEs/DWj2un6da29jYWMSwW9tbxiOKCNRhUVRwqgAAAcCrVFFYtt6ssK8f8A24P2Gfh1/wAFCfgJqnw7+JWirq2i6hskjlSRobmymRg8csUiEMpDAZAOGGQcgmvYKKAP4bf+Ch37FGvf8E8f2wfGfwj8QzyX134VulSDUDatbR6nbyRrJFcIrE/KysOhIyCM8V4rX9Hn/B6X+yBp/iX9nT4f/Gqw02Vtc8M6sNA1O7jcBBY3Cu0e9c5JEyqobnG/HGa/nDpyAK/to/4I56VJov8AwS1+A9vLbyWsg8HWLvE8vmspaMMfm75zn6Gv4l6/tu/4JD6tb67/AMEyfgfe21xa3Udz4QsH823gaGNz5SjhW54xtyeu2npyvv8A8OT9q59HUUUVJQUUUUAFFFFAHK/HO2W9+C3i6CQyLHcaPdxMY87gGhdeMc557V/BvrumnRtbvLNizNazvCSV2k7WI6dunSv71vifIsXw18Qs0nkqum3JMmzds/dNzjvjriv4NviBa/YfHmtQ+aZ/Jv508w/8tMSMM/j1p9B9DIr6c/4JG/8ABN7WP+CpH7aPh74Z2d1PpOhyB77xBqsIjaTTbGMEu6K5AZ2O1FHPLgkEA18x1/Qp/wAGW/7MfhrUPA3jz4s3GhyR+KrC9k0C31E3DNHcWzpDIR5Z+VGVg4yMbgxznAxdNXd+2pEtj9hP2L/2Cfhh+wT8GNF8D/Dvw5a6fp+iweSLyaNZb+7YtvaSWbAZmZ/mPQZ6AV7JRRUynKTvIaSSsgIyfp09qKKKkYGv4Xf29ba4s/22vi1HdRwxzr4t1MMsRyg/0mTGPwxX9zt/EJ7GaNmZFdGUsvVQR1Ffwt/txxLD+2Z8VFVpGX/hK9S2tJ94j7TJgmgOh5ZX74f8GP2iW/8AwkXx71I/8fX2fS7ZQWH3N07HAxnrjJzjpxX4H1+/n/BkBf6esnx5tfsc51RhpkousDyxCPOHl567ixz6YHsK0p21v2DXof0AUUUVmAUUUUAfkT/weV2EEv8AwTU8O3MiztND4qgjhKA7FLISS2OOikDPc1/LzX9RH/B5ZeXEH/BM/wAOxRvai3n8W24lVyfNYiNypTnHHOc56iv5d6qWyAK/vY+Ddoun/CHwrbxtI0cOkWkal23MQIUAyR1PvX8E9f3i/sz+JG8Y/s4+AdWZ5pG1Tw5p92XljEbsXto2yyjhSc8gcCj7JOlzt6KKKkoKKKKACiiigArwH/gpCW/4ZwvlV2Tc/Y9eM179Xzz/AMFNIBcfszagrOybjjjr0r3uF/8AkbYe/wDMjjzC/wBWnbsz8m9IvzdxpFIs0bahLIMKoYyNu4/A4ruNOvLa4mjZ7Z1cOsJ8oZwOPX1IrkdD1H/in7KSK2W6dZfLjBUgWzA46+p966bQ7j+z73y2kmwpDzwyYU7g46D2J/Sv63qUYKdtfT0PxWnCUJ8vbZere9/ktNvQ/Y74F/8AJHfDeY/LLWERK+hIzXWVxH7N13cX/wACfC81z/rpLBC3sOcfpiu3r+OMzi44yrF/zS/Nn7dhJXoQfkvLp26BRRRXCdAUUUUAFFFFABRRRQAUUUUAcn8doFuPhDr6t937Ix646c1+Oviq5ksdcnnhcmSO4dvKBPCk9fpjvX7DftAW9xdfBfxIlqdtx9icqcemCf0Br8gfFdxM+rXkix+YzzFTIi42gckEelfu/hHK2DxDv9pfkfAcaxi5U297P7+hRe4mkEd5BIsxgUSt5hwcemO9fpR/wS4e4m/Z7lkuGgYSXjMnljoMdD+lfmXa20NvbtDFIzRX2N24fMrZztHoK/Tz/gmHCYP2ctvkvb/6dIRG3ReAOD74r2fFCEYZLp1lHf5nlcJxf9o+if5f8E+jKKKK/m8/VAooooAKKKKACv46P+DkqbUJP+C1XxwTUN26HULKO33EtmH+z7YoQfcHPsSR2r+xev45v+Dka5vJ/wDgtV8ckvGZ/I1K0SEldv7r7BbMo98ZIz7UFK1j4cr9mv8Agyq8LrqH7dvxK1b+1PsjaZ4RWAWflBvt4luFz83VdnlhsDr+FfjLX7If8GW2szRft+fEDTY9Ma7iuvCf2qW7DFfsAinVQT67jMFx757GtKd76dn+TM5bH9NlFFFZlBRRRQB+If8Awe3eJzp/7LfwZ0nddEan4kvJtqsFhBit15YbfmP7zAGRjrX839f03f8AB6VokV1/wT78A37STLLZ+MFiRV3bXElu+Q2Bt/gBBbHTiv5kaLWGFFAGTX9HP7In/BqJ+y/+1J8G/BPxOsfF3xHk0HxLoqTHTor6EwzTgsjTLL5QfaWUkAYBGPWtI021zdCJSt0P5xqK/pyf/gy3/Z1vLydpvHXxQtrf7TPJAllc2qyLE4QRxu0kMgbyyGIYKpbf82cDFqH/AIMwf2bbW5uGXxj8Tp45mVkS4vLdjBjOVUpEnByM7txyvBGcUezX8y/H/ILvsfzB0V/Tj/xBafs7o+mhfH3xQaO0B+1l57UyXxySMkRAIOQMKo4HXOTWlrP/AAZofs2ahbW62viTx9p8kbKZnju1fzQCcgBwdueOeenGKPZx/mX4/wCQcz7H8vlFf1G67/wZq/svalOrWeu/EvTl2SK6JqcUgLMF2sN0ZIK4Y4OQd5znApJf+DNX9mGbWLqT+3viRHYTBFhgj1KPzbfDAsRI0ZDFgCvK4AOcZFHIv5l+P+Qcz7H4Kf8ABGDwrq3in/gpv8IW0axjv7jS9dhv5I3l8sLGhwW9WwWHyjOeh4yR/a3X59/sMf8ABtp+z7+wB+0DpPxJ8Gz+MrzxBpNrLbxpqeoJPbuzujCQr5YIKhABgjqTX6CVc5R9nGC3Tbb162t+X4gr3ufyo/8AB4L41bxL/wAFe7jTfsP2VfDvhDS7MS+YzfbN4luPMweFx52zA6+Xn2H5Y1+wX/B5d+z/AHHgD/goF4T8fSqwj+IWgmFMTNIh+w+XFwpHyHEq5AJHfAJOfx9rDYuUm9WfSP8AwR91nTfDv/BUH4Gahq3lmxsfF1ncMHJAZ0fdGAQQQS4UA54OOvSv7ax0r+Fz9g/xxpPwz/bT+FfiLXr610vRtD8U6ffXt3cwPPDbxRzozMyICzAAdAD+Vf3L+H7631fRrW+tZHlt76JLiN2LfMrKCDg/dyCOK0f8Ner/AEJ6lyiiisxhRRRQB8K/8HLHhq18T/8ABE344LdSxwrY2VheRtIm4GSPUrUqvQkFj8oIxgkcgZr+O2v6sv8Ag7q/ac0v4N/8Eo9S8DyapLZeIPipq1np9hbRKd13Ba3MN1c5YfdQKkYJ77wv8Rr+U2gpqyCv7Zv+CNy3if8ABK34ArqFnc2F8ngjTVnguIjHIjiBQcqeRnqPYiv4ma/uK/4JneILvxR/wT9+Dd9fQS291ceDtKeRHIOCbSInGBjAJIH0q18LXoSe5UUUVABRRRQAUUUUAYfxOvP7O+G3iC4MIuPJ024fyiwXzMRMduTwM9Mmv4NfH+oW+reO9aurWNYbW6v55YYw24IjSMVGe+ARzX95nxJETfDzXvOaNYf7Pn3s6b1UeW3JHce3ev4H5sCZtpJXJwSMZFBV9LDa/pq/4Ms0uI/+Cfvj7z/OWOTxlK1uGlRkeP7NACQqjcuHDjDcnqOMV/MrX9OH/Blpc3B/4J4+PIZJlmt18ayyRKI0UwA2sAKkj5myVLZbpkgcVpB2UvT9UZyvofsZRRRWZQUUUUARXy7rKYeWJcow2H+Pjp+Nfwwft4atHrX7avxXuI7ZbNG8WakghDFgm25kXv8ATNf3QXkTT2skaO0bMpAYdVNfw2f8FEvDzeFv28/jFYssyND4x1QlZfvgtdSNz+f5UBqeNV++3/Bj3ptwdT/aAvGsrr7KsekQx3ef3O8m6Lx4/vYCH6V+BNf0Ef8ABjx8RLNtF/aE8Js0i6hHPo2rRqc7JImW7ifHYFWVM567x6HFRe4nc/fSiiipGFFFFAH49/8AB5xJZ/8ADvLwfHOshuz4nV7ZlI2jCANn8Gr+Yev6DP8Ag+B+JtxYaD8APCNvqxEOoSazqd9pyoOfL+xJBKWxnkvMAM4+U+lfz50FMdDt81d+4pkbsHBx35r+8j9nVt37P/gf92Y/+JBY/KX8zb/o6fxd/r3r+DWv70/gde6fqXwV8IXGkyNNpdxotnJZyFGQyQmBCh2t8wyuDg8jvV3XJbzI6nU0UUVAwooooAKKKKACvn7/AIKRWs1x+zveeSUMjNsVWOM5FfQNfPX/AAUttjP+zfeMr+W6SfKw6gkV7nDc+XNKEv7yOPMP93n6H5aW+kL4emj02G4+z6bdMk8wkuOWdc5wfqM/jV68tI3kkWORmaWRCXH3iNwOAR6+tZ4kWGXTbW93agqgiScf8s2PIHscVe0KP+ydQt1mXUIo2Yuj7RiRc4U81/XVKakuWauttNn+v4bH4rLSVvn39P0v6n7Ifs520ln8DPC8cqqrrYR5A6DPI/Su0rkfgLI8nwY8MNIwZv7OhBI7/KK66v43zPXGVW/5pfmz9uwtvYwt2X5BRRRXCdAUUUUAFFFFABRRRQAUUUUAcl8eJPK+DfiRi3l7bCQ7s4xx61+OHiTTvtFzLfQ7VjSYiRxJlmO49h6+tfsh8d3Efwc8SErCw+wS5Eq7l6dxX453+jta3+ovNNbzSfacCJF2/JnIY1+7eEemExE9rSWvlbU+B40j71Nrez/NfqFrDD/acK3W6RQPMiUHPPXGfyr9Lv8AgmXqj6r+z35jLIq/a2ADnpxzivzRtII9m1po5/JByY+PL49Mc1+lH/BLu5luv2cFaXy8/amA2DAPA5xXq+J1RPJeW32o28v+CeZwfpjbLs7/AHI+kKKKK/nQ/UQooooAKKKKACv47v8Ag5V1GW9/4LT/ABqjkjEa2d7Zwx4GNyfYYHB/8fP5V/YjX8dv/BylazWn/BaT41LMztuvbRk3MGwpsoMdOn0o6FLZnwrX7X/8GSGstB+2Z8ZNPEcZ+1eDILgyFvmUR3sa4A7580Z9No9a/FAHFftF/wAGT2rwWP7cnxVtmVjcXvg1FjIiLYVbuNmy3RRwvHc49K0p6v5P8jOWx/S1RRRWZQUUUUAfC/8AwclfAV/2gf8AgjR8ZLO3Vft3huxt/E1sxj3kfYbmKeUDuC0CzLkf3u/Q/wAddf34eIvD9j4t0C+0vUrWG907UoHtbq3lXdHPE6lWRh3BBI/Gv4xv+C0//BNDXP8Agl/+2/4j8G3Eclx4R1eZtU8K6mYFhjv7KTa5QIrNtMLuYTnGTHuAAYCn0GfJFf1mf8Gtn7f2lftd/wDBOzSPB0l1YxeLPhPHHouoafGCsot8N5FwRtVSJArH5c4YMCelfyZ19R/8EoP+CpXjD/glb+0RH4u0C1h1rQNTeFNf0WU+X/aMURcxlZANyOhdyMHawYqwIOQ42vqI/tZor5D/AOCfP/Ba/wCBv/BQ/wAM3dx4V8UWlnqmlxedqFhe7reS0j6B3DgbQxDgckHbwTkZ+tLHVrXUw32a5t7jZgN5UgfbnpnFEotOzHYsUVFNfQ24bzJo18tDK2WHyr/e+nvX5Vf8Ftv+Dkz4e/sXeCNc8A/C3WI/E3xdmhWIiCI/ZtFWTqZJGUhZghDqu1sjHTIYSOMbl79vv/g6L+GP7GH7R3iz4Zw6XLqeueDboWl81zBcpG0oj3PGpSNhnJUBs455wQa8eh/4PIfhsPDyXk2kR/bGXcbCKwvGlQ8fKXbanPOCD27V/Od8UPih4g+NXxC1fxZ4r1a817xHr1y13qGoXb75rqVurMf6DgAADisGiMmlruJ76H9Y/wDwTI/4ORfCP/BSv9qPS/hnoXhifS9Q1OO8uAJhN5kUMEZk8wsEMfOMYLD+Qr9Na/FD/gzX/YHvPhP+zr4s+O2sFvM+JjR6dpFrPZeW9vbWks6vMkjclZWfGQACE6mv2vrSpZJJb21/r0IWp+J//B6l+yXefEL9lT4Z/GKxuJmX4b6xPo2oWnJT7PqIi2z9OCs1rGh5GfPHoK/mzr+679s/9mnTf2x/2UviB8LtX+zix8caLcaWZJo9628jr+7lx13RyBHBHIKgjkV/Ej+1R+zb4m/ZA/aH8XfDTxhZy2PiHwhftZXMci7TIuA8UoGT8skbJIvP3XFZlHn9f14f8G4P/BTPR/2/v2EtJ0u71J5PiH8PY103xFbXEu6VyS5inTcdzRugzk5wcrklTX8h9ezfsPft2eP/ANgH4yWfjHwHq1xYzxzRSXlqj+WmopHuxG7YJC/O3TrnnI4qo2vZitrc/uWor8v/APgmd/wdF/An9sbQtB8P+O9U/wCFb/ESa0iiubfU0b7HfXYX955EyqU2sQSobae2AcA/oF4U/am+G/jfRo9Q0vxx4YurWRBIG/tCNGClioJViGHKt1HajlY7M76mzTJbwtJIyxxxgszMcKoHUk15P8Z/28vg3+zxomm6n42+JPhPw3pusAmyvLy+Vbe5wQCFkGVJ+ZeM55r8M/8Agtb/AMHXMPxj8F6p8M/2bZL+z0fVYTbal4uubcQ3DqJMPHbwyI2EdAR5hwwDZGDjaW1syuV7nzD/AMHT3/BRW+/bL/4KF33gfT7vT7jwJ8HS2laRJY3huIb64mjhkurhiPkDbwIsAHAh5Y9vzHooqfQTbe4V/b3/AMEpdSk1f/gmx8D55bg3UjeDdOVpTD5O4rAq/c7YxjHtX8Qlf25f8EkbWKx/4Jo/BOGFLaOOPwpZhRA7Mn3OuW5yepz3JrRfA/VfqTfWx9FUUVxP7Rf7QPhv9ln4K+IPH3i64uLfw94ZtWu7xreEzTFB1CRjl29hzgGsxnbUV/Kr+13/AMHbf7S3xq+IEN58OdSt/hb4esrud49Pt7a2vnvIWIESzSSwlgVUHOxhksfQVg/AX/g67/aq+GvxKbVvFniO28caFI8bton2Oz02JNrAsElS3ZgHXIOd3OCMc5rTRD6H9ZFFfN//AATO/wCCnXw//wCCn/wJt/GfguaS1mV3hvtLuSBcWUiEblI6kDco3YAOcjggn6QpSi1oxGX41sZtT8G6tbwRmaa4s5o44w4TzGKEBcnpk8Z7Zr+B/V5fO1a6fyY7fdM7eUn3Ysk/KPYdK/ve8fmFfAmtG4upLG3FhOZbhBloF8tsuPcDn8K/gbmGJWwdwycHHWl0H0G1/Tt/wZfR6aP+Cc/jRrb/AJCJ8ZTC8+n2eHy/0zX8xNf03f8ABltBZJ/wT68eyW7Sfa38YOLpWfK5FvHtIHbK4H1WtIbS9P1REuh+x1FFFZlBRRRQAV/EV/wVv8InwL/wVI/aI0zbtWH4i67JGNhXEcl/NInB5xtYc9CORwa/t1r+ZH/g80/ZNuPhZ+3Z4N+KlrbQx6N8TtCNrI8UW3/T7Aqku8j+JoprcgnGcN12k0W6hfSx+ONfp9/wakftp6b+y3/wUaTwvq41AWfxVt4tGt2tnG0XaSExCRSPmQq8vcEELgMSBX5g1a0PXL7wxrNrqWm3l1p+oWEy3FtdW0rQzW8ikMro6kMrAgEEEEEVUZWd2B/flRX4j/8ABC7/AIOb/hzq3wM8G/Cr4+eKrrRvG2l2stoniTU1d7XUFjZmi8+ck4laPaoJGCy46kZ/Y/4Y/G3wl8ZvBUHiLwv4g0vWtFuEeRLu3nBTajFXJ7gBlIOcdKXK0B1NNmmS3haSRljjjBZmY4VQOpJrgPix+1h8M/gX4duNW8YePPCvh/T7UFpZrzUokCALuPGc/d56dK/C7/guj/wdPeHfi/8ACrxJ8Hv2d/tV5Za9GbLVPGsimACIPGXjtYZYyWWRRIhkbaQpBXk5D5X1A+A/+Djf9vLTv2+f+CoXi7WvDerW2s+CfBsEPhfw/d2rs1vdRW+WmmQnAYPcSTkOowyBCCRgn4RoJzRUjbuwr++H4aX1pqXw60G4sGiksZ9Ot3t2ibcjRmNSuD3GMc1/BBDGZpVQbcsQBk4H59q/vW+Dmn2+k/CPwva2lraWNrb6Taxw21qAIIEEKgIgGBtA4GOwFVy+7zE9TpKKKKkYUUUUAFFFFABXzt/wUtfy/gJnn/XcAH7xwMV9E184/wDBThSP2f8AzAyr5Fx5hz6DFfR8I2/tnD823Mjzs2/3OpbsfmJrsktusjLHNawrIoURgMQR1YjvyeKu6BcTXuvWNj++ulblBIAqynHOc9/bpRp+ux6jNczz4lhkZkUMnzKT0Poear6ZbR6ZrNi1xPJDul8xHz/qQSOB+Vf1iqbj70Erb2trt0/rqfjKk27dNOnmj9mvgakUXwg8OrCrRxrYxgK33lOOc/jmuqrkvgTeW978IfDz20qzRmyjwwbdnjqa62v43zC/1qpzb8z/ADZ+44Z3ox9F+QUUUZxXGbBRRRQAUUUUAFFFFABRRRuzQByHx9RZPgv4mVpDGGsJF3DryMY/Hp+Nfjd4nvodN1Vtscsix3DIVuAQx7fjjnFfsV+0TOT8CvFDQ3CQs2nybJfvBeOtfkZr2lt4j1NYX+0BLMhxPGu8Ak5O44781+6eErtg8RzrTmj99rdep+f8bP36WvcyrfSllt47u0vPIheLd5K/NLIwB3HHYZyK/TD/AIJeJt/ZktSY44n89lZFbcQQByT6kEV+bN/bxC9Etut0Y5pnRHMZRmU8Y9MV+k3/AAS+tEsv2a40RWTF5IChOdvTv/npXteKULZJzR2c46ff/Wx5nB7tjkn/ACv8P+AfR1FFFfzifqYUUUUAFFFFABX8cn/ByHDcQ/8ABaz47G5g+zvJqloyqGDBk+wWwRuP7ygHHUEkV/Y3X8cP/Bx74jt/FH/Baz473FqY2ii1W0tS0f3WaLT7WNvx3KaCl8LPiGv2z/4Mkba0b9rz4yTSR7rxPClqkD85RWusv7c7VGfoO5r8TK/bj/gyK021m/a1+NV21zGt5b+ErSKK3KMWlje8BdwfugKUjBB5PmDHQ1pTtfXs/wAjOV7aH9IlFFFZlBRRRQAV8l/8Fg/+CUXhP/gq5+y5qXhHUPsOi+NLNFk8N+JXtBNNpMwkSRlIyC0UgQoy5GA5I5r60ooA/hJ/ax/ZS8c/sS/H7xD8M/iNo7aH4s8NTCK6gEiyxSqyh45YpF+V43RlZWHY84IIHnNf20/8FC/+CTHwP/4KdeG7O1+KnhNNQ1TSY5I9M1qzma01HT9+MhZUILJkA7H3LkdK/ne/b1/4NP8A9oz9mPx1awfDPTZPjZ4bvre4u/t2lRxWdxpwjfiKeKaUbpGRlI8stuIYADFVbsG25+W9ey/Cz/goX8bvgh4Fk8M+Efib4s8P6HIcta2V2Y1Y+YZc5xuzvYnOe+OnFef+Ofg14u+GPiG60nxF4X1/Q9TsQzT2t9YSwSxKvJYhlB2gc56Y5ziuapNNbgeqfHv9t/4tftP6lpt5488ea/4jutIhNvaSTzCNoUIAI/dhc8KOTk/rXlZOTRXv37J3/BLn4+ftwact/wDDH4aa/wCJ9L+3R6dJfxKkVtDI5xlmdl+ReSzgELg5IwadpS1CUrbngNfoL/wRC/4ITeNv+CpnxDtPEOo2/wDYvwh0m8Catq0svlvegbw0NsBktIrBc5AXnqOcfoP/AME3f+DNlPDuraZ4m/aS8S2Ooy2N6Zm8K+H52ltLqJCuxJ7gqjHcdxZUA4wMnJx+5Xwg+DXhT4AfD7TvCfgnw9pPhfw3pMQhtNO063WCCFQABhV6nAHJyTjk1dlHV6vt/X9dydXoaHgTwbY/DzwXpWg6bDFBY6Rax2kKRxLEoVFC52qAozjOAAMmtaiisigr8tf+Dk3/AIIgXn/BSf4RWvj74Z6XYSfF7wVbyeXbb1t5PEtsTFm2MjEJ5iKrmPeQM/LlQ2a/UqigD+Am/sJ9KvprW6hmt7m3kaKWKVCkkTqcMrKeQQQQQeQahr+vz/grb/wbw/Bn/gqHp1x4hSGT4f8AxUtrSRLLxDo8aJFfybCIkv4CuJo1bBypSQDID44r+fj9t7/g3A/ag/Ytn8RalJ4Lk8beCPDzwq3iPRJomiuBIseCtsz/AGjAeTYSIyMqearl6oPU+CqK6DxT8KPFPgbT4rvW/DXiDR7WclYpr7T5reOQg4IDOoBweDiqOkeDNY199thpOpXzYBxb2ryHB4H3QaFCT2QuZGcXYoF3HapJAzwCev8AIflW18N/hxrvxg8e6R4X8M6Xd614g166SysLG2TdLczOcKoHT6k4AGSSACa+of2dv+CDv7Wn7T9kbzw38FvFdrpgjjmF9rMa6TbyI7KAYzcFDIRuywjDFQrZGRiv6MP+CM3/AAb1/Df/AIJdeHNP8Sa19k8b/GKSNhea+yOtrZ7mysdrC7ELsHHmYDMeeMACvZuPx6fmKUn9k/L39ur/AINyfBH/AAT7/wCCFetfFLxcb27+O+kvplzd3Ed7L9is/tV/bwvaLCDsbZHKwLsCSRnjpX4q1/Xd/wAHUGpSab/wRD+LPl+X/pFzosL7u4OrWnT3r+RGpk03dFJWQV/b/wD8ErNOj0j/AIJrfAm1ihW38jwNpKPGFChJBaR7xxwfn3cjr171/ELNYzW8KSSQyxxyDKMyEK49j3r+3P8A4JO6vqeuf8E1vgjc6xaSWOpN4RsVmheHyiu2IKDt7ZUA/jVKT5GvNfqT1PoSvyH/AODzXWZrD/gmf4XtVkuI4L7xlbLIsbYjlKwzMquO44JHutfrxXzH/wAFdv8AgnJpf/BUf9iTxH8L77UrrR9TZhquhXsLLtt9ShR/I80EHdCzMVcDB2scEEA1maRdmfxP0V6f+1p+xr8Sf2HPi7qHgj4neF7/AMM67p8rRYlAe3ugADvhmXKSoVZTlSeGGcHiuK8A/DrXvip4psdD8N6PqOuatqU6W1taWUDTSSyOcKoAHf39D6UJN6Im5+yX/BlV8TZLD9r74l+EZprgW2oeHk1O3jDAR+bHKEfPckq6kD/pnn1r+lCvyz/4Nmv+CL99/wAE5/gXqHjz4l+H7XT/AIweNCVK/aPPk0nTCsbR27D7qSlw5fbk8hSxAAH6mVc1Z2Az/F0X2jwpqcZ34a0lHyttb7h6Ht9a/gZ1G5a91C4mbO6aRnOTnknNf3tfE9LyX4a+Il09vLvm0y5Fs392Tym2H/vrFfwheKfhF4r8GanNa6v4a17TbiEy747mwljKiMbpDyvRVIJPQAg9KXLfYfNZWOcr+oD/AIMyPDlvp3/BNrxVqMcVotxqXjC4EzxyZlfy4owu9e2AeD3B9q/mSsvBWs6npy3ltpOp3Fo2/bNHau8bbMbsMBj5cjPpmv6b/wDgzR8Ca54R/wCCcniy91SGaHT9d8XTXOniSJkO1Ikhk5PUb4z06c1UU0nft+qIbVz9eqKKKzKCiiigAr5D/wCC4f8AwTrvP+CnH/BPbxX8OtBj0JfG0ctvqvhu71OP5La7glV2RZOsRliEkJfkAS5IIFfXlFAH8Ffxo+C/in9nf4pa14K8a6LeeHfFHh24NrqGn3SgS20gAODgkEEEEEEggggkEVy9f2P/APBZb/giL8O/+CsnwfuvOttP8M/FbS4d2geK44AsgdQdttdlVLS2zZwR95OGXoVb+X79vr/gj18f/wDgm3qV3J8TPA95a+G4br7LbeJLCRbvSb7JIRklQ5Tdj7sgRxkZUZGa5dLoD5hqaz1K405Zhb3E0AuIzFKI3K+ahwSrY6qcDg8cVDRUgFeofsa/sl+LP23/ANo3w38NfBtldXeseIbgRmSG2edbKEf6yeQL0jQckkgcgZyRXrf7B/8AwRe/aE/4KHaholx4E8B6knhPWJ2hbxTfr5Gk2qruDO0h5bBUjCAknA96/pr/AOCMH/BDXwD/AMEkPhy9zDNH4r+KGuWyR634kki2hRgFre1U8xwBh3+ZsAn0rSMUtZbfiLyPgf8A4OE/+CRngf8AY+/4IXeBLXwP4B8PyeIPhdr9idY8R2diFvza3Ec8dzJJPjzJEe5ktgQ5I4U4G0Y/nhr+4H/gqX4Gu/iV/wAE4fjhodhDPcX2oeC9TW3ihjMjySC3dlAUAk5YDgDNfxG6t4W1TQtTSzvtOvrO8kVXSCe3eORw33SFIBIPb1qB7IpQQSXU6Rxo0kkjBUVRlmJ4AA9a/vS+B0lxL8FvCLXW4XTaLZmYMpUh/ITdkHkc54r+E3wH8ONZ8afEHSNBs9Nv5dS1K7S3igSFvMYlucDjoAx9tp9K/vE8ABV8C6KI1ZUFjAFVgQQPLXGd3P581fL7l/Mm/vGtRRRWZQUUUUAFFFFABXzt/wAFL7Nb/wDZ/aN3MatNjOOM8da+ia4H9pT4WL8XvhLqek4YzmMvCB3YdK9rh3F08NmdCvV+GMlc48wpOrhp011TPx5v7WO1s0t1uJEBDFZCoPzdM1WvNbvrexjiMltI9kirG5T7pz1P/wBeur+Kfw+m8Bag+mahb+XPbsytuPzBt2M1y9u73M81mttG6yL5k7scYA6c+lf15h5U5e9CWlrpaWt3R+I1KbjNwlv+R6Npn7QfiuxSxt9P12aygRGBjRsxEKCce2ajX9pjx1qFnNb/APCQX1tIzMPlnO4L97IGa4dbuzSwjNxF5YtVaN1TmPJPBFWNJh+36bLDahLaMKQLlm+baeMj/CsI4HCv3pU4vz5VudH17FJRUZy7b/p+noejN+1J42uLZUg8TatD5MYZt0m5JW75HXGBWD/w1P8AEZF8z+3tQaTcwIuWOARx8o+n5V5uuoSaXtsxcLePbziISN0kQt972rS1+51C01aYrJMWMgWFVQNtQgDODzSlkuCU0lSh9yv0tfTbr/mVHNMXKPK60rr+8+9v0/M62+/az8eRxw+d4s1i4e1YyqBIQoYjBQ+w61cj/ah+Il3DDJD4qvri3vo9krCTbluozz0HSvMJrWeVNQt2t5Lx5wdiopDoRjOfc1rWgiGi29witGwj2GHGDMV4xjsR+taTweBhJU40ov8A7djp+ur/AK6nNLMsY7J1Jb/zPbTf+tfQ7xf2rPiFEu2LxNqgaN9wWNsduc/4060/a28dQ6PL5vibUmWaIxhCx2pIWG1ge55+lecrbboJMSSwyMzqxZyuQf4azxHHIvl7mhCMEVmb+Lu1OOV4KU7unHbblX3/AC8i5Zhiov8Aiy+99fmemyftT+Pnhso/+Ez1K4fMiSor/wCr2jnJ7k9qTSP2t/HMll9n/tzUpo45QUUnbI3+77iuJt5YZtLvLZY5Hz80cxOF34659K0NJfyrONbaK3jkhBuIpZH3BnxgkHr7Uo4HCtW9jF+fKt+vT+tTRY7FRavVe3d/11O40f8Aau8fT/aN3iTUxmQzLD5uNoGTgn+nvWe/7TXjk6tHLD4mvVtpDvMTHPzAfqDXDtcW9xOLm1UF5pSrxHJ2upwefStqCzht5FW6txaxmNXG9CzcDPB/un0rKpl+DjL+DHzSUU/y2/yNP7QxbTTqS7/E9H/w56t8Cf2hvF3xA+J2l2Op6nfXtissdpPamULDMjfw7f8APSv0Y0X9mTwLpYSWHw7Yh3jVZCRnzQOm71xX5e/s52X9jfHrw/M0Mcsz3cUxb7kSjPBA/Gv2Cr8V8Up/U8TQhgm6alF3UXa9n1tv6s+44VjLEQqSxPv2as5a7rz/AOBucXc/s6+B7tFWTwxpTBemIsY/Kug8H+DdN8B6JHp2l2yWtpGxYIvqTkmtSivyatjsTVh7OrUlJdm21+J9hTw9KEuaEUn5JIKKKK5TYKKKKACiiigArxP4h/8ABOD4C/Fn4hal4s8TfCXwLrniPWBi8v7zSo5ZrjgjLEjG45OW6kknOa9sopqTWwmk9z5Ti/4Ia/siQT3My/s+/DcTXUjSySf2d8+5l2na2cqCCeFwOScZr0r9mj/gn38Ff2OPEOrat8L/AIb+GPBOpa9BHa6hc6ZbeXJdRRnKIxJPAPOK9ioq3WqPdv7xKKWyCiiisygooooAKKKKACiiigCnq3hzT9fieO+sLO9SRDEyzwLIGQ8FSGB4PpXh/jr/AIJWfs0fE7xXNrniD4B/CHWNXuU8ua6uvCllJJKOPvEx8kYAyeQMjPJr3yiqVSS2ZPKr3seZ/Dv9i74O/CAH/hE/hP8ADXwxkYP9k+GLKz4/7ZxrXpFrZw2EXlwQxwx5ztRQoz9BUlFDqSas2NRS2CiiipGFFFFAHgv/AAUT/wCCiXgP/gmb8CofiB8Ql1ZtFuNQi01PsFm9wwlkDFd20HaPlPJ71+djf8HnvwAWLT8eDfHjNcJMbofZ4/8ARWWQiIfe+YOmGyOmcYr7g/4LXfsZ2v7c/wDwTg+I3g3+w7zxFrlrYPrHh+ytbjyJJdSgRmgwdwB5JGCcHPfpX8Wl5aTafdy29xFJDPA5jkjkUq8bA4KkHkEHjBoT1K5klsf06aL/AMHlv7Pdx4o1eO+8O+M7fR4YoG0+VLLdNcOw/eqwyQAp6HjI9a/Ur9nH486D+1T8C/DvjzQEl/sXxNaLdwR3AXzIwT0YKSMjHr6Gv4Pa/c7/AINkf+C6lp8HtH0v4DfErV702YuUtPDBaJWhWJt7OrSbcp5QXhScOGwPmABuCv7vXS39fqTK7P6JtQ0m11aHy7q1t7mP+7LGHXqD0PuAfwFR6d4fsNHObSxs7U8/6mFU6kk9B6kn8TUmmara61ZJc2dxDdW8n3ZInDq34irFLmklYnlT1CiivOP2rv2s/AH7EvwQ1j4ifErxBb+HPCuhorXFzIjSSSMzBUjjjUF5HZmACqCSTUlH5Pf8Hof7Uml+G/2NfBHwos9Ysv7e8T+Jo9Uv9PVmM4s7aCQhiAcBTLLEcN1wCOlfzV19Bf8ABUb9u/Uv+Ckv7cHjb4t39rJptvr08cGmWDuGawsYI1igjJAxu2rubr8ztyetfPtBUux0Pwm+HN98Yfij4d8KaZtbUfEmpW+mW+4gAPNIsakk9gWzX91P7PHgIfCz4D+DfDYg+ynRNGtLNot5fy2SJQwyeuCDX8ov/BtD+wLdftrf8FE9B1hryO20L4X3MGuarGIw006FZhGE3cLiRFy2CRkYGeR/XYq7FAHQcCq05bdTPqFFFFSUc/47+FPhf4pWK23iXw7ofiC3U5Eeo2Mdyo7cBwexI+hNZvgP9nT4f/C1VHhvwR4T0HY6yBrDSYLdt6jCtuVQdwGADnIxXZUVSlJKyYuVBRRRUjCq8+kWt0zGW1t5CyNGxaMNlWxuU8dDgZHfFWKKLtbAU4PD9hbRwrHY2ca2wYQhYVAiDfe28cZ7461Zgt47WPbHGka5LYVdoyTkn8Sc0+inzMAooopAFFFFABRRRQAVR8Q+GdN8W6cbPVdPsdTs2YMYLuBZoyR0O1gRkVeooA858XfsgfCnx6jDWPht4F1Bmg+y+bLodt5qRDOFV9m5QMnGCMZ4xVXwH+xN8IfhnoFrpujfDTwTa29oiIjNo8E0xCEld0jqXYrk4LE47Yr1Ciq9pLuLlQ2ONYo1VVVVUYAAwAKdRRUjCslvAWht4i/tg6LpJ1by/J+2mzj+0bP7vmY3bfbOK1qKak1sBka74A0PxRqWm3mpaNpd/d6NP9psJri1SSSylwRvjYjKtgnkYPNa9FFK7AKKKKACiiigAooooAKKKKAPK/jj+x94N+PFvIdTsRBeOrD7RCMNk9yO9fOd/wD8EfbYib7Pr5U9ELA5I7A+1fcFFfUZXxlnGAp+xw1Z8vZ2dvS9zysVkuDxE+erDXutPyPhuL/gjvFbWFvZx+Io/s8asz7oid7k/wCfyrQtf+CQ9q90vneJnjtoYxHFHFGflHcnPBJr7Uor0f8AiI+f2dq2/wDdj/kcf+q2W9af4v8AzPhGL/gjFDGzKvidI1z97yiWYZyKsWv/AASAni1lrh/FCSKVK5ZCWPGM+xHavuaikvEbPrW9sv8AwGP+Qo8K5anfk/Fnwzb/APBHY2V200Hi6aORmJBy3y5HXpTdJ/4I8f2fo8sMniJJJWBIYbtxYnOc9Ov8q+6KKpeJGfr/AJfL/wABj/kH+quW35nD8X/mfCuj/wDBHq5stb+2XPipLz94GMbqdjDBHIx171JZ/wDBG6FLKSKbxNHIrMWC+UcZ7HPavuain/xEniDpWS/7dj/kKPCeWR2p/iz4e1f/AII9QzfZ7W18SeXY+XidGU4dwODj3Pp6VDpX/BHKPybZrrxKsUlqpjAiVirLz619z0Uo+JGfqNlW/wDJY3/Iv/VfLb39n+L/AMz4ivP+CPtrJbRw2/iDyPLkLq6qQFPqR3NPP/BIox6DdWw8U/aZ5mXZLcoXKKDyo9B06V9tUVl/xELPbJOt/wCSx737BHhfLU7+z/FnyD8If+CWcPw5+JWm+IrjxCtxLYMpMaxFgwXPQNwCeBX19RRXhZxn2NzScamNnzOKstErLfokelgcuw+Ei44eNr7hRRRXjncFFFFABRRRQAUUUUAFFFFABRRRQAUUUUAFFFFABRRRQAUUUUAFFFFABRRRQAUUUc59qACiiigAr+av/g6r/wCCK+o/Aj4n6n+0d8PdJefwH4muBL4siikjVdBvHMUUbpEAp8mVjjK7trHnAINf0qVzvxa+Efhr47fDvVPCfjDRbLxB4b1qE299YXaboriM9Qe/5GmgP4JaK/eL/grb/wAGgmt6R4i1rx1+yy9tfaE8az/8IBe3TLeWrAfvBZ3UzkSqcbhHKwYEkBm+Va/D74o/CbxR8EfG174b8Y+HtZ8L6/psjR3On6paPa3ELAlTlHAOMgjPQ44pAfTv7Jn/AAXd/ak/Yr8Bx+GPA/xOvo9BgkEkFnqdrDqKW/zs7BDMrMFYscgk8YAxX6N/Dv8A4PaPEnh3wZGniD4ML4j17zSXdfEUdnblMjGNloTn73bjjrX4TUVSk0B+zXxy/wCDz34y+MHibwJ4B0Pwb5bsXF/fpqySoTwCBbQsCBxkN71+Z/7Yv/BQz4v/ALefiX+0Pid401TX4Ybl7q004ysthYOyhT5UWcD5VAyctjPPJz4rRUh1uFdN8Hvg74o/aA+Jej+DfBeiX3iLxPr9wLXT9OtE3TXMh7DOAOhJJIAAyTX0Z+wH/wAEVP2gv+CiWqaPceC/A+qWvg7VLr7PL4p1CMQabaLtLGQliGkXjAMYYEnGeuP6SP8AgjF/wQD+Hf8AwSl8MjXLy5Xxv8VNThQX+uzwbILIjf8Au7SIlvLADkF87mx26CopX94T8ju/+CKH/BKbSf8AglT+yRp/heS6XWvGesH+0Ne1J7eNGjnkVC9tEy5Pkoy4GWOSM+lfY9FFEpNu7GlYKKKKkAooooAKKKKACiiigAooooAKKKKACiiigAooooAKKKKACiiigAooooAKKKKACiiigAooooAKKKKACiiigAooooAKKKKACiiigAooooAKKKKACiiigAooooAKKKKACiiigAooooAKKKKACiiigAooooAKKKKACiiigAooooAKKKKACiiigAooooAKKKKACiiigAooooAKKKKACiiigArifjJ+zV8Pf2iNL+x+PPA/hTxhbhGjQavpcN20StwdjOpZM+qkGu2ooA/N/wCIH/BqN+xf448TrqVv4B13w+Gmeaa00zxHepazblIC7HkbYqthgIyvp04rxXWP+DMD9n2/8TyXVr428dWOmu5ZbFCknljbgKJGJbGfmycnt0r9iqKd9LAfkn8JP+DOH9mLwc9w3irVfHXjISBhEp1A6eIcnIP7o5Ygcc8d6+q/2Xv+CDP7Kv7IxMnhX4VaTdXjwiGS71qWTVJpQGLZJmLAHkjgDjAr7BoqlUktgKuh6FY+GNHttO02ztdP0+zjENvbW0KwwwIOAqIoAVR2AGKtUUVABRRRQAUUUUAFFFFABRRRQAUUUUAFFFFABRRRQAUUUUAFFFFABRRRQAUUUUAFFFFABRRRQAUUUUAFFFFABRRRQAUUUUAFFFFABRRRQAUUUUAFFFFABRRRQAUUUUAFFFFABRRRQAUUUUAFFFFABRRRQAUUUUAFFFFABRRRQAUUUUAFFFFABRRRQAUUUUAFFFFABRRRQAUUUUAFFFFABRRRQAUUUUAFFFFABRRRQAUUUUAFFFFABRRRQAUUUUAFFFFABRRRQAUUUUAFFFFABRRRQAUUUUAFFFFABRRRQAUUUUAFFFFABRRRQAUUUUAFFFFABRRRQAUUUUAFFFFABRRRQAUUUUAFFFFABRRRQAUUUUAFFFFABRRRQAUUUUAFFFFABRRRQAUUUUAFFFFABRRRQAUUUUAFFFFABRRRQAUUUUAFFFFABRRRQAUUUUAFFFFABRRRQAUUUUAFFFFABRRRQAUUUUAFFFFABRRRQAUUUUAFFFFABRRRQAUUUUAFFFFABRRRQAUUUUAFFFFABRRRQAUUUUAFFFFABRRRQAUUUUAFFFFABRRRQAUUUUAFFFFABRRRQAUUUUAFFFFABRRRQAUUUUAFFFFABRRRQAUUUUAFFFFABRRRQAUUUUAFFFFABRRRQAUUUUAFFFFABRRRQAUUUUAFFFFABRRRQAUUUUAFFFFABRRRQAUUUUAFFFFABRRRQAUUUUAFFFFABRRRQAUUUUAFFFFABRRRQAUUUUAFFFFABRRRQAUUUUAFFFFABRRRQAUUUUAFFFFABRRRQAUUUUAFFFFABRRRQAUUUUAFFFFABRRRQAUUUUAFFFFABRRRQAUUUUAFFFFABRRRQAUUUUAFFFFABRRRQAUUUUAFFFFABRRRQAUUUUAFFFFABRRRQAUUUUAFFFFABRRRQAUUUUAFFFFABRRRQAUUUUAFFFFABRRRQAUUUUAFFFFABRRRQAUUUUAFFFFABRRRQAUUUUAFFFFABRRRQAUUUUAFFFFABRRRQAUUUUAFFFFABRRRQAUUUUAFFFFABRRRQAUUUUAFFFFABRRRQAUUUUAFFFFABRRRQAUUUUAFFFFABRRRQAUUUUAFFFFABRRRQAUUUUAFFFFABRRRQAUUUUAFFFFABRRRQAUUUUAFFFFABRRRQAUUUUAFFFFABRRRQAUUUUAFFFFABRRRQAUUUUAFFFFABRRRQAUUUUAFFFFABRRRQAUUUUAFFFFABRRRQAUUUUAFFFFABRRRQAUUUUAFFFFABRRRQAUUUUAFFFFABRRRQB//2Q==;" vertex="1" parent="1">
                    <mxGeometry x="60.000000000000014" y="110" width="157.39" height="70" as="geometry"/>
                </mxCell>
                <mxCell id="7" value="" style="shape=image;verticalLabelPosition=bottom;labelBackgroundColor=default;verticalAlign=top;aspect=fixed;imageAspect=0;image=data:image/png,iVBORw0KGgoAAAANSUhEUgAAA8AAAAG4CAMAAAC95n4sAAAAz1BMVEVhw9BYv80qrr0ZqLcdqbhAtcRaqLJkx9VKiI4QDAYYFxQVFA4eHRkoJCEyMS1KVFK6ubqHhoecmJavra67wMLFxcfR0NHd3dzq6ur1+fn////8/v7r9/mm3eXC5+3W7/OG0dul17AgSlkqhq0yrugwodUwa34bMzp1iw2z0gunqgr/3wD91gDjwwLn3XS8sVGilzt5bxuCdyGRhSzOw1//+Yvd02uvpEbw53z+84b78Yb+9IPp7o6X0rfX6JeEzcC03KnG4qBxyM9cwdFiw89VodSKAABtdElEQVR42uzZQYrdMBAE0L7KXMOWLH913f9MgUkCn5AsA57hvZ2WAhXqogsAAAAAAAAAAAAAAAAAAAAAAAAAAAAAAAAAAAAAAAAAAAAAAAAAAAAAAAAA4JmSAr6odEeK4UtK9Vqd6pZg+HI6H+NKr3t3iTD8IVVVD41GUlnXOM7Zr+Oa6QLeJJ1U6pG/Wzq9xnEer73HeYzX0oThTbr36+7eszqpR0n13r3Hec1dmdd5nndHFYbf0vtjHMfqe7xWdz1KZ15397x3qqr2HMfqzPcqnIeODvD/l6ip9LrGeY71OaDe+1FVOOs1zmN1UklVV61ZPcc1q9/mhy3CfF+p6n888HSl93Ee90o+xnkcd+chYUin58/y26nk11VSuT6r8Oep0vu+rtdMa8Z8R+muvXe687eCec/u+1qpStY9ztVZP9g1lxzHYRiI8io6horUj1X3P9NgnB53EBjo3SRt6G0MmwvLgAvSo/QJKixjigOH/Jp0PpZZ6+7oJprE7AAQa3BHeHM7ZMw2e++rJPVSo0pHJDOlx3TWijg+QoVprTfanCnjy3pCWcIbbSTF6XAAiDl2b2tzLySq9QAqEH1Qz6VTfv8tUGXHtX+CCnOs8BBTFwORaZTkOD4pHBUHfR/z2NwJiRwrAKBWAJHUWSPF5o41ZJLO2c1Uwh3L7G1hkIkl4N7zuv8mmUlcjpjFUf8CoKI37QhvboLInAGcAfZlepLfQfWHYL4sUMeET1q+R4VllFjco6Qu4nsO86HCAdQHABC92VbhzQ2QMUsH8PyDN+rcXcUyjnE5z6qtZPaZb1Bh0b7ePvTT4c8s4ajf7G7W5iac8gvUE/iijtpYAY887q6jIU5HL2n/m2Nsi8qfLVzSmOs7wngQM3c3a/Or+ZLfCtQnUJEUKf5h71z728aNtg+9qZtssvvrS69PUu92926f3jyBJ4xEUsLM9/9MDwFQCMXIgihSlujyqqPa2diJD3/NXDODwbYxv+8worhGZYU3xoWyEeWKqltlfne6Kk7u6RTC4gfASdIE4c1qrmbNmq6I7c2vOBSsC0RZqE7RppB0GiWqdrAujSf9qH82I9xp86vpdIsIKwswxH6cgEF4rmbNmqoOzG8X4BUW5WaFVFSMmEtUlBXi7oOaM4RYbAmrzbaiPgXrxgaDgCAKElOvE7MVnjVNESFrmd8uwKXKUEvSEdadz5IkLADKFV0/CCNW2w0USFWvFrRuJgmDsKcAFjkkMA92zJqm9p1fAeKIQIDqrhYt8+v2mJu12JQSiei6Z/Z153eL1M90t00w8CBJUh54CWht5sGOWZNS1/x2BesN6O7qmVLQympnCtbXC2fEEBmpmtlW2tpVvxzaAiyykAe5MFZ4HuyYNSERQ+qa3y7Au6LqRwgxJotyhVj0DGdE1CNrKBBXsK2oP22EehYL9hE4iDzuJwBJ0xWeBztmTUKnzK+VbgQT9X1a0DsxdDij89/t4eG8v0jPi20kSmN+e8uGYAOwH4qAJ3EQC+UX5sGOWdPQe+b3AGhQHpMu6M7qc32aBTqzvfPA/vqXMxAmYqpkvl6vkOhCfrFoPkeIgkSkoR9EEITcF2A+/XIe7Jh153rP/ALo4YZ2H5guCe5kusJQGSvsxvfhL3/8+usfLoSJELEy5hfpQrNKemhMZ9FZlgDEPOIQZ3EUJw3BUM6DHbPuWGRmm4/wK5LUz7wELMAVXkgJI1mcuZlZ4/vbr7V+++vigdHJrKFCthP6RNSQw0uaYBC5B/VDEGYJ5J563Kcgm3Le2DHrTkWErDpqfkGAz6MoAMvvxgGKYzSrQnJuZib2sPirxtcgTA9EJ8zvjmFVDCSLmNyCQRhA+CH3VDRuABaJADFb4Vn3qhOdXwA/qgGO8gQagEukQZOOKDenrLAxv39R+Fq9k0cTqeq2ycpp6Lg1mYWzJo+OeSwgiaPQpNC5B0LMgx2z7lPvm18hIInDwMvCyLMAr5AGHTVQoIi1WFkrfNT81nIgTPuFdWbWYjBWZLbs6CgMHkCS8siHWknMufr0540ds+5IbvNrXniYJn4Ypg3AOtyxgZIr3fM5VhYiZsxvV7/VCDPqZA26M7WrTPgdLCKzkm/dhNsg5HkCACINQi+BeWPHrFvKvTGnG35zP/CSNOSeH0V+LqDJoEdhpaoYrvTqi274JWN+u+pWs3TWsEIsVnLMYcymUq5JTYMo8HQV3jcAQ2KqWbtqHuyYdRdS+G6PdX5FkuSBsoB+yHmUpQCik0EPBYXRxm5mPpU9txH+C3uwm/OKcrPeyAvMr3NFR2OFAfKYx0kuGoCTOEiblvhmN1vhWbeVPTR4vPQs0twPo9BPgjAK4jyOGwesmRkHFKZB2SEhIwe+HStMSKhORIEdex5JduGsRriW50HNsAZYWeI4gSSZN3bMcuvG5jfPeBBwAzD3Ej/KErBjWGwsmc3MVGkr3LSOHFJW2Gxrb9aBEF3jVJPUVlhJZJkBGIIwA4DYS+aNHbNcuon5tQLIoihK49AADLqQBeME4O5mZjKbmfG4+T1uhbdlhbS92q4t2m/VFM1ghwY4jSKeJinnPphq1ryxY9bNZM3v+qfoCyLN/JpfLlIDcBT7OvaMGoC7m5mrVvbsRNhfl0TSYX5HqmYJ0K00Vc3zM14/Zlz1hufBjlm3kt2Yc3zuSgWZwOchT1KVQmdhxCPuiaEB2LGZedtqHbkJ5n5tha8b/KwV1lHY9xIvjNMwBR77HIQieD7jMOsmMutiD7Jn+0qSg2r6+mABjqMwyhS/9hzDqDLZ6sZv4evWd2WFFcJODf+XaYRFDgJ4loZxzoMg1FNpupol5jMOsz5aP5lfgEQ0SWGa5WZqwwIMsR/nokmgd1cIe2Zu0iFHV/hqsoMdKo/mQRjHYcADAFPNgnl55ayPlL0rpVTurtXz9XJFsZ4ZVABHbYAhB2ETaDZ2ALanjnrItpTsGYcrWmFZNFYYQH114jDNAmHGK+3+2V3F5jx6ltWHbswBEHnM0wQSL4uD8ADgUM3yQ5Ngg7mCcCzZucm69vz918v0m+4KX3vNtCxsV1iVstJYT3VkYcY9W83aVnMQnvUR5pd1zK9QcTeqiRUejziP2gDH3FeR2fJbMKJx6dCtowH6+x+jIXzqBjRzxsEoCDLVU0uCKOdNc9xsvmMzwbOub347p44SkYIhFrKQx/wgAuep/aOg+CVG42bPrNs6upEVJlS/kOjkGQcNqvCCKPISkXCeBFw7CzBd4S2bNevahwZbrSNQL57PPUOsF4U+tFPoTIDo8nsD8+uQPe4/7AtDDKsKkU53hc1gRxxDHNf0Jlmkq3tJE4RXyGbN+sC5SRB5UGNriI3VQ7YHWGSxqV01+II+dDBq9rxwmN8Ps8LIqnKFbKdmI/EE5EW5r2YlPocsSjLdT/J83xwW3hRzJWvWFTfm7DZrg68FM8mjKAwMwL4FWLeRPHtAydzDIAf6X+ehwdtZYWUrNrKC9cZ8mu4zDiL3IQ5zDXBzxsEU6WeCZ33UoUEwAHMe5U3wjbwG4CjLhY3U0Nxyz+iW5tedR//lEitMjFAF1nUp1fEFHURPzEa2BztyHnCdQoMfGoBhvZ0BnnX1uUmbGWuA9XCCBZgrgGOVPQNYfLcVjRl+rfkdU99tNaunrSCszDOUbvjq1fCI9G4e0yAs9JqOKNBfxFQDPIfgWVfC98g1+y2AszBLDcBhnEZhlCfmD1rzW0jGiO7G/DqP+58tbSsqpJ05logkVyvElZqNPGewQ3ixJ+JUNAArzSF41nXMr42o7Qq08cBxxOMo1BGYB/qsHAAcmF8cNXsmmz2PT3A/K6xshSgJpWSMzAuh3CgrrF53DnYIgCQLbATWIXjmd9bVN+ZAu4gVxkHom711UZjFcS662fMwfN37JsdHuJ/5Rf1m85tMqvi6WSHhOYMdIo3bAIOo5hA869rm1xBqAY7DTAGcRmGQtwek1zC2+WWjmd9Bgx0mjhJurb8/TJFLfehKIhJzDXYIAAOwXbk7AzzrauYXLMj5D4D9POQKYIh9T4CAK5vf6+s3fcbBmZdIlBtlfrtSVnhHWBkr7BrsMM30HwDvZoBnjWp+LZLqIbHrYtME9gAnQaQBriVa5vf+W0fvymGFzRr7LbKjV5GSQpixcr3ZFXT6mFJzpgu8XOwBLmeAZ12t85umCt8EshpbC3CmZrAizwDsML83n5scXs0iYrTS5te8+d7GTG2Ft64zDvYqFntvFJs1a3zz2xxIzxJIvFSXq1oAe1EQt2rPYr/ucexDgx3dwgoTIdZwOp6hFOQ6vm6RESK5N3bMAM+6aucXFKxc79fgPAgOAYbYa586gnJk80sP5Oj8Xgdh0gh385IVw0I/Q50WkdS7L3crQvfSHSHmFHrWyOtixWHnN0mjIBfAwyhO2wD79si+Nb/Tah05rHDX/G4qpKJtfk9MXRFuaytcnbWxQ2keppw1xsacjvkF85CncZwADzl4FmBP76ur9UnM74G+H1hhInMbS8MYnbVZFrfaCp/IthlSa7BjPfeBZ41tfu1FoT7PNMCJBVjk5tBg1/xOrnV0XPaMQ2N+5UY/Q3VvY3GUmsW6JKbH0U4PdqhRyh3NW6JnXSyiI2PPoH8l2gN3ADZgX9X8qn2Tt5O1woT6vP5WqOZ2H+mRjQJxWxCy04MdALCbDzPMGtX8WkrjVGPbBfhzmt+WtBVmDyovKSVKPdl9vqwVrjbmEoYToboqVoWc12LNGrguFtYgukryjMdHAbasN+Z3YnOT56m2wtr8Fr2vIrVWeLVWVlgivW+F2Zw8zxp17NnG4DSOo/AA4NAMcjQC+Hzm18qcFf6bl8C2wou2ehER0yMbG4kMT/WO5/g7a6y7UqxAxJzzDsB6Xaw43JjDaJpzk+fpN39gflub3C1iUbD3ovC8VXbWwLtSRLf2rIH2eBgcAiza62LNxpxP0zp6T8YKEw25J0miLOer+Wddyfx2S88gIBEC1JorLw4twHZdrKPzO/yyhbvTkM13RIwIi/Uayq2cbxSddY11sZ0zvyBSP1XEBkkaWYCzOBeH62IlY/e7b3JU/TYIYUbMHOSvkM33qMwa99AgQNf6iiTmUaaxbQOcgzg0v/S5zW9Lg+9xIH1vf0koCzZH4VmjhN+qddMgtI8ugMcjE3z9PcBmf/Fh9twzlhBNzvy2NfxKQ1kUiFt1mdl8D8OsgSI0R1s7C6909pz5mQFYtYyMBw7i/GDseWfw7SVERidaR/dpftv6PiyPJjSL76BcybnzO2sgv3K3gXXL/NrsOeVRlMUNwFmSqQiceyCGHhrEqmJI75nfu86ereyA9EUic6ZJ1e5xvtd71hBhdVB7thhDnAZhjSxwDXDEfR5yvUOnPTfZD1+7yLFcSZxo9tzou7bCQ9BbyGoHUCFVsxWedakIq7Jrfs3teRkPAh5FngJYOd+a4CAFpSHmlyERFibz7r6rwvdua89H9deHYeDJ1YphUW7lbIVnXZo/W35t8G3O+Ibcy8IG4JyHoZ97rQR7DReYX0JWbfUkgxkpZDQ189vS929fDgC+gGUkiVRqIzKPYM3qL2K0a/i1DxphSPS+DQuwiANfd34Hml+5LfUix6Jc7wglIU2ldfQzvl9/aQNMfbu69p20Fd7OVnjWBcKtTYmbwSpI8jjzc9M4sgADeHnn0GD/7JkxfZynJIZYbSuk3VYio4mZ34bfr7/8cgAwUkV40cWGepvOCknOVnhWbwO8AWjwTZrWb6qcb9wFWAzt/DJEZm8xMFZ4peK45pdNzPx+/1bj2wZYz6FuL2sJIcrVTvmKrZyd8KxeonJt+BVJHvtxrvjlker8tgEOYtE6Ydh7btIuciSsNrtC/ihG69xRMnpYTBFfCzBRs569QLosjyZJuFPXoc0ReFYfqlbGACt8A84jXwAEoR9HIW8BPMK6WH3MeFO0Fznu7xUpp2h+2wATIcNKTTfrZR0XIaxetBXe0XygcNaZMrNAmss042EYRTxP4pDneQtgnotO57d39mwXOe7wsFhLrFqVxRTNbwtgYqhPCMJuVZnpSIast/aLZXfI5MGMC9G84G7WcRFuNb8mbfaDSN3vG5ieUQOw6vwKMazzS4iMSv2+6s1O7lhNNHu2AKMsyi1isZLNdOTFVpjJldkBL7FtPRDn2tasY9oHYFBDzsHG42bsKqsBtscXPCHa5re4yPwWiCv1vhOem2xlzx2Aq91mDRUSIWNE+pqj1cVWuCIsoHUdGqEsikrODaZZx9AqNL8G4CwBBXAeGYCzJA25PXU01PzK+lEynO7cZAvfDsDFBtZmDyzt18cqnKtLEcYVrMVmJ9HU+apysyl3xYzwrCMqfwAcZYkIwjD1FMCePjaYpS18Lz00SMXO3GJg3reL77QGrxSzXYAr6JyGlsWKsCgvOiho69kbUjSbMbm1ArqaxzxmHYqwgoMInDQAB4mvSld5PvjML+osXbWdkBjd777JC/C1AC+26itzeFCQUakPCl46XbkqV4irlURVpKgl1DLa+cTDrEOpHpKwEVgDHHmeOrPAoziBweaXYaVKMuvyE5rfPcB/Wy5kJ70l9cu0hC63wlLvgC9o3yWoVW7lvAdv1g8Rli2AQ51C8zznUa24e83+Rea3KHeE1VbS1M2vbR0dA5gxeue60JWZrqQDS0HndYWxgDVsdrC23wUV02crPKvVBIbDCAw8DITwIx7Eit6B5tdUZwtjfieyb7JP9myr0EeRJJLFVqI8tMKI6oXOch9mtAvEXqCBLmYrPMtaYMOvjcCevrk7j2MPBptfPWStzS/7lOa3BfC7XwJJuD20wtVqW1SI50VhqlabmmFhBQBis5ut8CwjXHUA9s3UFbRqz5eaXylRbkx1ltGk9k3+JGV++wJs8+DVwXTkqtzA5vw8GKkqQBwCrMZEqnmwY5YewzoEONUB2JwGHmZ+qVBV1OIzm18HwBZh5SN2jMkmJxHqcrPyzK4uMetylNYima3wrB/CXRvgiPMwyw2+bvPr/KHdSCSJjCa4b9KRPTsB7lrhXXPuGUvTEoL1uVaWiJUWYBBenCegtCnnwY5ZhOUBwFFk+BUn1sU6x+sJCYuyNZrUvWxhStmzah0NAtha4QKgLCrYX7Nsu7p9siQBAQ9STbCAebBjFmOHAPNY8+s0v8Sw1nGyESVhJcwd3/ST+Z1W9qzwHQawnY4sNmuxKVvPjud2dduFRi+KAu6Z/vw82DGLYRvgyE91gHCZX2LIZFVVEpGOmt8KqRlNmvbc5DeVPQ8F2E5HVjsFrbAyVtaJMDE7ySHUbLrHgwRy8x2aBzv+y2VTaBCQeLFrbtJmhNW2VFrJ7g+PMb8lofwvML9ugLtWuCwBLL9a1go7Ni7oZ9hYASxiH/zA172CNczVrP9qkSlitRbaucwvEZorlGrBRsXaNqKEK21+iTGkTzk36QDYNeBcrC3ASZIIAKG7uicRJKZPfELih2kecoDc4xEPNMEA82DHf7V0gcTorEODpE8GgmJdq5RIB9vat+u9+Z1260jhOzbApAffRCMvTevHs7q6WKzN9eqx4FzoRDrmmUqp99UsNufRVxLiQgmJmgn35m1kt5c9DdwWQIMgO45voaIvWNS3SD/Mr96q2DW/E943OQBgh50VIDIeCAHOrq7d262Yz5MsTGNIwyAJohx8TwdxbYVngkcX1pyyB7lcLl+UXmvpV5a15IP+z8RuKrsQC840v2a2+cDH2SS62m7EFqn67zG/fQC2lsUCHHMumpEZO9jhuDkDhPA4j3wFsB/GwDPPE6DeH3YzwSPDi6xGt6b27e3tudaj0dOjeqP+vRrmGmNCB8QfY4KNQOMLJ81vc4GhlQnBxJi5m3SnX5323KQyv4MBdmc8oLPhXG/xBRAnBzvM3VVmBCTNeJZHvAbYhygKglhbaYAd3YMPtjknsuuIGPsQeh80uzW3T78/Gf2uZd9SJNcYvywluT/b6x/oP9f82vuDLcCl7iox2pmFdZM3v3pucjjA7hw64Vy17nimCHZ1dRGrHWiERZ56SRCBAdjnPE3NB9heIRTQQ/1j3PNF55hSspriy+iRryc+/IOblcXLiX/dcnEGvoret+fH3/fYqse2mt9Ven7WEOOC3UjEtus1GIn3s2ftcDca3w7AIJGqFcPC1K3Z5z11NBxgO1ZlAa4x5H7i6ArbtWIm/dFXVmWBBjgPwkC3lGC9qcYnGB+eH/tKZ5g1KyY2sd5aLB9P/KUvzo9Ii9fHU+9PzhsyFL2GXbdULNYMP9woDBPKLayF+t+p1pE+m26y5y7BldyWmwpJmbj/mtaRA2BH0aENcJ5x8GKvGTx/f3Od6b7vn2xjvTw04iILsyyME1C5ELGxhfJRhZte0gmmyjDfaoglLbA3wKc++LMrhNLD4q31b+6GTgWwC19Fb7/PWDG8lHSTMEx6YyTA+2sPSV/5Y81vF+DdDtbaCXfTv6nNTWp8rwuwvQfDALxO0jCuGfajIDYF6RNWmJh9Gq0VZ1mea4DjNMwS/c4F0g0AdsSmpWSLEQH+/dVlg2kAwAuFr33vngzXYZjdAmFCqorVqqgkwxPm9wi+7XUdjLrv+3lWbowJsL3KFZKMrwGygId5zDOetgacCekdhKUxMiBEnid5FBmAgwR0OeIqEdghx4/1o/m5Hg6w/ZAvi2tFYGRLFX0vfr56frsNwsSQETE8ZX4BQBzXeqODxrEv5ISir8Z3XICdLSEvBhC53kGW5lGWgC0kvlfNImJm4awwQTzgawuwbendB8BW5ueaFoMBtkm0XIwdgW34fXPg62L40XyqHy7SD0fNL7Oto65sH8meWOoG4O/TCb82e746wLYlJExXiIe+UFUp3u7El6tTVtgkRCDAi20ENt+KuwLYyvxc41CAbRJNV4nAi+Vr3TMaqvpTlQti9yHCE9mzBbhAdjRa1ABPhWDVOvowgBmhrQiqPlKQ6zhsI7CtZjmtsBkHaQFc3ifABmG5GAiw/VgKwtEjMC7fntT7DZXywg/s1rKO6yS+BuD38jYF8CQQVtnzRwLMtJXVLXUQeewJgCzk6v8Sz8+8ZI9wRScQ3u0Rjj0NsG3p3R3A9ud6STgEYKvHZ4ljR2BiL89Po32qEtnNRexwbtLq8G0Q9ofmWASeAMIK348GmJDZ1AbMKoU0Ua+kPNSvwCkrbK8hNQiLPAj20bu6W4BrPasgPAhgm0TjiBHY8jsCwDbHv5Hc5heESA4D8IbYcSmA7x9hZX4/GGCbB5c/8uBIn8UG8BXA4BzsME8B1gqn+1Ogdw3w74+vy2EA2yR6uRg3Ai/68juoVf1x5leAOBQk4Hlw2AZGYu9F4LsnWK3cuAHAHSsLeZrxONGxWAGc5LFn8ujmjIPrKUBMA+Dff397ecARAH56kzhmBF4sR+HX/hXsVuq2G0VHIDxfjc9DC+AV0vsR+L4RVtnzbQDufpkhj+PET4UBOM8iX4A4f7BDiIkA/Pvzq1wMAthCMmIERvk2Ir83dcDdEkmX31Rd4G8BNr3HUxH4nhFWg1e3Atj6FNvVhTwJAgOw8EOegprUOHuwQ4h7L2LZyQ5F8BCAbZo6XgSm137l5wGDJh9kfo/WnnWNJQp4lgO0DiPRKQ98xwgrfG8GsCWwVc0SaQwa4JyHQZ7kWdba2MGQyPEUoOzMvbaRWnp6Wy6GA/z09oBjReDFy9N4/P7+RsRup675hf0vEGC6lV7sJdA5DvxuBL5fglX2fAOAHV1dBXCceBEPAvBCbszKyY0dtB/sWAuxhmoCAGuChwBsA91IEXghx2kguetrtzO/YBdHe4lIWpvfxabCUxH4ThFW+N4AYKdlgcQL0iQP/TRMgfs+B2OFwT3YAQI2KyI2AYAVwS6A3bJJ9NAIvBgjgXZ3uD7c/IIQYP8vj+MURBBGvn4FHDVoG4F7Izwp8zsMYCv6MdghwMsF8KxmOOGZyqcNwO7BjtV2WxCbAsCKYLlwAuxGhWhYBLbHj0fk1zGofRPza9a4RAEAj6KIc9XwcJWw2rPQfRCelvkdCWBG1LbCkMTcD31PfamNXUkcZxw0wmYN4RQAVkZRohtgdxI9NALbADz9FhKxA/N7GIPjmtzQF8DDSMkkdnafznGpVToNqucDPLns+ZzrRfsOdoDIfR7FaehnHISe00gFnB7sIDIP0wC4/kl/fRgCsD2WNCQCWwd8zt9l5OT3eGntJuYXDmrPWZblCmTOG4BdAZiY3SN7XhCeLL4nAUbGkKhnNQuUYwEvrBnWg9EZNwcd7GDHcRFj0wH46QWHAGyT6KERmBYvjgCssO2wfNMWknvsGdrJM9QKwizP9T0AaRxnURgIcDlgYvRH+yy/2wpP0fw6ACZicvVOzHQd1wcBPIjNrpw4srPO2grjO6xOCGDbyO0NsJsX6gUwezsFsP5vZpOs2S37ZKk+vi0EWUc3Mr+gfyUC9FHV0M9zML+h30rA8LuR7/eQFm1+3Yn0ZMPvuwATQ4bVBnaFPJfg/RkFATrxCXgNsEbZAmz2huInAFglwIMANseSFgMj8GL5dJrfpzezZtNIr3d/M22np5u0kFzrYtWjfc2L/RQSP4x4lvmpuf4sC3netIahQGInADaQuvPoaeNrAD76tChRbkzMJEZ9q1mqdJh5uSd+AJyYatbGQfCHAfz0k3o1XBg5AXY3bQZEYEcGbUzti76DARnuf7ClXNYUvz1ahlv/mg/j170uVp9UDXjE8yRrSld5kgc8iKK44Xe9ZcwB8FkITzl7fhdgPRCzRVQBFSqknlbYrr2Kg3wPMEAaewKEXSB7Q4BPU90jAR4CsIl5NCgCo6pBn+B3+YDYLjAQKj3IZcPw0y2HoLvrYqFVeAaRZ1GoB59jA3CYJn4UhjwGAM2vvczDBfApKzx9fI8AbFLhjbYYNcc7wkpPUvVvx+vBDgMw1K/zZjSrJCR2c4Cfnn+SSi7Vy5lVZBwIcJ3gShzkgR/UDsoT/OJ719szzbC2yDdrIRHigfmF9h0r4Ifc58rw5n4WqOJzCkHEsxSE4bdU/LoAdjM87ey5BXD3On41PSWRIasqpJ0+VER9BzuUjWkiMKjuUug3qytXNwXY/nhbtT3i27MTYZtyugF2f4whERjl0+kcgdh7ahh+NgjrFhK7ptzrYkG/mMX/XhJHUQxZGGYJQO6lXFnfNI7z/RVK2ti5AT4jj544vh2AiRArwgpU9arB2VjhbYVEF1hhIYLAlLU8BbAtH94QYMsOPRz8jyE9KIv49mwRdiTAboDd1ezLIzAtlqcC8LPzEgeSJgw/1XJUsK5mfi2/SZ4Kw7DH4yQIA9EALPIk5/oV2C9dA5s/uwF2J9LTzZ4twIdXoFRI261k2OBIpAPqCgmR+g526O6dEGkuLMD2DMmtASZGbZmnrwU9mMj05A6fNARgeyypbwR217DsJ+jeqS6XLzqTfmUOXdH8Gt+bZorRBHIIwjiPwszLeJSlIvGyuFm6pl/M/cFIzA2wKwhbTRjfNsDEmH5aLAklISOLowqomwqlPZHQ+5iSH0Ab4A2xewD4/ezy5dW941FFLRfA/WthNCrATqG+yPDxI1tI9q4UAQdnfUNltXI/VivW0jAKeBTEeuVpxEMeC2jdw0BIzA3wt+9nR+GJZs8WYGt+V9r8knqzQ2OBuLI78HsOdoAqRzcA2/V1dwswMaYQfu7RBnIA7DiWdIsIbEVsQfLlhdj11b1m/+CsoB/WAAsviLKAx+CHUcR9L4/zRL0axCCaaT6wB9ucAP/y7dv5UXiq+FqACZkk3OobWonRzwGVUbkW9grWvoMdHrQBXm/vGGAtpOVrHxfcH2CbRNPlEfj1ZBEaz46I9MC0bmB+lWAPsOoZ8SAG1fwNUogD7iVxEPgeALTvD2bsLIB/+eoKwm3d+6kjB8AqXkqUO5WfHKeR9PPmTlvhS/bP5vwHwOW9A1xLvj45Q7AD4P5JND0MANjRZb7xveN2brKFLwgtDXAUJDrcxokCOPQTEYQBgNlD2Zjfzn4mF8AK4R5WeILh1wKsm7dbJGt+j0m17QqkS6ywUpxagDfE7h5gdBKszs86AO5diabRAP5d7e+6ndwbc9qn9lsROBca4CxJ7QI73TrqXv/tBljrW48oPEF8G4BJb9HespNfIESqVoSVvQu972AHCC3TSLp7gBk+vNq5LAdQDoCdU5mjemCr12W/+40/9tBgc7NHoqf2IA5DE4G5AJ1C8zgIg1yAUsf89gG4Zx49mdpzNwKX+riuw98SIhHu9OF8YkQ9ixbQ8jxTAJhQvjoO+7z1TKHdExc0IsBPby96mPLW6vYlrMxCcYA4820EDhIAMz8ZBp6tPeufTiRifQH+8Dz6u+uqsvEBLlaEhbYXbg/DiGlXuyOGSP03dkwohWZEKN9Ow1f7TCfAbr1JHDsC29sGX2uG6eYQdw8NNo+BSZJjHkY8agPsRZGamzQJtiN7dgCs1KcePaXs2QD8tw1USNXZ+Yl+It0xVl1ihe0ulPsvYplZp2dnDj0EYNuPGjCJ5bLYimH5wPB2FHc35lj/yxXAIuch9w8AFuAHWZwbflvXA/QH2KpFsDORnhK+v3z94iewxV5fICp2lS1Y97XC02gjWbkO7GGvCOwuGPeehXZn6JrhGmJJN4G4e2jQQmwA1sY3A994YA2wAL0eUUCzWNya3wEA98ujJ2F+bQRW6+aIqNfzKeFK+5J+VtggDOvNPQ9yHMiVRD9KHAawTaIvPI3klvloNcSa4m4ovoX5BfPSAAyBut0ybnngBnLoLEMcAHDvatZEwq/xwBVhb0ejXLMZKmfsbCvcLF9Yb1ZsCh648ZlPJ0PwckFugN16wQsiMGH7z7r1qCleLiVrGL6B+W11gBMDcM6jyDPoWoAFAHTM72CAHVa4q4nga6rQvXGixgqXEqXE8xFm1Wq32xU0GYBrvblM8HCAbTVs+EYOtye2pvj6ENsWhDhy5teLPQWwLljlyb6NFBqAO+Z3HIB7WuH7z56HXW6mUuICcbutWB8rLKVk7J4PMyi5IbEmeMHGAFidx+0fgdVOrH74GlP8+PyqIGaIH7sxB0SSm9oUiDjgmQY41ftymggcZek+f+7sIR4KsM2j3QBbTQBfB8CuuRrCCtTXuc/3FFHxOxWAGZ5evfz8MBRg2wzu74HRmuCeFNvqNCF+lPnV3KY+T82CFt06UoOTaagicKYPM6S+xtthfgcA3HM0686zZzfAbitcbZQVrs62wrZcNhWAyXH5gVwMBdgeS+oRgR3/NjfDtkssGRIbKnf33zzG3KyFBZGpi46iKDQAp7luI0EOAhyd36EA97TC947vwNsJyQxRQ4XU78s9JYAVko4q1jCA7c2ePSKwc6+sW5ZhRxFz4I1ZViCAh5pTEDlXQ8/7FDoKMh5xPwE79mznJocC7MijhyN8Inu+f4AbK1xuGRYdK+zSZABmTD66qljDAbZJdN/bCYffjfSsBy7pOjcNtg8dqQErrrdbga5ZCRGEYaqLWCH3A2WOAaz5tfgOBfjbL18GWuEbzE0O3EpJPZcLSpSltsI9NB2AUSF1ZYBtEt3/dsJB9NqZacJrHRq0DCtsA9301cd/sySp34gTfWlZ7HlCgNv89gf4SxgeyXH7WeF7zZ7ficDUwxXZSxz67YBnEwLYcW7+dTjA9kNdEIFxcAh+ahC+nvkFe+hXARz6iT5ulCUiMJNYEfdzIbqd33EA/vqF/x8/nk33yaPvFt8uwLq/WxD2tcKmXVCcb4WnBPDLWAA/PjuTaOoLsHwzNnh4FJZ4FfNrBUkQZqbTaw78NpNYeayyZ4f5HQDw//tPTdtgK3z71pEbYFK/tiXYxTk9pKxwKVGuqvPi96cB+K1HFfq5HutyLIvvCzDD5fMoAD89vy5x5Gv2BSg1YVjXsHxzZF8lz0GSRhpgYQTQ6fyOlUL/339+/d9///p11K7w9xuEXxfAREhm89V+cU5fK1wh25rRc7emBPDyJMDYA2D55kyi3QB39TLUBtv1XEtGY66L1WG1lUF7Na+6aZToE/tppm9Maa2L7ZjfkYpY4b9//d9//fv7129Hilk9rPCv32+aPbsBRpQrVU4uW4tzelphJktthZnTCk8HYHqwTA4HGJePrmNJ/QGmmuCRgvALDd+Yc4Bvnsa5IdiUntM8jEJfAxzxgCvzC/bqWWt+xwHYxtxfv4f/+tf3P//48+uXgXn0DfF1A6wOC0GFspLVVi/OudgKb5GY61sxGYAZjQiwc/LiTfYHmD28PD7dgGCH+VX4xhnnWS7ALq7zlO8NhHo1CmPfsS52GMDfLGdf6hz6+5//+J8//nS0lNyJ9I3Mr/swA0qF3qZAQlT87fQOWepthc0OeCocXmY6ANPDiCn0w8K14+O1P8BEDy/WBw8m+GJ+WWN+Lb+QZjyyNlfXsHgOXI0+6+mNLM+FgAHm13UzQwu1b79++/Mf//jn//y9bx7dBfiuwq8FGImwarbuEmlm9RmSkljPLyshqwqGhakmntBkAFYReLQiFqnG7dPpY0mvfQC2WfTbaAQvLuS3aGfPtTyfR0qqbbSfw+JezI3x9YNu64iIjQuwRdjo2//8s0b4j79/HWSF74pfC3C1LZBtzd6w1g7Z9Q7xcHEOqV/ktMJspy3NiT87KYBfRgSY0LEo7+3tEoBx+fo8EsHLxSX80mpzYH4hydR8lapTZQbgxFO2d4907uUCwGF+B6bQh8B9/fOPmuAaYWce3UX43gFerkooJcrqwLhijbVEWR7skEVyN3qJMdJmaMc6pew2z1MCeLRBjmdynG7Shaw+K7isUL68Dq5GD7hodLU5ODTYdIrAawEcK9+rENZnfhMBo5tfG0MepL1apWWFv/5dIfxPlxW2FWer+wb4b6V6FqxQ4dtp6RGu1uvWDlmqVtvVOU+XpMqRK2RN/LZko2V4OgCzxduYADO948Oh/gDrK47enseIwf2TaMLC8gva/KZqTlKBym0K3dxy5KkHnWR31sWOJmRyu2uuVvl2kEd/+fZ3nUf3t8J3DXCik5if0SLWLM4pJercWr0FoIA+Iwqr+F2VLStMjElJiBM7Tqg2TzmY6gGwnX4cD2ArZOpi1OFe+FliX36rdvwFn4exAVjvy0kNwCok+56AwPfU22ObXyuSRQnQvlrFIlw//vnHhVb4fgH+q6bs5OIcQimbgWfzrOluuCvicdsqZROjYrvbNvnShABeLB1LsXoDLJ/HjcBWC6bu+7UMj/S3uPmVpeHXgJpHkQE4CrTvBbvCLvISAA8SUes65te2UwzAFuFv+yj8xVrh3i2luwV4eaKCr0fjVIVrV+m7C5Ucmz478XtdSu2dm+tb9DdtQit1XIunnpb9ilhKaJPo0dFClHUYHsjws+wZgLc2/jbFKhuB/TCMbQ0rNCzvzW85uvklJEK5URPVCmCj963wt54I3yvADwsixw7ZCpQVbvIkADhz6ByrVbneMV3KxgJU+F6DTpumsdhdi5QFduyV7QcwI5tEjx8bccEeli91Lv34QSHYdCD38dcAHDUROOVhkAtbw8rUqw7zO/Di8AJRtVO6V6sct8J98+h7BZjci3O0FTbPnz1uu9Cl7ApJLaJEnWa1v3eTAJgcGfQbY/0BXiyfr0rWAh90IHZD7L421S1S39ljEVgf30+T/RwW9z3HXSmDpCfBTDuFsAXwUSts8+jj05XHEf72dYoAK4SNFQYQRq6tY91SdqG/YRuDf6t1MAWAzc4Lx4fpB7CtRF8HYFvwl8saYpVOX7WMRVgAgL0n9CACR2GQ7r/rIk7BcVfKABEjrHabpp1C1AG4lUf3t8KtAwzTBFgJqdjtQFjZvZ9uhJv4vYEf8Ntv4f0DvFg+OpHqDzCpvPzauS0iMhWJm1Dc5y9cLi4KwN0IrJbEtqc79Mt1zC8jLExk0AGnC/AxK9xqKbmssMF3ygATQ1nZFNree+EKpbaUXdr43UnB7x1gFYAdC9l7AmyT6GsDbG+E3Yfix/H/HsVNa+9k1wPnll/b+bWJ28h3p1UoSx1QXFer2Hr0l289Wkr1b0waYG2FdRHLKmlC6ZlW2MZv8EBA6zt5zwA7b1Z5ZtQbYJtEXx1gCzGS1KG42yYe3iTX90Vben+qQoOwguuaX1Ur1T9PXYDft8JfXFb4cHxj2gDbb5UWCE9bmj7VLFgLrTyLdS3Srt6n+wXYtmwdH6U/wPTwNm4EdufTC6Yo7jDsOmLl7gFD62m944FbAFvzO3r2TKiXCGxkM0t4AuAjVljl0SdaSp8L4NUa7FmTLApiEKB0lhVGuW9CJUGUQ26tsERG9wowkePkwdPyUoD1saRxAXYLF0iytsTO4P9MxPr+UOiH9yOwfcIe3/xu1+pDEyM6Yy+0YrLPdOVnAriyC45EHkUBVy16lxW2wnJtz3V7XpYeWuE7BfhF/aQ7L1bpD7CdqBwXYLeIFouHpY3Cju62W6Y72Ajej8CgyphXMb8FYbWpPzSeXOzuaCn90+TRxxH+LAAzYnsG9YruPIhy4cG6Y4Vd4zqQpGEah4HIwSBcGoTvEeCXZ7dXvBxg+fbRANvDOi9vjr9JLvpk0NDA2/XAmQH4SocGmZn0LZCtCkJ2JsBH8uhfHC2lzwIwMx0/SGIf8pAncRgnKo+2VvjkUSMbv5M8jDPOIdYnuh3dqFsCTMvn+s85MujLIzDDOom+AcCMiBZLTbB7QNRdg24C8JEqtL1p8Epzk4zV+Ip1ybT57QGwRfjrTy2lo3h+HoB1CAZFLkQK4CzhPI3z/WBHcZLgJn6DAJ4FAc+zMI5zEOAY7LgRwCpMKX5d1xkNAFi3qG4AsNJCPjsbwf3HoNsRWPixXVh3DfPLkHDXmF9GJ7ZSfj9RYbYIn2wpffssAJtjYyDywE+CCOIwSHgURHGSC/XbeqOWI36bKhbnMY95GHNfmABurfDdAIxS8es8OTsIYJTPIwKMzGp4f2y5oB6diWMptK5TXtP8VoQrddjNfbXK91NWuHnrS8sK/9LWZ4rAjHALoAjOVRT2FcBhFqRplppMaVOdIBipCcGJH3EvqB+AR+A5ulE3AZiwLvQ8KX6dl3IPANhQNBLAuFxSnxiH8mmUUayD2QBbhTYT0DB46I60jg8WlBXKbUHovJnhP/8+QvDRlpK2wqql1NJnisCMGO3M5jKAjHOVQodenmchTz1QBJcSyXXsG5I04hAEYZZkYe7bWra1wrcGGJGWpnzlDMDDAGaokuiBANu2cs8byh6eR/DAjCzArf3t3HQYhQAYZH6JMazF6OfRfLV/emsv8nFfrXL8YobjCzv+8fd2Fv2pIjAjlGrblY7CPudpwqM8AR7ygMcChP6inuoZmvsjwa/Z5VGaxKEXhEGSeqaa1VhhuinAqE7jvenw6w7AgwA2VnQcgNWh5Sd9T2iPr83wKjTKfQkarAcWeZy3bhq82PwqOmVVi7BDtQkj5QqJEZ15tUr49ZyW0he1sOMQ4E8VgTXB2xI0wZCmADzyFMCpSqcVwFAhnYjfW1iDklezy/PEC2MeBCIIUvdgx/gAM/xJjORS46v5dTvgQQDbicrhAKPUht0gjNRjz8igPjApgFuyHAMMMb8W32Jb1tpWh+ZXIttpx3Xe1Spff1VXq/zr29c/30O421L6xBGYMUJ7e1WSCAhCDXCeaoAFrHcnQ7C0N+d4gZ+IPMq4z70oijOvPdjxEQC/ya5qdvUhWntwx12CHgww6SR6OMDqoxiEX5eSIQ7cM/JMrBfAXYyHm1894LxZK0FZ4cFUPWGlPvT5V6t801ernDy/3z6l9OcnjsCtLy0opUEuRBDm3h7gjTxJMK3KfQrumXp0yuMw8MIsyZtqln7GpWsBbPVcn8/pSp2ddUdfe40RGwSwPZY0GGCyHeUn/Ym9aIbJNeT9NHwW2k5CHyTStqRxOb72ljSlpjhKZLadrgskiYwcALdY+/I9VFerOIat7Cmlg2x7YhGYiM5CWHOoZypBzUamBmBF8ArJsa2yScGFfk+e8yz0E84T3wx2mIYyo3EAdhBxqOb3ztxagWwowDaJHgSw3fpjEX58UwwTvv9DjvLVtZKjdxHrp20PA8yvKjK3LjlUK8aJmgoMlAUSEjEnwO0Ks75axXE7kkG4g++0IvB5l5IRIWoOBTRV5cC3AO+QzrtAFtR78iwJeJjWD8BD1VA23qn4AICfjun8qzjlSACToq8HwM6ern79WTP8QKhEncOFukk2zuYPLA8PE4rOXSkDb/g3AoAKCaU0C+uU+aULrlZxnd83wHc1rQiMspJ4/k2w+5aSzwML8IYYnZmCCwFxnAQhV63hlHM/8VMQNmcaDeDxpS8gGQCwI4l2gOVKh81bj8+vNcRLWWPMCBsxRmpJh2OQUrWB+01i6YfOxpzRbvg33Y1qu0Is7PXTboC7w1auldDHEZ5WBK62yoEaBN02pdhphJM0i/cRWJg6tEOte2RBT2TWDz4PsjziubBW+n4BrklCNgbAdsvsAIDtbUtdhjXEbzXFtZaNHKf6+x9GqgDEAWrjmN/uRy3lqlRP61Ii0pkAd8Oq8/y+Bb6tqURgIsZIYWVu9yU6u5qlEmHfAgxrN8BEaKywMA3lVNWjA+4HcRgA7F3P/QJce8SHMQF+UAd0+wLsPlisP6j+9fis9Fb/etTwOme8F2cTR/Y4IXRWHY6Fr8nrdspZVS3z6wb43ZXQbivc0kQiMO3P3G821dm381u3EnMe+i2Ae5UZzbeeqyXCvv4o1vXcKcCqBbVg4wFMuHweAPDDKQ+tbL2l2ZbpRl6JBcJ5aLC/+e3qyP0/ToAvOb/fzaMnEYE1TwXitnYvK327b/X/2TsTtsSVrAEn2n48em3bFaQhEO88M32/OzNACGu0XVL1/3/T1DmncgxlpAhZpFtOu2BICmh9OUudhbbZNlSl0WQ+muUBmE1wNqTnwXAR4q5yYjQ5OwowTeAsC2COQm0L8GbX5orStWM3B3dQEoQCjBXKm2TnNyOu/Wg6v3aA1yVb2beUEvk1NDCow4dYxPifBFVaxnR+W1R5ulhEyxyqk03wR9DC2GNrNInCMIwiY53dApj5LQ1gru3v5ADYtqHLUnVfd06uXap/D0WdXwxtLrPkPvoJzm9OgEnWuMKb2NG/ggZ20XJZwvaaIFfYnO5rd4WxoJCi0DlsJkGPHC2hwmk5QguaA487BjDz6wmnZIAl+7G5AXZ7xfi1p6jYCb57fHh4eHy5K8v5ha+GDxzFvHRegNe2hDYQzgD+V9DA7tMD5q0KncaBm7zPPN3XKpzYoSQXdxzNIsU7CWdQ2BDpuMXOmdDMb8kAcy5kfoCR/GJiT1GxR0Kefv58ip2SnN8IP0yA80/o36B+f4Psyt3XwBe+Kx9x605mT+ffPLFDMbymoNCe2DFQWni00ASDDb17AHc96VQBcNzPAbBl8lrhLe7c+tMRSgo6vwm1UCazSCHM7+Z5Aba2hN7IFd51DXxyPHyU4gm9F2Ok0bPhCtuz3x4V8hbqLIkdy+GYo2E/dxDgvi+cCgBmI9oOsCWCVc+Afnvdff5fP3csXkxGg6m5DyxkIYBzT0di4H8BgKcAnZDvTed3Nt0VllC7uQV0MmWCYzGpBvhuZwDmSG4ftFMFAHODLDvAlUewCtVjF3d+oeV4GJka+LkwwHlb2bErvPsm9EsszNwrzstKpvNvND7JbkbZc6uNX9pOAdzuAb+lA8ww5gbY8crmt8Nb3PXg68AE6ZTzu1hMFyG2o10F+KkgwPlb2aWA32kNrIJYsbtmOj9O992wRBftqML1Y7sKsHJ/Y9epBGA2h/MB7ELf2/K3yOoQLtmn2BU7v/PJdAYt8UwXOC4OsBlhNqcj7fpolePjP978U8dwH3j9dH7VevcOXeGqjSl2hXfLB2b16winIoB5bn8ugGXvV+Z3tWohgo9JGAxhkr/hAnOJW3GA82dXfjzAx0romZwp+fZNfyhRL+MkA+BMVxjN7Op/o+AKczLlLgDM2ZNeDPBUCbAbd3MB7PqdckNYvEX2Mc7vMgoD7HQIFS2r02h/lgZwhit8usYVrn+0ismuIheo/XZxcXl5eXV1fn19c3NzfX1+fnV1eXlxoe75vzjG9n9rpvs+gA1DrnA1YiZ2KLl//Ph9YAan2/Ml6KbKAGYjOhfA/XZ5BHc4xF4Xvo9pfBeT2XQxDsfhlCtTjU2kwgCznOQsNKwbYIb35OsZknt+02zdKmm327fwT33QzWazeaOQvvaVxI13IEbb9k6Iu9K6VdkTO+6hqP/jM7EYX1S/lQLMNnGeIJbv9cELrjJEZ5fiiRvg/A7D4XQWzMNwgXUx0YA2I3g/ojyA82dX1hrE4qek4L24uLpp3gKv2dJqsvRanvcexNLRzRAe70BXy8rfm19Uah5OzPhogBlf+F+pFGCOSuUC2HVimPfbKeNdikN0NTq/HLuazYNgBMMCwvEMGrREkxEEsjiEtS3ABN1GreyoJXTmoOC6NTCo3m/fLq+aLUbXBnCLfu55yHBWtpx4grdMFZR2qneFMTOvnJY6xXd+Gd+KAWYjOlcmlhAw77ddVA13yEeoXsyqBdr6h3rycQi91UbjyThcTCewlcRnWBSwrS90mNHVfW2hYcaZ9QF8rHTvt4vLG4DXJk2WFNRZDFM3fCjef+Ju+BUKpuZ9NMCKpE637/mIb+UAs0BqZK5yQuE2fFTDnQLB574X14avsfMb4b7RLBiPo3mwmAfDYBTBbOFEA1uDIZuMVjmxTkeiQkPKrjytsy+0ie/p2bfL61Yb6LXKqgJmobak0jEEYsTQkvc5rtwVBikF4O1UUwfhxb5w0hWOUwvAbETnA5gt6X5ehnlRhW896ldKh3d+SaJoAK1Jx4MoHI8Ho/FyGECP0uU8HBp1pUUA/rfaccnkLns60sdNZkDle8W61yatDAXMajiLUvEEaR33qrTa+SUEAc5Pb1uxS41ZXddhKQ5wBwC2ipcTYFbDwHBbPf189LahjbRTMb5m1QJr38FwtIB9I9C5wSSEkbXQnJRG3ml+n+382ker/H9ggpdtR6MrXP9kBsb3son05gKYFbDJcCMjegixLHCFcVd410U0ev280oMmcOBGCFfIrQbv9vrv/uvZVxRxb80C61qBCMWwR73pkeI1JOPdSqDnnR8LWrSunV8OPcOcWqV3l2EwXypyoa3hFExpSOOYJvzev0inAMAgNFrl68km9ftoR9epgU1888g6fsmSlkKaNhCmS9FguJ1HWDbi/NKQjnDd7Z2Ehlri3X8bvevEa/6trct1XScGRaw0MVLMzd5JGN+UixA7/FLrTtxYRJB0FcwWOA58MA5G4+F0MA7noJr1aTzvchuAmcmvJ3q0yqnFFSYv9M8fH6CBj0+/Xbbat1sB/L6K9mJHZBXvQ3/Pu1/BjhaOQHHsn3xq4d1nFFrPePSNWFnzfB2rgN2gIEaKu8Ax4sry6iH0vHro5WrT2IhdzYaL6XA8CiaDACpIYcQljIofUTVa4v8+sgOcF2BUq+ZolT83mjKqPmvWwMcn3y6ajG9OC7q17hz/DaZSCOh/dxe9/AKusCRRerG8maVCbhyE45sSbm76nPls85NEwKewaOJG7APGPP8JoEUhD8GPpWFm1OX8kkSLIcy1HIXDYDLB1MnpHIxnmuvPbTjIV9sSYISSmTw7+WEULWS6wiy1auDjrxc3gFuJCpjl7dRoiUN3HrGFqOPsth3d0CJN5VfEQt7sUZFbvlWaAJpKGnZVDICCD+GnRHsIVbJr71cHJfuTMWwUheEkGE6C0TJCcxpA1hWlejop2M9bA2x2trIVLTCd9Wpg9XS+Xd62twa4ZTkNEhkcJ9sVfhHOTiPc8BLx45Li2p5SYbbJPB6Kq0738bHdEi0K30N12ttwlLdAWrXALZOIOtTvqvMbLWejcBYqz3c5Hs2COTYDh7n+8xl3w8LxOi+W9hA5R6ucbFS0cFqjBmbv9wbwzSst5tcmXuxIJ9MV/gk94B2xqwS/JnK0uxv+xdszpew1d40u7vkq2qhlpOfK0vj1utqr7XqNjX0I9iQ+QOC9PuX8IsKjIFQWczBfwMdoFMymcHyymC5RSPs+UovpAgCbEeYcLaHr1MBfLyB4tTXAG53qSyfLFb6T4ulhh11h3gfuYKlcGQR3AZ/eWiKlAhiCwLGLAHc65QHseu3XcJQnNo2J14uuye/dw0rJ/oxabkwCmAo9XI7DcExhq2nK+eX5SkUAfmsZW1rZMfA1auDjs8vb7YQV8CaSRbAUwmh8tzvCAKc3Trziz1F2OwSwRQNT0kUDAS5LA3MLrE4X1PBG7ZuF11NiObFifqOVfnXhnFpuDMZBOFHfw/E4JL5ZSSfDhaVTDOB1RQuWLaXaNPDxt6t2IYA3Pds02BLfF0YrYLLqbu0KM8BUTtSn7ZTif8jCa1tNaKkB7pWtgaXrIb89z+tbDQESF0787sOJdQuPTrpnPGGKLBQd4b7RKAiHgQpEB1y2oCk35isVADhn0YIBfKUamPm93pbfllbABQgmRlT57osjnuKdC2YxwD2YZw03+oLvytzvFRw2NQ4aQSxpXCXfaGDApttwDA0s+MTMhxVw/7pR67Rcv+G6PpjSffluc8FXgDtK0gBbXnfZ/MLIAO5XByPssOgoXETwdTTGrWBF86rzS/iWBbCpVqlowb6lVIcGPgN+iwCc4wKPTRrTFaYe8NmTwT/QtmaAPdeNociHVbBA11CaPOlEJyHVnQwDHJSpJZ2YXyefkOEDd9Wn765q4IaZX24+bEOmV+EfDX3acyE6BnlU2cxISCfL1MBCyvjtqtJ43WXyGz8SvwrM2Xw4hSGy4whbbkDSZBiqb0PFdY7hwoVHq7ArbG8JXbUGPj47Z35zC/GbRzJ2T7gH/M93XGHJXw2pF+AGGp9aF0on9jzMRHIk7cyAOFANgPnfqGR9/cTxoIh9EFgRbwDCDbwl8CqvIUwN3O1D9DmlgfFBvdg1F+CH9fFhaSE4Cuv6DZEFsLrlw330bOAa/QwlvBp4cXSl9P0uPgE4B05aXZVelHx93XCjXICfE/8XKnxH00EwHAUDGoG1CMGcpmZYFue3KMAmwic5XOEqNfDp5fb8tsiAziW+WNv4DtJW2UJjuJXU7x+bAEsRow1NXqPfw6Kddt/TvLXb3b70wHNtey6Z27o9sg8H+76vTmkrcEDzddtdXBAPCX3VGx+421PXpXxgKT14Lj3Zg0czF1AH/D66tzGR5lFJQteLxZsBSuiCS4HPBtYgoJNbXh+u/I5Xip4e5w0PqFalquFkVdlV1/Qd83WLMg3oKEoAxor9WTAZBRNsuQH1R+Fkupq48WIZj1bOaBVi+LUltMUVrkwDH18Av0UAznsN/3KzXeFHbnzHZMc/757vnmJZN8ImwLj/Q04wVdx2aGdJ0EnqHuVVItW+Up2JnhMx/cX3vQ6NrUci+R1BneTB3WZ4DABue2qtmE9Xj0onepkLKCj7VIZMsPd4NHevYQSxcLy44J+B/gbeoouBfL5ScHcAWDamVeH+nsSnmXrdndTrLi+D40Ub0Fi1Px4vJsFsCG1zFph6NZoQu4wvO7/lApyN8PGGrnBlGvj4220BIQWcU96fugHN6F5+CucZAojpLfyHaBnhVrEwr60XYLePygvowFvtNnaiiIUGuAtHQSDqg3dJScDAD70VgDvMHxTRm3W65AN3PPXF49OBJVq2T6TxAvoR8DA+CGWLQKFum041qv0B+1gkrw/Ygw3nPkXZ4y4VGtHDOnrqMNzWjHdhVfwZAObX3Xl93Y4sXwEvyWIeDAPF8Hw80vNkcefXdH6rATjbFf5zo+lI1QB8/BUCWIUAzn+VJ9YlvMJvjF1hOHSntpiWS2gxCQgbDnKtAAN5gG2sIECSPa/L1nWbejL2NcG9Lk2pF5r6DlTnZWhgaiXVZ9ucBcnw+koJsmJ08XSFC75xmAvADf2wXaknDrY930PCGithaMK8B+47SBKjiulUUtE931M49hXAHi0KdcSSeFWrosFBTzP7dZcGMCpggpQq9udBNAn0FOjI2PmlAd5VArz1dCSLCV2jAc3SYn7LMqK58d09VIAJKWkLISL7CLi22Ed1ANyJBSHYE1ohpfaa4i4y7juePpX2g9AF/p6lgemqJDJsZGJ5nqLR9fTpro+Kzot7HcMrl34XQaaHBV7B2sZnSE81bZ0LeDR6TvAjv5/oS/AKjH773Z4Pz0SiZvYcWJWep3B6pKzx1dErMF53uQqYJMKK/VGoTOmQJqesVi2Q81sBwPbpSHZXuAqAj88AwCIAt7a5zjJ6Epo6Yw8j3BXWWwgWhOsF2KU/W98FgPCAQyf5mpe+C9qSWEfGOnRPtgb2XWA0UwMDMLH6wlFwVJFxd1UD0+IIn58A7OmLiDmzl3tHjxlHgDWV+hIG2BF+7OIJWkUnXrKfPBUPAc5+3U45wiFodIIh9WoejqaLMXSdjNKJG+z8lg+wvZWdNbvSAnC9CpiFFXBeWf/rFVA49izEz5cnfgNmhKGtdNUI2wHmv1JJf78IsJKYwOn0+IAAPNjsNjUwrQNXZWvgXqONFNPpCaUN4x0AFtdHHD6AT9WnUyiqlEWw/xqAkxpcbVb0fekIYx8Yb8HrBuhhVQSYXzcdaJcIsHQk5nDgB3xixf5wughXY1f3EVctVA6wpSX0Gle4dICPT5u3RYQVcF6xZuVBIFo+Kn0bv74Bs6n0aLjC9fvArOcwrETgtFdQ5ANCn0shZAbY4C9TA+PZ4AQjggwwq2JeoNt4D2DPV//0w5oEd5hgwBIWQf8W7uzgql4sTYAdBBhXZYCN1w0HytPA8Aa+ZMGKfTCeqeiI/yQ4dlUfwPmzK6sA+FsBBYwW9LZXbsQNjkN7SAHMscYXzrn8CIC7MUPpuCbApgbWB9S5Ijai0GsBlhpgDx6vrQHu5wCYAuYgHdr6Mrve6YB1EifvxFpVSwkOLsWxHLkKsEQ6aVUlfUMDd8oGWIq71O8/Qid4PKbCwdTWESdu1Aew6QrbsytPKwD4shjAhgIuy4bmHvDPD9F9dL9ksbjCtQEMAMF3cA8tGhgPEEAizq+Bu6i2/W5+gAUCzFVUXeFkE0zBMWDcZ2dZxP2OTtYwACZcedUaNLCOQXMYejEO5zx2EL5HXLVQKcBnmSSfWqYjVV3McFMIYEMBl2lDsyv8aALMrjAjXOs+MMFoAGzRwHRNfg3Mdq3X3wpgIJD73IqMbrkdbQYLfCxfLQruAVrYvS5Z2J7IABi6Y9GqVWtgcIENF2o4UYrYUrVQPsDH4d9nJzlc4VpGqxyftW4LSKuAA81/qtb5RgbA9brCJsAUsuJYr7qzWg1MaVjfe71tNbDnJ7L6kojgfsoRwC0rNrXdGHagKUnFMKEhz4xFVKuBpYije+KVP6NlFYkb9skM//7vGWC68ZbSP4q2la3eBW4VuFZsCg+/3RoSLTmxox6AydSkW4KDWI5FAxtBrJwaGONl6preFkEspDN2hZACZLX0yY8F7QnBuYJuefpRiBwJgWo6kA5i4ZNquILEdSrTwLwLvDQkspTsV6WB//OfsyBY4c5SaFh5Y/eTogAXuLa3hQlliuEK1wGwp8sJhbmNtD4KTUgByTk1MO5YdaGmAbk1tpGsUWiCLsaBrywyhilmEKvCZ0YA+7Bu/7VUUqoV4z694WRuIwm1KKxatQZ+SvKg+ZOdX6NqoWKAz/7+r5rM8BeDZ8uurHK0CgN80TG4qg3g1sYlowbAtUazTIB9qmWQmi5IXyCS/TUa2Mi1yKGBiRVgpkencyJHo2sHmPMvvS4ON11JhVamMS2HFxOGffXZxfMUnp7O5Vp19CW/LdCqjeo1sPHrt1QtVAAw8xfiaJXTPy2t7Hg6kkUDfzDALTCgC8iGAEvxmA1wfYkdnCWZuIUe66Se4xBSUop3NTCanXC5391GAzu4kaRZ9DFw7MUefLMA7OPuEZVdsGZF95YKEWLMfiQVS5cnP0gwnz1HkMkvEoB7MT9PIRsQp27HouIoNAK86gNX7vyabWWZyT+Cv9VolY3q99XXHz9q0MDtLeGlJOh2DRpYGIkc9UazGGAqIaCKn5T76HlJf0nxrgYGXLmYYRsNrDhiXHXlQLttBdih6yGPg7ahWURf98TqJ+vS6+F6KOF1sWChRxE7zl/pey68TLoPt4FFpRqYg1gshvPrODUAnI4wn/319cem9fvHJuWnuwBw67aV6gTd3hrhvty4nVkGwHUmdnBbWerCqnvRKZTwJ53NRAB3DA3MWYcdLifMqgdeo4FZgxNbgClyZpQTGgDDiiJhkip7V8sJoXwQhMPMaC6joc/qWF1JLfwYYHrLoZt8Hz5NUwN3ytPA8YPh/xpVC1UDbLbF+eMHRpgt9fuZ8vWjg1gtJeYw7/aWDLdkgbdgjkVWH81igAEDkL5GwfV0mwqlED0XT4K74Q9ZZzjoA0IX9sGlnQwfWAkCjItnaWAJ1X90OrcR8HqwFC+AANM5jl5RcM0RFQs5aenpcWXfuTemJDufqg6FD/Yx8d2jaocO2+x+l27r+xSvxuvGA2UBbLpQkRLe+a0HYCPCfMLJVvYtpd2JQjO8LPp4e0uCm5vP6Mp0gimvznSFq9HCotFto+AsElcfFF63rWtxJZ+EKKpvwLQ+IDDxuA2o+HCAAIZbqLdx3Ya+akUDS329wqdNp5N1q/DsN3ABL72APuLoA/ywwHffd40UDtLLYBUTaFwnkWRK67Y5PQKx0e/ye4inXAl9n/v6NPkV8Osuux+Wxped37oAfqNWVabGP612dE0aOIfLy2I0km2DVAhwthMcLQYL9bUeVzj2eiie50v3NcnE72Eyku8I/GV7Pa+HsVv1DTinA9pAxb7oMS4CaCWN0gVfRY3imDNcEM5ugCrtgWhV6fX6XpwsIEUDr5N6AYiG04pkvXj4DNX5xv8prALiMdls1XPfW7yy4fLP+ID0YtKrSno8fgLJgbIAjh+iKK1+2fmtC+B35u8DwhY7ugYN3MoPL/PLAG+D8LXcqqCble9gPhrO+A5O7HiqCGHhwj8l6YMKFiWOy0TTzK+V7yI5tQHoSze5C24IuopP4hupBXEUkYAH56UaDeHCodR1eLrQN0R6RdwDdt/C5MrYV3fx+5GuUmCehQsTCaUrUj83JF/Lq5qPx69byhJbUpIsceeXlq4R4CzL+HSdHc3A16CBWzmsZsOANhHOFZNuXcuc6ews3J0wCIcLIpgRrmw+S/ZUL9sMfpm6SefxIpnLGUeM8cDGWXzEPh7Ufk+y55t+FFeIFZDE6rUZT5sPlNwUOiIxdn7rAtjS1d3iClesgZut9xUv0Jst5lXt3Fq4CQBvrYIjGMQ+Ho+DIb0vryR2sCtcvez2UNQ8z1AaUfCdECb45QHxNZzfWgHO7oNld4Wr1sDNpsVqtvJLBOdl+AYAzhvGYnp1O+/heDyZRiBphJfKFZa/Alg7JaLA+KXKCZY/n19enn9a+9VVXA+cVbRg31KqWAPftCzw2gxoVsF5EG4ywLlVMKhcKAqF0XSjYJQ4Rym+qcZhNwcd7qwkidfOjgnPd5KO4fzWD7CZbEUtoe2ucKUa+LppcXltCpgRho8NGW7dAMA5G4vy3tFA4UoAT8JwMB1MJgN11Kxx2CvhPOL6OrFqh8XAt16A7dORLK5wZRr4pmVxeS38mm7wJgg38wIcQ0UDT8cZLqaLEACOZsNBNB+Pw8kivSe8R3gLgPu9PuSo7GUNwIZazTso+Gs1ADctitdiQJsIM8jrFDAAnHM8bHo6jkI3HMNknOkSptONg/EcCWaAKbFj7wobYhvBv//PyjVahWSz6Ugn1Wng6yvispACZis6ZUqv4RcAzrkZCAQjwIMwCKPlCDVwRD3ORmEw5x2laAEMY2LH3hXeXIQQO21A1y4MsLVoYcMtpcoAvjwvyi8T/N3Uw1nS3AZg+cIET8LRQulhDfBQATyYIM5094wSPHRih9wjvJfCANvr9/9BCK+1o79WBfDldVEDmlXw97YhWfwSwLk3A3m7aDaDKXXBfDpYIMDhEmZMohFNfYNnADMnduwJ/sziuuaRoyPXdWUhgNdkV57WN1qFAQaCi/PLpQ2pDxSTXwY4J8HPDxrh6XQZRSPF6Wi+AIBH99M5OsakoHHg82tix94V/rziukcHB65YOXT05cuXgyNXljRahRG2ZFdWCXAOglsWgN+EskAMfvMCzFb03SMRHEXaFVZaOJoogJdgUQ8J4GU0H4fp7Pd75QrvCf6UovD9cnj45chN5YAeHB6qY4dHeQG2T0c6NraUahitogHOQfCtTdqG6ANpfgngbbbznyCnbpn4uiEkUw5mQaAAnqivGuDFbDjhLSUQdIX3BH8+ka6C9YvCVSlcJlodgWMHWwBsT7Zav6VUAcBnNwAwynkhfllMC5qFGknfMMBiu5w6SoulcPQ8DOfRYhyEGIsOeZ+Yd4WjiHeF4z3Bn09coBXlwEU5+gJHEOBqRqvwoGA4Ukdjd9TAJFc3RQxolrfql1EGfgsAjEoYp/UrAVSj2WyxXEL8CkNZCC2yDNZ0BOhOFvANlfCe4M8nBDARfHDw5YDwJYDd3G1lz3JOR6qloL91DQAzwXZ+8yPMkS2wn1ma2ya2i5hdYYhmYdBqGM0Z4MSappKH0SzSfZReYrEn+JNJCuBDlC+v4spSRquwc5uxK1xDQf/FLQDMcl7UgDbN6DTKrbQB3WxJZ2uEcebZPXIJoM6DcAjFSeqm1sAA8GC2UAAH4UDdJoL3fvBnkyMgNlsOXbnFaBUDO0t2ZS1tZdGEZrm6LqCAWYzdYKK5BQCzNG8b2+e0C+eJXWGIWo3GwRi2hdURBngxCucLnXC5JIKf9xvCn0pkYx3AB67YYrTKX/TTJtmV/xS1NHZvMsBsRxfjl3Uwo0vqdxXgFgNczBUmgufhmEqDWQPD12C+CGmULNUoRU97I/pTiQsh52wbmvaCqfWP+th8tMrfBJ49u7Ku0SqtBGCW85sCBjTr4JQNDcVOBsBNbCtbBGF0hTmaNZmPhgrkyYIBnoNSnjDASPDjPpD1meSI+UVwzdtqfzgR1wYwZWoEerSKvX7/BAoNaxmt0r5tAsAmwsUUMEeymF8T4FYRgDma9fwazYoWWKc0WiQAjxTA4YgBRrl/3qvg316k3jDCLSNG9uBAs3pwoA6klTKZ02sATne2OoPRKrb6fQb+tJbG7q0bYNaGcP5R/Gl6TYCVNu8VRUlKwYkdUZTEn+dLAnipAA4H8zEDjCr4YW9E/+4iIXkSRHMK3xS8rnCkbDQouZIJZjmwj1YhgdEq9vp91sK1NHZvXmbJ1fXN1gY0lzYwvgbALewLXVQkJXYsSQtTNCtcsAYO5tMZA0xy/7IH+HcXnSqpvjK/rnZy9TdAWAuf48r3ADbV6vGPHK3s6mnsfnWZjTAzzAo4ryTgwgd8Z34NgEuKZk0Ho3n0qoGH03QQi+JY+83g31xck82DIyHfaGkmmBlfo4HNZKt/4SbRv6yucE2N3UkFWxjOzS/Q2jJFA9y0NHbPn9jBBFOFfwBBLKxuYIBJor0X/JuLPDo02MyoWpCK4EMrvwxwvpbQ7ArXo4ERTfaCMxk+B+TyDh8FVhNsTYCpsfuR2XG8WGJHhIkdlAsNAA/BhI7CwAD4YZ/N8XuLa3i4xK8pRDAzLixR6AKt7Opp7H51uV6AwXzwXqvPVXgTgK9b1NidIoPGsJKiiR34ORmNKJRlAIwE78NYv7lQ9JkNaJumJsYtABdoZVe5BiZ9aAEYlHCTYHyHW25Ki/CiZJvQ5/SAN9cYadAQC1miK7ycLiYRZlEuEhN6b0N/HpEC9n+tGc8yOenwKMdoFUZYNbgiV9hiR1evgbVCtAJMVDZR3oCJcqPZZcHz6AsDfH6VNHZ/3YojiJ2yEjt0yf88GA8n4zcAP+xN6N9dJESZbVW/kGZpYVwIBhikgCtcQ2P3axvAJAwoy5p7MjTw1VWLFDABzBB/QYZlKYkd3LFjPA4TgPdx6M8krx7u+wBLG8DiSIkEgC2t7Gx29Em1GjiJUJ3bAM4vCba8k9S8uqQHu0kAZtEMi0KusNGxYxTOQwaYCf65B/j3Fw3w4VHjfcjXAyxdsA2FBpgRzNpSAoQ/brTKTULw1UXpABO7LMxvUwOcwXARd1hKY1d4AvMbTIDv9gD//sIaeAMTetUHluklDo8Q4Pwtofn0OkarXF+1SAdflA4wS5P55cbu7xR5gTdc2BXmDOlhiBp4H8X6XCK589UGG8a8iwQJ1I5kBYzXZ4xWea9+/8NGq1xfXt1qP/iifIAZX+Vlt5hfAJj/A001XAhh8dp+Fj5n88EqwPtsyt9foPWkrWxfJKegniXHGfUHqgE3WeHIBNi0jE9Sg4JPLAhXpYEVoETwDRBcHsDNVBblzdXFFfOLAPN/oCmI8PaQrbjCEdYI7wH+VCKJPmLTqoBJ0ZLOpb89F2uWSA4AYKtze7pZPPq0wsbuRHDr8uKiXA3M3i8/RNMGMDURFKUkdiiK9wB/NlnJ5HCttf7kuUl96FCxmy6FMAC2usJ/rEG4sr7QSDDJOSNcHGCOQKtFyf1lfk0f2BRsxl1AIJoFBDO/+4KkTyPMLytXC794mpRaKWt2qaaJAbYpYZ6OtG5LqSqAidEWEda8ugCEy9PAN4Dv9S3zq+XnGgXMzbgLRbPIFQaA90GsTyQJv/x35Ip3fWQWGNTAG0u0wIES1sCZUBoIr3GFOfZVZWN3dFHJEyaEi/vAmLqhVqOlKYMyDbANYbdwjQMRvN8H/kQCbJrGnJArpUjpXjuHhCuUDLMGxtTAI+zqcbTxaBW7K1yhBibhmqNrRLi4Bm5eI768biuduWUBGOXILSGxI9pnYn0ekQ3QwIcgK8YcdOQg5Qv40n2I7gHKkZQSLoRjeDZ15XE5E2szhA1XuMbG7iQ3rCkVwiBFAL6+AnovCV+2n1mabOnYlXDxxI59DOu3F8l7wNkpQpCriz2xVrrauVwPd4THAV/JYWhFNgOcLWaJg5FdWXdj97SyvESGtwP4+vwKLk/ja/aFboEZY5cDV5ZU40CjzvatZX8/cVc6SwJ+Wg5SCGNQir6zHDlSSoenJum/N1TRh299YGO0So7syhoau7NgcRJJEzQoQXyVD16iFxdjMftCbwjwIWW6FU/sWEYo+xDWbyeNI6TzgA9IEEcKLO63/mW5Xw7gH/ML+KITTBvCqckM/w0AupxbSvU3docSf1bDmmFszHF9bWcXNK/W3OfNlTp/A+BbG8Bmv4SiiR0oD/vxKr++AFciI2/SNexpCcp4nXHX0Fej0CGBQewDV0gtK6NV/sPqeLPsyh/1NnY3EWaGWREDxopjk2R1QJGr9C6feXVOazC+zbeN3e3scohfFO/Y8fz48PDweCf3CvgXF+gau5JgJd3XnaBXwepUKUWGmjBqhY8O+AjoXwh5OfK90Sp//XX2v/bOrrltWwnDBJYQU1eeyBIFJTPnyu2Jrzvn2qOZcv//bzoGFlqBa4kgI1J16n1sx7Ij9aZ6svh8d8w4Ok2F7xDs/lUEuwuFCd+SxAQ9g3l7vCVz2fJ9/mqZC018I4EXN5inwt3fx+MRO62/vzpxvJwbjO7CzSNXg43T4kxg4D/yq4bYnQfarjF5Cp5srfK/2Frl8ffC1UHujkQCLx3sfiHSTkpIC8hcYSW5uy2rL/2Vwe5+gsDgsLpd4U71/fUhXXsGW5Bnrrq0leQQ8wpsAzVkAnMUPKSrS1a813qtVX7/6zG0Vnl5Xo/cUrpHBb4eiLV576L3+7BCFXjij8Au5s8eBnKh6Yv9FQKXAFfdCqK2Jvw3YHpRVngOgga+edSx5NyfkLZ3A+5UilngKj0LYgG25kJrFZ7cxtYqvMJcioRe/5PB7qKeCi99YO/3KSEr9iMUHAQi2L2tBaW1aEWpgq9scFonhvMU1phg9Mnf2lTIj63BSFqahnzOzAI7KsBC4Fy2x78eXyZGQi8f7H4QBguHDwPdU3JxZbgsh9ox/uzvYbTA/D9DUXpHJa3tz2pTxKmF8yoVmlPkWoVZ86T4XIP9cTmYKHAjBRY5WL+9jLy/f8dgd78dYLcTg+MSlAzdykQOFtinXOhJgO0q5XPSdSijcAiQx54DLDg4TIvWNcvKCvfi15qCwKKsjoqyu1cF9p7uLwyzp4Hy6Fh3QoTKymD3aYDTKeznxDhnRLUcQga2m/B6uf7R+wXieQhdW7wosLy/Pz4Sevlgd5oGl2NlPWe7HwZi3WUutOzMsPOcCz0NHUR/TowFqLli0opxAdFxEDFoPBDA4+p6YBGLmBJld9fWKq2PCpYFzrLdJXsSty3nQu93LV1ZnC4wWC3Bnw+MwpLCJuoLYsycD6ihLzA5j0FRa811fQHSLA0tgLsuMPffDwr/MX4qvHCsLEWtlwRmWilqW86FTvh2lxozkMDTAKMGfzp4xAxgbU9femQjzgZIYnkbFamlN1w2GM35NXD5IAchx9HlKDsW/j7B7n6RYHff2wj22x3fC/4JgW2lfDo6C2dj+SEArTlTi8uu68w5i05cBI4XCAfCdeiZfJSS05yEwDdOhReNld0ng+fOhfZiCryP/nKwu5ZgZVLEZF58qZ0WNogVgWms7GzviTGibnAZ1NnI2eAaqL8AYoXVSgg8/v6+VHjJWFnPBs9cgXP8JvOXBNaFaGWawRx5Y6JfqfKaWIhNFaWTDpfePZ0JOMvXgW0NNWXqOLpOKJgcZbdeugJz4voiwe7+VH6fWvaXY2UnAVYXoj8jhiwkaEU62JsGzfE2rz01m46FOE56J6yBImLDF/rp1QBpqH5B4MlRduv1whU4GkzdVZ5mnwNzMLRnf5PAOoZWxoCu52+otGmwfI7ZoG82yh0VrgV2+CIpouMIvLjsRTh3UeDMv4eRU+ElKzBFUnIi5bxzYE+jZ06mPHAutI6hlXGYvPwi6ctVMgPSdhMfeWagHM2ELo/AM0RnWGDJevpUeL1kKuXJL4qFnqsCc677/hvXXxZY16GVaZ2O6uAh0tYt7yK5iLU2CZjaeoQnCX+HMZBNsnkO/MfzNYXLUXZyKrxeNBfai1joeQT2fsPB0Owv50LraSzlGhg+A5m/sfzyaY5gWXAVqSgbx1Nf6jLoxN3fUR0NacuJvtFPP54fLyGj7ILBhanwssHuoUgSG1J4BoH9vh8M7Xu50LqRpFwllsBAl/UBDbIaC5DWskjdBI2bgeOIMZs708/DGDJXArWFHxeLcDnKThbh5ebAxIZjoSnL7laBY647jZ7ZXyHwVFxTKZ8AJGttTSNjwiHiqaxa16FQUhTrquoZXOGoAmx5E4qxtuZx9I1bSgvmQstY6M32xmB3ytHK9Q0F+cyhhnoyoAJ/DtACNxjLVjCjv5RUipcmy3nuFRnMrzYxVMkEqou4lOqOXUoJ4BvGaJwdN45+/u+fhS2lJQXmWGhuzhAhgW/Kdb8c7K4CKwMF+OICpoOBNSn2154zd7gkW+dcOjSN1UVM0DcNxg1fQo8R02iK42hSeC3G0fcPdiflZLL7rm2nyitz3WWwuwqsFHd+CXYWneg+e7n+us6mITcf4+LeDAGDhe4sSXyoTRbj0a3KCj+ct5TYz7sGu7PCMtm9HO3ecqz7xVz3vsCt/6YCKwMYa+URgFRiuaIKD/kvHbJ/6a7+9NME6EA8EbFpVl8fx02F/3xT+E6tVTgXWirM+A2nyaZA6E1Md2c2eao7Fey9l/F2ogIfQi60CqwMJrjnvlaIaKHfQLpju4S/aQ4dXhRdnp7OZDiIh+mwqb58HbmlFKbCL/e40P89THZLye6HPfnJ5Iemn/K/yKIsZfUVwe5eBVbKCifAYKqKln8JwIah8Dde881e1cM6HBnkUwmwasyoLaU1KbxYaxUmVOBvfltOdv8eot15hCzgpa7grkBmYhGHILCepVSuwFpmBZiqKriGop15KhzbmDme/yKPgbOXZThawC6CDV78bbMatZr1cpfWKo/PqyDZdlSy+/dTtnsbR8y7YHn4DGPq1l9MnyV5mTzY/T9trQc5lAIm30IyUUkMXltW2MYDj9JfDgIw2IuxtDYIP51pU2HiecHWKpwJUuOBMiknJbszh8xtSeYuP/TsLwe7azq0cg08uQdgUiUlQ5E7knHPX+EvlWAWP6/Xt9Jhg1/GKPywcGuVlx+1BfR0dvI6G6qt04iutoccL4Ld9TKDUoIFtkg7O/wveGNIYUb6ey7YleFq3WA1DyPH0Q8LrkKvf0AYh+D+UEyVpWahIzlEeQkWt58LnYLddQ1LKcDT19RjodfF27jhd4cJwtsu/6/MNzkfmArfpbXK+vkPW0MUmHTaDrPxY6LdD9yTgWB7fSZw29K6dqtTYOUqiF0Mk5RTYHcuoojmwlaxtN/Q7tPc4zcct6W0UAV+ePlxatGGKVW2LedCc7Y7RbvzZ3IzqDsiF7rdHTjYXSN1lEvg6WogZLUVnRA4REYOTLCwSQLTAx6Iz6iw+VIYR89fgXnyG/0lgf2I1gyb9xnQnj/o1+3FRA6RLHsK0DtoqJ1yFeS4jUGBeXbLAnfDFbim9g5zgYWp8AIVmCe/UBOAoVCSwUWBJW38GkDW35DNkSJsNVZWuQrmXsohtOxUmAHOvBdY9DOMYbQ441T46yWFl2ut8pAmv2eB2eDt04LB7vSoPfmrwe7KAFYKfF7EwqEngnUmL8/0/M5CPzTLGbzXVHi2Ciwnv7nAbYpr3j3NL3CO35G/lGvX6ghaGb4MzO9V9lAcBHB5+rM8IG2Al697AMzXqrZ8unLWCvySRs9S4O2GDV6kM4OnT47devsrbW6mDM2B36hzTNIaHOb+ihQczr3LD3I0DhYcypVPV85WgdfPrK8QmOOw2qen2SuwP5Xfp1PwJedCawFWrmBSJmQWpYRRRJtpzqcprXP9A9KYRtB1OsElO6I11ZyUTlfOUIHl5FcKzKHrFAs9m8BcgNvt0+7bbcHuOgP+TOAbDXb5Fm78AQxKfw3GZxvbuyvs+CBWbi9AoRQsc7rylgrMW0eXhIFVEpijq3Zk8KyLWH6/feLU2p/MhYZal6A/H+fqeb5O2L33N+FsDTwVDt/Sq3hwHXBvdNW8YHFL6aYKzFtHAwKTwVyE55sDk77nvgz+nAutA2ilAJq8syCVYBeEEf6KA9J5pTW8C0ytSENlX2TEMHy6cl0QeOrombUIAotQ2c12zmD3loOh2d/IEXQFSxndHRgMnm7pO8RO+psfkAbggx15PJ5FXPryVFWYCv/UEHr9kukrALBtEJjY9WOhZxDY+34w9OF88MOvQAfQSgE0Nt9JQhfldBf9lQekwZLz9zsFhNjg0OlKUYFvmfwy8EoCE76fR3mjwJuNDIb2+zMOpvirA+hPibNZe98Kq4oMtoMdj1z2b76x5QJ8v9OVogLfMPllYMUC8zCaq3CABZ6eDB1fvb+SC93WoBNgZRBqT8ZQznP4FQz4y9cMDc2ac/+XB5FOV94mcHnyy4ClYHfGZ0l2W3Z4Mz3W/UKuey7wEfQMpTIAGiOHjtSxbKDjIPX2Bs676xyIg9KLgx02zZevtwvM5yaHATjmAstk9w0nu+827Rh3Sd5AisVjfYXADvQWoVIsvzkQDUaXArGAGvXnGG5cKPxl4ZcHq45OV94mMJ+bLAFOCMyR7DIVepuy3dt9+87bYO6GsqGlvaSvFPg4xV9dwPp0UBwWAf2lEFqm4vaidEMwdj3iK8Q2jpdlBQd7n5kY8unKGwR+fGZ9yyV4SwiFGb+PVZWgKi3YkrkEJfAIfaXADtRfpbSBJJvwUyxdSqWM1NbaU39vAEheG8wWsMXLmeWnwgWBb5v8MuDa7UCyO0tMY+NBRI6lyHXPBT6qv8owaLg9II+m+e2A5tyPH07UrC9ifwQO9z2PK9s4lAWePvllAAC3xWR3wvuWhsnSZBpd74O7AhmpM/EcNKi/nxdnrUtnp9z7KmqctVLQ+IKsiT9ha4KOcZVY7qKhFPjGyS8DNY2LS2WYoei6fRs+KCfrcPl5jBcCr9RfpUx0l2Rw4tY+VrHK8r3D8N0le7Ezva5KhlwHuPd5PjGOlgLfOnpmwG2JcncG5rt8LAm2sr0iF/oIegNJmTqgZgAsLUBjg1VnEmQ7iqZowd/we5LYVvcF5ZZSWWA6NzkRWG0H2NHQuIws0XwbifETz3C4SlE4X4MBqCncKgxUSVt6FD0FyAfcvaDa6u7w6cqywHxucioAZPAAwcVJ8rZZIocQ+NWCLl8pP3OvUDhM20ime8MEXKy9cDXrHav7w6crywLzucnpFA3e0Fx3SOMDuUvyEuxtvgrdqr/KVNAB11QGgsW1PVEDQKEV8P3h7MoRAovJ71w1mAVuRbg74wM9cwdaq5TrL4991F/lfQA0iBoLkL593FP0NBUuCPzyg/RdxuDN+6NX/JD+GJcLHfzV1WdlKg74jWHHbJHCRyrBvKXEAj+spcDr1GzhFoNdQeDpZOWXHvhjDePKb6f+KnIJmvLqjCs4DLUlGT7SRbbYDi1pu5ZxlQ90bvI2AOxqZoHlNpJHqMeg5VcRM+DsjYGYnXKWAJ3moGd8nBLMU+F4q59YzzH5FZOJ1RK50Gxx60aVX6uzX0XgLORvjMZArizk9x3oMEfVpdDoj1KCuY3Dj69CYDo3OQ/gVrNXYF6BPloYNXrW8qtIsHPWGZRZd3QjyVlnez0cOI0nmP1B7qJyFebzlWuxdTQHVITnH0L7WH6hLgE6elYugz0PDfvaNRiw/IvMFhf8/lCrKYiUXkkC8+R3TsCuZl3E8iSxqUfqq/4qZVhgg0lvjtnp9Q/+SPrKfeH1b3xuck4AwK3m7o30t4URxd8anfwqY0ADYokZXSYw80HLAaVXruO5yfmpa1J4ts4MHi3AiLmv6qtMqMByhdnC6ezkL0A4X/nFLclqNU8F9q2pAYr2WqeDZ2U0aGjXxGB/rxh+mfzSMBVuMHzM+0lf4Zshh28Mdj86UH2V2eniVWCH8rSW/YUWQRHnqOSJdC+Lvqq0Wx7q8A0Ct8eVHWOvjp2VySBi1ckYS2NMpUf4TiCicZYcnixw+4ouhoxBwV4tvspcoL6TBLEM2yDx6yR5jytXDw6dgezV4qsoy4J0dty61fG1bUe4iyd54bq8AGqvotwHbILDUTq3wjePX1thcvvG6zGoG54m5ZUARX/qyFlR7gJWVYPGsJ22tnGfyaTPmKpdQ6QuyAsUp/9Rd9gV5V9LSvFMUdqSmuy+AGTpJ0Fe1LUGRfkn4HhOGlADiXlRXACReRLdNbpQqCh3R0rcGUrUJlFJUPktkgVud+quonwQMGls3Bs2UNuaCT+Rt8Fcg5UOmhXlA4LYRDU7I6GCi42aqyi/BBhJxVn3dxVFURRFURRFURRFURRFURRFURRFURRFURRFURRFURRFURRFURRFURRFURRFURRFURRFURRFURRFURRFURRFURTlX8f/ARebs5mAQgQaAAAAAElFTkSuQmCC;" vertex="1" parent="1">
                    <mxGeometry x="380" y="50" width="305.45" height="140" as="geometry"/>
                </mxCell>
                <mxCell id="12" value="&lt;div&gt;&lt;font color=&quot;#000000&quot;&gt;16 03 01 02 00 01 00 01 FC 03 03 9D B1 34 8A 76 ...&lt;/font&gt;&lt;/div&gt;&lt;div&gt;&lt;font color=&quot;#000000&quot;&gt;4F 9A 56 11 C4 20 3F 82 A7 88 D5 8C 12 B4 9A E0 ...&lt;/font&gt;&lt;/div&gt;" style="text;strokeColor=none;align=center;fillColor=none;html=1;verticalAlign=middle;whiteSpace=wrap;rounded=0;" vertex="1" parent="1">
                    <mxGeometry x="190" y="680" width="330" height="20" as="geometry"/>
                </mxCell>
                <mxCell id="13" value="&lt;div&gt;&lt;font color=&quot;#000000&quot;&gt;GET /index.html HTTP/1.1&lt;/font&gt;&lt;/div&gt;&lt;div&gt;&lt;font color=&quot;#000000&quot;&gt;Host: example.com&lt;/font&gt;&lt;/div&gt;&lt;div&gt;&lt;font color=&quot;#000000&quot;&gt;User-Agent: curl/7.81.0&lt;/font&gt;&lt;/div&gt;&lt;div&gt;&lt;font color=&quot;#000000&quot;&gt;Accept: */*&lt;/font&gt;&lt;/div&gt;&lt;div&gt;&lt;font color=&quot;#000000&quot;&gt;&lt;br&gt;&lt;/font&gt;&lt;/div&gt;&lt;div&gt;&lt;font color=&quot;#000000&quot;&gt;HTTP/1.1 200 OK&lt;/font&gt;&lt;/div&gt;&lt;div&gt;&lt;font color=&quot;#000000&quot;&gt;Content-Type: text/html&lt;/font&gt;&lt;/div&gt;&lt;div&gt;&lt;font color=&quot;#000000&quot;&gt;&lt;br&gt;&lt;/font&gt;&lt;/div&gt;&lt;div&gt;&lt;font color=&quot;#000000&quot;&gt;&amp;lt;html&amp;gt;&lt;/font&gt;&lt;/div&gt;&lt;div&gt;&lt;font color=&quot;#000000&quot;&gt;&amp;nbsp; &amp;lt;body&amp;gt;Hello world&amp;lt;/body&amp;gt;&lt;/font&gt;&lt;/div&gt;&lt;div&gt;&lt;font color=&quot;#000000&quot;&gt;&amp;lt;/html&amp;gt;&lt;/font&gt;&lt;/div&gt;&lt;div&gt;&lt;br&gt;&lt;/div&gt;" style="text;strokeColor=none;align=left;fillColor=none;html=1;verticalAlign=middle;whiteSpace=wrap;rounded=0;" vertex="1" parent="1">
                    <mxGeometry x="580" y="595" width="150" height="190" as="geometry"/>
                </mxCell>
                <mxCell id="14" value="" style="shape=image;verticalLabelPosition=bottom;labelBackgroundColor=default;verticalAlign=top;aspect=fixed;imageAspect=0;image=data:image/gif,R0lGODlhIAOQAff/AP4hIS+NRvzUYpbJrLKysvz9/L7azbrJyvr8+83i2crh1nOM/6jdx2uvhwIgK/urq4moiWd7hJjNdoa/rPrNzOLu6Nnp4fyJiKvWj/4yMkWvof8AAKCys/1wb/b6+GKcqmy5OoWanLbWyJijqSJbb7S9wtTm3vT49niKkSdQdMLc0NbW1kacoMTd0hZAXJmZma63u7PVxydHWI+v/8zS0+Xw6uz08Pf39/bDWJOmqNLl3P5IR97s5fv9/PH39AQwRkWJmrjT2ODt51GVpTBmcEJmdO3x8FZrdmqclUePoNfd3r3fqc3Y4uHl5q+3fIyMjPno5/n7+tLEcLnYy2OqdETEob/bz9zr5Orz7pay+P/UXoqgoJyorPnNXjt9j6SkpImXnvL39Y6zu63O1cTKzn6ypfn8+h1UaOjr6+fx7K2+vliWmv///9Dk2ubLanyUnoPDWV6drMPN0dXqyv8QEEFbaGqkso+ipsTV0t7h4cTExPD285zJxejy7bjXyYauuD+Dle/18trb22+IlS9UZe/28hM+UkqKeFWiaFJvfeHw2pas83Wnntbo4HJ4euPn6HeptaOtsVSFhVauHAw4TAs2TGahr6vBxsff1Hi+S5a1vNvq48nKy+z99kR2d+z16UCWVbHUumWAjc/Q0Ozu70qoDEyRn5e6wvH3+PT09Pj7+cjg1aa66w86T8fCrsrlu73bxPL4856wguL07p2ttdHX2f/y8qTNrlacgVuJlL+8d6Gxudvp7Njq3KbSue/y89nh4tDU1fPz9AcySFqZqNTl6MzW2aewtXiHjyBHdGKUj+//+ICxvfr6+vz9/SNMXa3Bvevz8tvt0gknOE6qEhWHYP3+/f3+/v7//v7+/v99Sl5w8v/3zOX178DHybzZzO318eny7trr5ujx7evw7/T19uvz7+v07w04UrnK7MeWpLmcu4yr/n2X+s3i4fn7/P/+/uj587HQ1/7//+vz9fjIW1aXpv/7+/X3+O3174Wi/NLT0+719Pj4+GGzLP///yH/C05FVFNDQVBFMi4wAwEAAAAh/wtYTVAgRGF0YVhNUDw/eHBhY2tldCBiZWdpbj0i77u/IiBpZD0iVzVNME1wQ2VoaUh6cmVTek5UY3prYzlkIj8+IDx4OnhtcG1ldGEgeG1sbnM6eD0iYWRvYmU6bnM6bWV0YS8iIHg6eG1wdGs9IkFkb2JlIFhNUCBDb3JlIDkuMS1jMDAxIDc5LjE0NjI4OTk3NzcsIDIwMjMvMDYvMjUtMjM6NTc6MTQgICAgICAgICI+IDxyZGY6UkRGIHhtbG5zOnJkZj0iaHR0cDovL3d3dy53My5vcmcvMTk5OS8wMi8yMi1yZGYtc3ludGF4LW5zIyI+IDxyZGY6RGVzY3JpcHRpb24gcmRmOmFib3V0PSIiIHhtbG5zOnhtcE1NPSJodHRwOi8vbnMuYWRvYmUuY29tL3hhcC8xLjAvbW0vIiB4bWxuczpzdFJlZj0iaHR0cDovL25zLmFkb2JlLmNvbS94YXAvMS4wL3NUeXBlL1Jlc291cmNlUmVmIyIgeG1sbnM6eG1wPSJodHRwOi8vbnMuYWRvYmUuY29tL3hhcC8xLjAvIiB4bXBNTTpPcmlnaW5hbERvY3VtZW50SUQ9InhtcC5kaWQ6NTdjODVjMzktN2Q5OC0yNDQxLWExNzYtNzkyMjdhZDE5OWQzIiB4bXBNTTpEb2N1bWVudElEPSJ4bXAuZGlkOkU3ODI5MTlEQUJBNjExRUVBMkI2OTJCRUJEQzA2QzE1IiB4bXBNTTpJbnN0YW5jZUlEPSJ4bXAuaWlkOkU3ODI5MTlDQUJBNjExRUVBMkI2OTJCRUJEQzA2QzE1IiB4bXA6Q3JlYXRvclRvb2w9IkFkb2JlIFBob3Rvc2hvcCAyNS4zIChXaW5kb3dzKSI+IDx4bXBNTTpEZXJpdmVkRnJvbSBzdFJlZjppbnN0YW5jZUlEPSJ4bXAuaWlkOjA1N2NkNTM2LTE3ZTItOTA0MS1hYjZjLTFiMDYzMTk2M2RiOCIgc3RSZWY6ZG9jdW1lbnRJRD0ieG1wLmRpZDo1N2M4NWMzOS03ZDk4LTI0NDEtYTE3Ni03OTIyN2FkMTk5ZDMiLz4gPC9yZGY6RGVzY3JpcHRpb24+IDwvcmRmOlJERj4gPC94OnhtcG1ldGE+IDw/eHBhY2tldCBlbmQ9InIiPz4B//79/Pv6+fj39vX08/Lx8O/u7ezr6uno5+bl5OPi4eDf3t3c29rZ2NfW1dTT0tHQz87NzMvKycjHxsXEw8LBwL++vby7urm4t7a1tLOysbCvrq2sq6qpqKempaSjoqGgn56dnJuamZiXlpWUk5KRkI+OjYyLiomIh4aFhIOCgYB/fn18e3p5eHd2dXRzcnFwb25tbGtqaWhnZmVkY2JhYF9eXVxbWllYV1ZVVFNSUVBPTk1MS0pJSEdGRURDQkFAPz49PDs6OTg3NjU0MzIxMC8uLSwrKikoJyYlJCMiISAfHh0cGxoZGBcWFRQTEhEQDw4NDAsKCQgHBgUEAwIBAAAh+QQFBQD/ACwAAAAAIAOQAQAI/wDZCBxIsKDBgwgTKlzIsKHDhxAjSpxIsaLFixgzatzIsaPHjyBDihxJsqTJkyhTqlzJsqXLlzBjypxJs6bNmzhz6tzJs6fPn0CDCh1KtKjRo0iTKl3KtKnTp1CjSp1KtarVq1izat3KtavXr2DDih1LtqzZs2jTql3Ltq3bt3Djyp1Lt67du3jz6t3Lt6/fv4ADCx5MuLDhw4gTK17MuLHjx5AjS55MubLly5gza97MubPnz6BDix5NurTp06hTq17NurXr17Bjy55Nu7bt27hz697Nu7fv30BjCI8horif48enKP/G/JuB5wasSLeionqL69hbYMK0qvsqBeAVJP8YP76NefM60uswwZ59o/eNLMi3sKn+piv4eejnIaS/kAoABljDgASmYWAa4/QRzoJYYGHOg+fYICE4FAZiYSGF7KGhDxyG4WEYJ4Qo4gkelGjiiSWqouKKUbRohhkIxCijjD3U2EMBODqj447OWOOjj9cEGWQ2RGYD3JFIRjQcccUZl9xyzTH33HTVqZAddttx91144JFX3nnqrdeee/DNR599+F2xH3/+BSgggQMeiKCCDDoIoYQ2UFhhIBhuyKEPH4I4YogoFurBiiy2GAWMM85o44058qjjjz8KeU2RRiap6aYHLdkkck9OEaWU0UlXpZVXZundll16eR566Y3/SeZ7Ztp3X377+fefmxXAGeeBCS4YToMPmoNnnnvymaGfgHo4qIiGooioioq+2KijNuJYgKQ7UmqNpZhyKq64nn6KHJRRQldqlVdep6p3XIpH3qttqCcrfLTOZ2uauerKa6++ypkgncQ+eKyeFiqr4R5/fvgsodGeOG21jF6LwKPactujt+AWOe7HSZYrAqh+KCcqqdBRaV2777Ianquv2ntvmfqiiat+/vLqaw0C90GwneZEOGGyfTLr8MMRpzitKoouanGMGEcqKccdEwny1b+J7MfIoY6asqkrp7odvFzCHHOsM+cr3743s9nfvzv3LGzBxuKJ8IXLMtzh0YMm/23ixNU+fXG2UvPo7bdChov14rqJ7GTJ6KKsMqosa9ld2WbDKuus8dVcH7/9vq1zwMDSOSzQQiMLTsJF+8l3334fiijFgke9LbdUJ+4x47zbpjWokTc3JdiUZ9eyy14mQC/aaXe+ts1qhr6rm3GX/vOddhOdt96vjxj70rQ/bbvGh1edae/ox+Y415CfLPzwYLer3dhkyzvv8sy3h2+t0K+ZM/XVm9PcgHYsZOEtbw1zFtK+N7vAiY9wt5sapSx1qd2l74KtWd+5guecdbFLbPRzmf2+BCuZ6Y9mz/tc2/73JjjJrU7FSt3dFGY0BT4rdrJL1KIqdq3xkW+CurMaBv+HqJrfbdB975tc8eYXwnglD39iGtP+PHer6OGsTaNzYekGaKeDaW9hCRTUDRmoQ2s9sEYZw13uKihEIrqxNI4DHhKTqDL5tSxeI4RiFGdlpjOp0Ipum14LC7RFGAbNi6vDGxj3ZkPvkZFaLuJho3yoRiCZ742YHI0GN/i+r1Hng8a748vud7Y98pF/f5SeIAEUQAHWyU4y/GINxQi7pIEvkrWD4A8rdclM+tIzceSk1+B3qspZDnmZq5cpOYfKKvoPiwAk3Zyud8js7al1YXwYiR7JNAdajJIStGQQz/fLcmJmk5DzWgc9uER3NXGUyQxT85oJuiuKLpqENFCwDFn/TdWxDoGMpCW0uNk0SWILjYUzHC/Hac6GXsaIXRsm8drJxFU5kZQlNOUUU+hM6cEtgPs8XbEQ+c9FNquRA/Ub4HaYS4RGUKELHZIFHUpTyARTmCgr1SfDFkqLwpOEGZ0nFesZyI9qUZ8+M2Tq/KnIRQaqFjSIhFS9QQOCFrSlkHppt4DI0Jp61TFLYhLJTDaqDk5OfiH4gVrVuoWLJmALa2XreqAR17ra1a48OMBd92rXYHGBr2uVATJggAZsdigPYJDBXgcbsVuy9IxZ3aU4ZdrGr1oWMRBtX1m/VswrpTWubcXcW+u6hfTQFbCAzStqAevX1a61DgcAqA8i4do6/1S1UI51GmTTWMnJKu6ywC0MOsmaLmKCEjufXWto4QlX0JrWtXtVLXT7qqC/TvcHMGAWGK47AkOt1Izf1GVvEdfV4Jo3MMOdI6mm80m0ktatzVXuc68bV+nSV60Ds+50ZQAMvcHgviWQmGPB20PxhnOybCTneRe8l/TO0ZPtbVdy2frT0TrXBHi4g4Y3fIdE1DUROQixiHPAA2OMWMQRqGsEuMDiFnOhtXFdcYsjUQe73mFDNY5rHSJBgx7DILFxPYJ3G/jY8LpUYxtD8G8ZzGS8pLesZiUeyyb8g+W2ysLyzZ8J3nOHuuagfx6tQA7qyoWjwnitXPDidnWsoVrYtf8JzyLHCNQqgyYMWYe6NXJkx0vBJTf5z3O5aXKgbFyeXofKVrZffOW6uS03ostx/XIqwzzmuJY5n/klsxeBYVcN/beuC/SGDLwRre8alEYGPnCfZwroVr9F0MQtrhIl/N6fLrrKWnY0pNcq6Y7ac1eVRrOZfaZftabZmp3ew6fjGokxeoAcpTY1VnkLUyWz2tXYVouDN6vTzmYH0aLFslyXyWUvg/nXAAq2sYcdjmL/4NhDq0Cy5XDXOowABnDepkqJTOBJprraq65stgd+lm1LVMq0vi+uyf1oc08a3WIm87D74G54I4u2cZWB3hTLV8FGws62JHKeC+xSrU4qpgn/JrjKCw5r9cJvpwm/b2kZvmu19pqoOVP3u9nt7jeQ4edkKMGa4wqGhXkDuhG47Z27icvdJvTkKPfzyqfuFXSm8+A7bSeVpztzjTY80ucuasQtPXF3u7YWevMBDDi+2u4unekj93fJJUvelFP97lUfTpMeFzx1TVTrCsd1o8sN9oeLXeeX/tU0zY7aSCxMb4hlO2CPgduVxv2ge+5twBWM985bRWvsizUds54qKhMiEahPPeoJQVoTkqnmP7j5CrGI+LJfNxKy/ZA3RpDijr/9qk43OdR9e23PGz8qTx6mTmHu2Vozt/VaJjyvw55ziWO6uq6VARiA0bq08y2qyLir/9L/JvJTQ+3fW42p1I/P/qYYvLjdpii4bQ39zUnf5tSnvfUVf2a1+hzociAHwFBSfhIJgfIsSmBX46c0ZWR+g3NkdNdL7TeB7qd3jxNRsjZRMUdhonVrXTczsCd7gFR9ZHd9FEdmsZRINKQhtHUEeYBSIXIEdbWAOQRJLjJt1DZ8dWd3FNiDSfF+nYRwzQda8AV9XheC+Sc6tXd97YaC1kSAe+BmdBYJaPAsTWBXSiAtlueA4FRtdbd+PhiGwQFRordeQvhtzjdCHphr9xd7SQhs+8czSNWElpaCBIgGORZjkUBVuyd5P1AHlVd+OPh0SUZ8AieGiOgTQCg58bOBVf8WbmtIcw7na4cXh9ZTcQV0N0VTC37oWgEWiDZ4eag2d+NFXmCYiKh4E4sYZaQ3hMpVhM4VfV83fYZHgsJmghVnh00VhTI4XWAQbXjGhRAkfGt0iql4jDLhYA/GWYbWAvP3fLFof7OIf7WofyXIf8TmhE+4ggwTCZ14V5HQWIIYfE9XjMWHjOgIE8qIdRHmihwIjVl2hJN4K8+khJZ4INhXhyTFjR0CA8jwjfYGcsAYisKIfoX4heeYjgq5EmG1d0fEbexEUSEkQvHEhijkR5TIQqwEUkklUtgzNImEIQAVKE3QYyZJDvomjsGIVVllcuZ4iAsZkynRkOaiWezYjO7/5FM/BUXSqDYYmSZWpJEAI00D80ofaUC7yD3dAzH7tpLkGIHlJZNSiRKrWGjyMz/1c2VApUyy6JNsczNCOZRMyE9LJUuzpE1WdYPk6JK5Y4xT+ZYdQZN8x0FTwk52RD94VJEW6TwY6Wu6skpiiY3U1E9Dk5RhJFBMqZIEOYjl2JYJCZeQqRFVuXzH5U7H5FbKU0oMx5dfWY+AuTNyOE1G2U96EpLbk00LFHJOqWctWYpRGZmwuRHrCH9nZUyXg5mZGVRSdJG2Qo+qZFT5lAYd2SCwtI8iaVJLmZgDCXcFSYpeaIqPGZvSqSQWWJNluE52CUI6eWX0wpVeh0K9WU9h/8mRP1Oc23icZ5maismcLKktbMlVbjmd8skQchl6dGmVtnmbO6mZQsVRKhRmWWSCo3kOuoieaXdS6rmcwMeaOaiD0AmT8xmh9NlyyzhrlbOdI5Sb3tk8zvOVQQlN+KR4wmk6BZOCppl7MKicv+dNJOec6bdQ8SmhMjoQkzkl3hZKeBluGipPadNMfqmRoGk9A1qW/yRbCOps61lQ5vcorXlg4hSjMyqjVleGL1eZTDQ2uLmjrndKQzV7gBmYoVmUp2Oe2XNAJnWktZSk4dOi7vmeMBqdUTqj9XlEyzg8Vnql+pmhWtqVfOlHQOmZwCmiHemRZXlNhnVSiJmSCrqmcv/nog76mnEaqQIxpzjVSdmpnXmaofy5mz7ppzgHoht5VCOqIMQJIUJTmmbKLGjqSKpJkM3pnq5JWZwnqXFKqe1Tp7WJozm6n2CypY6mNuEJlqAaqsHpM6RaooWaqgeanGlZZGzaoOUjq7Q6rWwwpS6Hn7qalZraq3vJmTazJmIXoqE5ogP0kai6i3/SLGjZlK7KmLHKg9Raq9V5gVTKjO2UJbuqlXv6nV75hoE6rsNZopmogoe6qimlpk3Xok36nJBaE9hwDdaAIz0QIy+yNIhiRpDyLdhARA8bsTVCsWZgsSuCsQUAJBvrgzWaq1iCr5mql5vpo596T4MkqAF7lEj/uYLpyqzsypz9dn7D+K5QahJB4rEhK7JGe7QXeyNBcrKcMrQFgABFi7RSuzQworTXwLTxijXYYA0TO7Ve+7WIggAli7W6sbU9ELVgm7ZHK7ZXm7WcwrVoq7ZyO7Vm0APWQLaxYbZxO7d8K7IXcw1u2xtbiwB9W7hyiwB36xrY8LSG27heW7fWELi2YQ2E67iWC7aIi7eisbV7e7mea7GIK7mucQ1d+7mm67UXo7mbQbqde7quG7YFoLqi+xmU+7q2O7Wh2xkF0Lq327uqkLuz+xnXUAC+W7xHawYFALiXQbrG27xUG7vBuxnWwLvO27xmELmTsbvVu73TArzRKxmL/0u93Gu9BfAY2NAD45u+F4u93+sY11C56hu/K9IDshsY1yC+8tu89Nu+inG++fu/81u/fPG+AAzA0Mu/hEHABbzACKC8gFG7CwzAdSvACFwX2AC/EbzA+9sXF5zBGVy+FbwXi+vBJHy9FOwWI0zCGXy9IYwX06vCMMy+dUG8MFzCMtzCb9HBNQzDCHDCZ3G/OwzDG4zDbYHBQazCQ9wWOnzEMAzCRJwWQMzEO2wGDrwW1iDFQWwGPvzEWOG/WHzECLAWCvzFNVy3XDwWL0zGR0zFaHHFarzGW3zGT5HCb8zETiwWXlzHR3zDcmwV2IC/ehzBbBwWURzIYBzHfXwUbv9syFI8yF5Bw4zMxI6cyFGBvpH8xWHMFX98yV98x5TMFJvMyZiMyEkRyqIsxZn8yUtRyKfcyFVMFZDcyq6sykkRy7KMxXwMFbZ8y0z8yrQcFLvMy3Y8FXkszLj8y0KxxMb8xT0QFcq8zFLsyci8E5YMzWScyqAMyNbswdI8zTZhytv8xVqczeGsxtjszQ6rzeXsweOcFKy8zqiMzjbxzvDcyKQ8z/X8xu0szzCBDflcx/s8FNfwz298zvy8EuBM0Fjcw0Qx0Aptzvd80Bnhzw+tzxHtEg5d0dcs0SthxBrdyEFBzx8Nxhx9Egk90vbsEyeN0iRd0iTh0SzNxAZ9Eyv/HdNBnMsuzRE1rc9V25Lu+bHqjMXNvBNBLcnn16baAtSiPNM53RE7ncViq7ES0bFPW9Qq3M0zUc16XLdjOxFUDbV1zNRN7dRWHb8w0tVOzbVg/cY4DRPBLNNse9EJYbZr3dJjTRJPDcCZixKLC9NB7Mtubc6JexLD69cMfNcmrcJ73RKDi8UB3c+Y3NYmEb4kzNCIPdllfbsNPM+GvcIzQdFH3AOA/RIQrNdyfdlTndmnm8TfrNVNLBOdXcDIe9ojwbz5a9mobdKqbbneuxMPu9vNK9km8dYaPNo0ncbji9u5rdvcO8lAIdILTNsWsciVbdw7gdzOq9zLzdzN29tD/4HdESzWeM3Dwt0T2tvd0r3dXg3cYOvciszetjvUKhHb6rvZS0Hdmp3e6u3VvovVSOHaBWzdIIHfBVzeQ1HMrqvd+50SeV24rO0UAJ6/ZpASGb3A/q0Uz+y5Cr7gDA7fFivg9+3hnyvfJUHf2+veuny6G87hFC7iKnLAfhzh8WvgGUHc6Xvhc2zimKvfLG4RDf61NO4UFS7hJQHa/4viVWHjafvYPd4S0L3jXjHG+YvjGaHjxrviVvHkX8vkTc7Yu03iXiHj4wvi013gYiHmdMvjXY4RRp62QZ7kei0SLt64b04VaH68ar7mbF7USB7lAFznD3Hn6G0WQ57mev7N6v/M5WHx47474R7R5umr6GBR6Hgek85QAhHwDJUQeJze6Z7+6dA1DdPgAKRe6oZwBDBQ12ub56Bs5bdL5RIh6MUL615x0tHAB3GQBLq+67ze677+68Ae7MI+7MRe7MZ+7MgeB3yACo5hDKwH6tAe7dL+6aVe7Q4gAzQgvmCOFhnOvTxO6du77WcBzsVADMh+7uie7uq+7uz+68TAC4xRAps+7fRe7/YOWKNu7Q4wDTCw6m/h6q9L6w4B8K4r7txetNFg7u2+8Azf8A6P7MTA7IlhDPN+7xZ/8fWu76We7RZr8GpB8Keb3gQe7nIRsqfw8Cif8irf8HyQGAjw7Bgf8zL/T+0aLwNRQLV0AfIjrhE677kerxZ/nOsrP/REX/TBHgeJsWwzv/RMP135ru8wUMjivRaMbrtkvhAj77w/T/VG3/VeX/SJ4WFNP/Zkv1dPb+1HwAYO7egWPOeHixFur7ZTzxZfX/d23/CJ4QJlv/d8/wMa7wCVIBD3S8qPkAhkAenVK9dZf+WsPhSJ8AgTcfeSv/LE8AEOnxh85QKav/mc3/me//mgH/qiP/qkX/qmf/qj//cOUBEIkAOt8ANlMdCPMAK0X/u1bwQqYgTHQPvHoAQrUgK23/tHSwO1XwIrIvAH0fOIYgQj4Pty2/hD8QOtcAdzXxCTf/0ODwkrsAKX/4D3iMFXMxD+4j/+5F/+5n/+6J/+6r/+7N/+7h/+CxD/8i//Z1/tFEEDMG8W1nAMfAUQx1SVkPHDoEEwqowcZJhQ1UOIRlAw/FFHyUNsbDRu5NixIzaIIUWOhPjIG0RvP46QZBnSmkeYMWXOpFnT5s2ZBwnJwckmyU+gQYUO/WkKCQQISEwRZdrU6VOoUaUCvbTCKrGpTntu5drV61ewHCkynFHW7Fm0adWuZdvW7Vu4ceWWXVDXrt1pDvTu1cv1l6hhDMMOJly4Yw8jiUf88JbYiKqUdRobUTJi5cIjjh+B+SFQZIQfYB4lLnGkxMMCXhG0ZP3wyI/HD709ak3ypf9h3Ll7UhRl5GZWoRCkCCBeXBcS4MmVL396wOqKD8yD6qZe3TrNsQfnbufe3ft3t3fF5+W7t2e2XS7GXmd/HZuZh4tPQgRNgyTmkI9+oBCZkn/LcsqJKUCYsIlNpMTui82I1xJUsKXHEGhvwtzGcmGXbGpSbo3hivOQOCeWkm5EEoMiBhJ7hnLOquiEgsQO4CiUcUavsjMIPBxz1HFHusTDqzzzblKiCBtpNPKr91SRDyIlfoiAJfwiclKkiey7b6KKuNhIBi44czIPjY6RgYw6fpBhBCZBc/Kih0oo08ljKBJIBs8kMqgONB+KIAIxKyrhSEBxsrEIJWhKThk3PlT/VAApRHyKBUhZKHHSoD4IZoVgsApqReiEqmoFTbIKdNRRbfyBR1RTVXUtH38E0gGb8HmjElNJtXWmApRkDKUf8hwpyofi9AyiBlk6gk4yONOyHDNRICPOCDTioqJjvHnNvkdkQIEGJcCQ4bES9iuhBD6tZWy2hfI8tlrO1JXBNIJkuHXejUyt5A18ZALOlEQ97OLfLj7U5dEqCjZYA0onFeO5P4TitMWinpNDVHorts7UVTPWeMdW6yIPyJpKeMbUsRKhyRCSB5npF5J/yGGmWlr+U6ZwSW5Cph6WlK1XKM084ucynxSp2JGEVeUaNiKQl9loNXpNwGnJ2BlNzmh7/4hOVeqoYySi01XFaD1lcO1bVQqImiNCSDZ5JpRNVVkmlkneZSY5WuZJpl1apuiZmT0Czgl/cRBc8HoCLg6CpjQwePGCHU14uYWtanjT5yBOYojnaKDYYs5xw3hj0EOfq+MFPi4v5JH1Nmhtmdq28e2Y4jb1ZZliJrlvmGo29eaYsNEZstB6xnME4k/j+gerRVrsoh7YiJpZLZ3+AeoffplalSOGJx7PhYQOqWuel4doyZ9VMcP5H8hAW+2TU1655bllqpvku2PKW3WD+I4pqzUCH/x/wzGKKSxgXAEfJ53IrWByQHlYUDBnFc1NpXMTLMznRHdBDKaFdKbji03K8f+GwBSJgrea1nwUUpGeraQ1ixlWSBZjNWw87wfRY8PT0BeblKApe8TjoRK6d7wFhQ9549tV+ZB2thEayV740tdUZFGcLvxPijjwEHKGUsACSuqAykngAn/SQKA8cAURlEoSzcgVC2ZQjRfc4KtgJSQiZeeMoyphSCbSQiPYB1gtaVIdDqQKGhghTsazBmgCNMON2HBaOOTZRJIHEa0B8SFeGyR9YIO9I9wGiXOc0KAKNZOsdEgA9ZgiAIsji6EQEIuLQ9gWk9NFh1XOgZnbHCdtCZM0rlGXGmvjq86TnvXckkZ1jMhr+FQCMNRBbHtsSZxkAIYSHAM0xzCCMktAgzj/gYEN0Evk9G54vWwdwRtKINdp4oQCb3gDBeYMjTcCybNqyuCa2XTNETKCPvUJ8zoWwpCGptIvAZTyf/UojhOGorhVLs6Vr2RYLFk0SwjWUp/CzOUuLYqqXoJsK+QQBUUmKqM4BQNB3jpIBNhUB++1xlx3ypMS1BQajTDrGBtBgbycJ7aHNMkzSniNQSIQmz5V5CJGUNNPO5PTlzoEe01jQ5xq8dHq8MY3NskKQAU6OIISZ2BCQWhCC7ZQ4MCScg8NIy0lCFWK2uiia01VRk/XFTmkzSBonZCA4DOSRwSyNqzJ4yMfklcj3GabMclVSP6oCsCORAl+fQSbDptYiEiI/yMComuFDLKTnlS1OFclXEEP6lWDgTUrYmWgLMsa0bNWdo4VZWtru+PWDqrmDq34gWrbU9i95la3kp3JXXX729bc07bU+UEr7sDb30xFF8Uh5VUDiDihqNKrrRRtVEj7RdP+RIxkjMpwz8ha14Y3LrAN0lcewTrvUse3wGXvSIQLk2u0V74iQW56DZOIR3QlKxDw0FWzSpw1EAW0VdBidaFy3SSAUbtmLaN9KQhe8UaYLeTti4M7Z435ZrhsM+mBhueLNAvbKiumCGAUS+mhraZyugaWCoIVfDkGdzfEnIOwhG18Fgq/ccYVW42H2Xs+mfi4vc3b8aiA80QPNbezVf9sinQZR10WP8XF2YUxahtc5HnV+MY3zjGW6YVbIetWJvEN82/f6+UZJUeUi/IQKp3Cgq5WQQMFjvJT/vAcSDi0U0AxxT6sMrHUorlUat1yoTXYMQ6WV9CjWm+ZWwNij3TY0Xsl8qLTvK81s9nNUYFUnbNiDzms4ABD0LPlkhC5PAfa0koktKFdPYMurzpQYJ50S1IDkx7XmjWClXV7lGMKJC/KDdD19EI1VeqhDIHUEu01hbT8atfGutlGarSuRQJkj1ibNfWddnWYswZZrFkKEHBcsaP8YuZ0e0bPhjZbpa1uCtFa2yE5MxvIPO+R8BreuiGRKdYQYHMHPAmfWkH/iki07062ut1cRrQbEU4hkOA73x6RN76x/fDcCFzjJfqAHPYhhklhfJ8KX7iE3y3y6lQb35XeSK4ljhqUZ3zjM6d5EmJOXJKXXLwnvzluKj7vi2vk5SKBdM/DUnOkC9zonsu5zqPdcF8uPTcRHzpGOILhqptP6oMpd9K9DlZTbJ0w7Hb6GnkudrC4/OVF/7m2WY72rcDo63MHqx3gDhaylz2DZ787V7BedV6rXeJF7/tN5EF3xG9RHoXvSt71zkaoa5TxX8m6Klhe+aBPniY9kHviPT8iO7xd89hp+uMtyvfR10Tw80Zu5W+d+pqgItWfpz1wIIEK2N/E8aYHHepv/wKFHfRd0iKhQAeM34ELPKA2UOgAFEhygQtABPoaoTpLoB8SKFyAAhkmfO5jMg93nOJFdiB/+c1/flN4Qf3rZ3/73f9++Mdf/vOnf/3jb4rz5//8kDiFO7yv+9LjPbOLvLfqinu4ADrYgL77u5DIgA14QAjMAOdriQfYAOUbiQzIgIeAgge0BTZgwJHgQA3cwAygg+2br/+rjkHAHxZsQRd8QRj8AVFIQZzLDgFsLd+bCQpwwAcsPJJwQCgIwuzbgB1gjQq8QJHIQIh4gAfQiLZTBREkQRPMsMyjwcFYwRjMQi3cQtWZQStkOhu8wbXKQZhgPgjswb4TPCBsQAAgif8JPEIonMCHUEKIILLVCEI33AANhIISPEHs+y3R+0KwwEIuLERD3EIvFMSxC0AxhLxWSbQKuwl4eIAEPEMF7Dt5W0OIKEFV6AA6WEILVIUKvIAdeMAdmEA6VIUdCD42AL4HBIAOEAkR5MMpDAlP3AA6iEVVoIPogwhedAlFLAxCPERiLMYuDMZFDMNG3CUy3AgKKEVLRMO7u7dN3AA5rMAi1EQ4rMBcfIAOIMI5HEFVyECNKMHk6wBx3EA97EOR8ETtQ8BYBIA2fIgLCEWIqDdk5IphNEZ+7MeDSMR8rBFGXMbeI8DYoglb+MZohEDGw8B1zMANAIDt08ZQrEBd7MT/UExFcqzHXszDBJTAkKCADbjIC2hDjnyIHZjHh6jCYHwHd5CHMYhJmZxJmhyDXCABnMxJndxJnuxJn/xJoAxKoRzKn8yFmjxKmZQHd3iHgKyXgSRIXjJIRYuJBwCAhbxKVpSJSrzKC5gJDrzKB2xCmahAsLTGmVDIq6QDmoBGrGw0Bzw+5ENFa3yIbbRHUcxIccxAbPhGJAxBPaxHkKRLIjy+UgxCOijCUbzLaFTLmWDLhczKmNjKhexKmfhKsBRLqixLs5QJtFxIxuyKIDC42hvNp7CHIGhKNtg9qOQYqYzEsbRKzYRAyIQJyYxGyowJy7xKzIQJsgRLKDjLsvzM/5hwzGjcgeGbw7l0yDesSLuEQ43MgGvgy5aIQsBczh2Ay178xmekA+frzTMUTpggTkucTY+oTUu8zTLUzN30CO9cyN/kzOD0Cj4gTfqMCj5oStVczRxpxoQsS8ajNU0UicJ8COm0SIiQzue0hpNkiShUBQQESZG8yJAcyVwkuqYshvrM0KcohoDMT/0Ej2bUiB28yv9MwuQUiXrsgAdAQObkRQpAwCJUxQ1IvnHMgALoAQDgxRWNUYhoUFWgADoAyW/UPm/kUWj0Q6sLSGbQUCYlCmbo0Kf8UIxqTR2ziUk0T8YDwR34RJaARgCoR+UbRdg8xYegAKv8xAzYgQJAgP9nhEAJfQgA4NEfPUwCrcQvlT5wFAnUXLYm7dPLgVJllNLQybECKFRDPVRENVQzPMNEbVRHfVRIjVRJnVRKrVRKPc69ooATlMMJ1NSReAA5RIC7ggJQla8HQFIHtUuIsFRWbVVXfVVYjdVE9VNatbl89FBB5Y4ck68RfcDK+1VgDdb5AoB0FFZjPVZVqFU/BdSxyFXR2VX5ugEWRVZqrVZgTUxrzdaqU1ZPMwVNOAVTS7dbjVJnxRFonS/g01Z1XddJk0N2fVdH49Y6OwUI6jrlYFaKKNeCfEQ3gld//VeADdiAlQ4kkAVdkAIp0AUIADh5JQp0Ww58JQt9jUp+fRX/gb1YjM1YjX255UCCTCsohm3Y0iKrEYlY7ZjYjDnXjV1Zlm1Zl2UN5eAvNiMON7AiP9WEAwA5ZAsKS7iESzg2GUNGXEXZ8KDSlz1apE1ajE2OYJtZ4rDZJtMAxZHar4OE5+g87CLZnwg1UWO2Lxxaop0wo1Vasi1bs0VW4ECCD+kCUqqHwvEQN7DXoogzg6GzmZsyrd0ur7VCsA1btVDZsw1cwR3cSQOONVMyrPIQg2IKr7JbjcPbPVswKwvaYOxbv0ULwCVczd1czt2rrGCEJBOo/+oCe6XbLKo5yLUcvVU1QbTcyzWLzO1c2Z1dzs0KwCEOExMoDyE2oHCyVYKy/8dtqLGK3Cobo72lQcvNAuVdXuZl3rVoXuhdXrZYBOqtXuu13rVgB+3dXu7l3tEZW9oNX/EV3FBiLs4KoE0DCtPFItQV3pEl3tW9ssolV7fgBvu9X/y9XyZYC1fQAv/9XwD+3yxQi0XQBgM+YAQ+YHVglW1oYAd+YAf+3ooFkvGtYAtOWs0iDs7Cgf9a3KBYXwOiudSFKONl3a+l37bIXxW23/1Vi/4NYBjWggFOiwJOYBvWhgX+Wwje4QaWYB+BRAe4YCEeYo3N4IDirA7+rAFrX8nZWcktYflVRMtdYRVu4bR44RgG4BlGixq+YQTOYQ3i4R324fHoVyI+YzR+1//yJQ7EnSL0VWLQYmIFcuLi5S6oMNkbyREqzl8rRgsszmL/3eKz6GIvNmAwxlwxhmAyvgsgTmNHfmRqtV0o4iwPYQQVAy3gFbgRPi0oplwpzo5h0JE9xt8+Pos/BmRBNgtCLuRDxrFEfuBFdhUKhmRaruVtnQq1Nd9SCqC4JQoQNhi5LbZNfmI7fgo8RgdRHmUW5l9A1mICLuQvZuBX7mG5iF1bvmZs9jHDDV0pCiABSF+haFykG+Y6Pt4UtBFk1mNl5oZSNotTzuJULotV9uJWht1ppubxAt9s3md+lq+0XVu3fVu4DeYkWF/HDd4mHl7VjbE7HtexSGccWWd2Zub/Zg7kZ4ZmQ5bmaY5ljzHjfg6zV5AAkcaAMPsECZgDD1MECfiEkFgCkv7o3IIDRWiv5JBZpxWAmoUKOJPaOavaq6XjJODaSzDn/0PnZFbmdi6Ld47heJ6Beb7heqaLe94Gji4dj4ZpDZOAUigFf9hqEJhpD1uCUgABD9PqJYAIDCgFCcDqvSqFScAADwCumL3pnKbVP7gEL8pa4k2CD7iEUxBNT27d7IBo8JDopJ6BpYbhpn5qG45qWJvqqm5kts6wtF5pVfiEJciEVxCyJQDrDDPrh6jsya6NrR5rlNat5ViD5VKULpAFgq7Vh71Xh6YIwv4Ow6boil5sjM5oHb7n/8i+6tEGLhAoBZZuiU8o7pA47pFQbuNGbpFg7pEAbdF+bud27svm59Leasv23G+DACfQBV1wAnITWYelMnEV2sE+6lE+7MQOYN3ebcdeAMiuZn0O7t/KhFI47ZHAgK4uBTgo7jnAb65+af726rNWhbd+iAD36pdGcJHe6kzQb4gw6+mGiAUvhQhXhVcohc1+iA3vcGzO7q2ehANvDfKuLk2o1xI5ZvXeY/auaIum4d3GYY1+5d+2WPtmr7SeBAnAAAmv7Dl4BRDIhIfwBxBYApcm8jlQayQX6ctWa1VQhEkAAQzI7FI4609wazhwaQyPbv+G8pCQcjh4hTmQgEn4hP8lhwOIgIMz32cRL+1MkAYTP3Gw+wNNAFrpYPEcSQc+73M/73NWWAtWGBdCL/RCZ4t1SHRFX3RFX4S10Id2iHRJn3RJv/FZznHgsvKt9oeXBgGy9vD8zvK1bukrf24oh4P8fohPmAQiz3Iif4jhtm6tnoRSaPCH0GrPTnBUn+lVV3M3f/OtpgYJiIWWoHPS1PPX1RFr3iuxBvbS9myS0Gpnd+vWQPVp//SWGO5p9/WWoPVpH3WWUIQ3f+5XKHAMcHWRfvCzzoRJgAMM6PBV94ceP21RVwUQ8IeQiPV6h3XiFgmtxoDhtvV7T3cJkHdVEGuSTuvTFnFsZwltd3ZuZwn/b3d2cCeJLJ/2Um+JDcd4ECeJZsf47PaHjg8JYx9NZE92c63v3/p4Z4d2L5/2Sah2jG94knh4YI94kph4YK/4kRB3EQ/3sUZ3gi9uDICD4X71T8CATOhqkq53T8934t53e+/3kDDrTwh4iBh4gj/te/8Ef3h1VWD41rD5N8f5kdD5N+d5U8f4EieJjZ/2kRcJlgd5rm77kODTkke8ITh5lP+OZcd0lngF5xZ3Ijfy1kjrkWfzJ1/rXYeIKV/8rKf6CS/1T0D1l278/VbrjP91YBd2YmeJJc37xHvS2WaI2u7711J5wGeNSZD3Kgf4Uq/sVyj3r1aETDh3RWDzpB9z/zT/esjf8CMP6VqHfH6X9c3/9yif8iWYA6VvcFrH93529jhvDQwVfcTjBb5HfV1V/dUPdzYv7SNH6/7m8cu29gFXhQvHcJTOcgIf/5dm/zWPeZFA/KpP9Tl4+ExAbuSPfhEHiElLVBEsaNDgmCQKFzJs6PAhxIgSJ1KsaPEiRodj2HDs6PEjyJAiR5IsafIkypQqOf5o6bIluhkyZ9KsafMmzpw6d/Ls6fOnzAVChw6d5uAo0qMHlzJt6vQp1KhSp1KtatWgoiWfmM6Zc/BT16+vFBncajBsWalm0xZU9GotwUyT4F6ta/cu3qml9u6VQBdqkDgZBxMubPiw4ThMVv8ybuz4MWTIL1/GBGr5MubMmnUS7Ww0KdK8okeTLm36NGqpc0pJSO36dV6+ILzWLRbkNu7cum/nOuP7N/DgwocTL278OPLkxXPtbo4bD695kadTr2495WSXlTdz7+79e2ein0E7gG3+PPr06pdimER2PXz0pSZh8KB+UPb8+vfz7+//P4D8iXIdgQUaeOBI+g2TAoMNOvgghBFKOCGFFVp4IYYZMpgMhx12SF5o8Yk4IoklmnhianC8d1+ALbr4IowBDoggjTXa6FiMOeq4I489TgaiUigKOSSRRRp55Gj4+bgkky/OeCOUUUrZUZNVWnnli0A6gACXXXr5JZhhijn/Jpllmnkmmmmq6aUZSJ5nxppxyjknnXXaSWabBimJJZ9WPjkloIEW2CehhV6ppaCJKvpRnuv1ABIC8RWwKKWVgtQoQXsaummMf1r6KagscToqqS0iGiqqBmIjojUgFSBiqrFS50wQzFgSB6656rprHKYA8iuwwQo7LLHFGnsssskqa6wpvDqbqyXMBOGMrNVOVyq22ep3qrXdMvZqfNiAdA2r3ppbEj12ILYuu+26e5Ed9Jw7b0na2msvt/Tq69Gq8SEgEqbpmbGvvu9Y8i7CCSu8riXvEPzwvRGXmu/D9IIL36QhRRpfqxV7m9DCIYs8ckQbeUyvxClvSvHJ3WIT/3B614jUg4iPtlztwSTrvPPCltx8LgxBCz000UUbfTTSSSu9NNNNO/300I5IPfXUP5t7MXwjkSuiuFajagrPYYu9riled7sC2mmrvTbbbbv9Ntxxyz033XXbrfYTeeutt9nWbgzfwCONaHPflo59OOIZFS7r3Y07/jjkkUu+N+WLp2rNiB3PPKLMli+aOOjtmjKEu56jKjnqqau+et2U7206qDCn17VIW/sLe6Kh626YJTSsoEm7uH/KOvHFGx+563wLvyjW6/1bkuzo0b48lOuugQQSYO++8yVp28Mu9ZQePz755bOdfN7hJxr9eZqP1Lx6z6tvo2FIOOGGAPkL4P+GLGtsP/IB0vYB8M1PUOY7IAKJh74nFHBK8BPYSTCXuQbSiDCmcIL+Mpi/LkDgf2T7gPYYEkC0DbAhHyCG4ig4pQSysIWPW2BkHpEIFZrEdvEhHPRIND0afiQRj2jMYNYgBQ0SUQBOuAgLkujBhdjDd3IgnQgF2BBNoO0PGOFhlFyoxS3GDYaOQcAdWvEDLIYEDVwYARrRWIL1uI8kNFtKCY6xFCMcI43HoEFeMkZGj/ygFXeQH0oyYooharALXSCiLCbCAg1UoZGN1MAS/5A2K0aRhAwxRdrkcMU91oiLnvwk2rzIGDkQwiWc9EgEshOB9XSkHCUgSb8OcoQfGOH/IMfITh3WCBUj6HIpnTulSwghB5VkRBYZ7EI9cKBMHNRDg0iICAscKc0qQPJ/YphkQ0a4ghIqZAhpo8EmT3kgQYCynC0cBfpewBgjiGIy4uTILI0gT3k6qiNc+AEZSPK3gsTzICP4gTfk+YgSzFKOT/mnN5gSOGC+RBRGCORF1nDMZVIUBxmUAkSiOU1pVnN316xiNqW4EG+iDZwXeeeBmmDOlR6wBOgjgEqysQsXZAel/ZwjQeiJ04LUUhU9dUpP5Um7e5KhHB4ph1E5Yrue3rQgCDWIEWQgg4PolCAI/alPa6nHPWbHBbvIhkkwAoEMVpSizdSf/xyy0Y2yYHsf/10BJReiTW4mgaQrMKlFUGogYbC0r+P7AvoEkRIlFEE/7yxAUwtCgx+UIJU/QMFPRyCDH8gAsov1RiqPcYypFmSzqrisY1Fg1Mm6BAVsKAcKWpJLjqiiBHWg7AgSq4qnGgQMAPUpGF77gwgoQRWkbQkKWutYGYzgl2TUTxGUUBKM6EJ/ySzrMg+Zvw42RKNrdWRHQ/fWuCpkrgyxK14rolcD5cGv5l0dJ9D3BQ/sMCT4eEMl9iPOa5hhlmlEY2+9AVtv2NagtgWDN45xBBrot7LHoOMPDKqKOqyywCPwxj0jwAYypPYYZKgFG45whBKg4Zb5DMYPNozZlmB1trc1iP9+R/DZIxzDG66tgyq8UWFv4BEFKCgBfxPcXhXupxJvwMdIMIK//EHXrPo7YkMYeV1puhWbldzmd78ZzvFa5wbnvXLk9vEC9D1CFYAMSQmeEaAZksQQ/BkESX7RnxyQpBb9eeVIStCfJoDkZaqY5WTkmOKchlgVSnjsQfQLBoPU4QgE0a+efzBoVbDBthgmKkfkDGc2RMC0qe2tTydbYtoWZM/+pKWJEzrHH4zgy6XcD5lHYub9oHkkaubPLkgih/4McyS7aNEzJv0RIeuvyMs8qwB04RAlL7mRTQbpk+kK3ilTuTqpwDK07bYPwCZPEAXBIUjCPOaSrFo/rRbJq/f/w+aRuJk/us72nEHyxnjOs6f6FbUR+ozoQJ/Yqj/AYwRgHOPbTooM+GQDpAH+Ay4QnAsROEKG9U0Q2XKaILc0KA3QiILX1pLTdESjfVXhvlPrJ9Ui6XZ+vh2ScOsn1iOZNX9qLZJbByjXIuE1kX3NzCMPu9iOPDZcQ2rJkUr5pM0mUD/KG+2hu00PW3bdF7pskDZ+pBxvGIZ893gx2e4b3vJOML1FTZBHPPbPKq46oyf874Dfs+AEf6WGDcLwehMktXiUMwrQmMqK1/sIxEUjqQnC9Ab2+MdBvkhz8/fcIktXANRliHWXnF3QbVfnUOZ5SZn9c2c/gpxEj/Y+OFEC/2rr7QUvgIG1mWLckBDWsGS0IdXfzWdD/zm4KGa7KlAgAzDIwN2kzpijBZ5PNtzy3GxIrdJ9C2qDNPyWq7zz8G1Ld1F7mutfV8WO54dc5ZIEI8bsta8z+Ey12rytHnWyXEXazZ7ndfKWI8AC06/+J8C0JLEkkRlGDxKZ0tSdWHw/8r2hf/3jUfU+7XPskZqLRcAj+J9iAVenUdYx5MFmSRgbuFkEkEE+2V0J5AGFcYHYHQGN2dbwOdVjpVEqHUFP2VYJGIE3aNpn7Zb+cR0BPoJtPZ8ZRF/4dNVXhVVETRR0XVRGFdviMR74dZf41RX5iZf5Lc7RrR8S7o06mcQblf/IQpEEObTTS9xfwHDgSzTYvRUEg+WUFUaACWahLP0Apu3bMehWBCRVo7WEDJyWY4VYHnDEZrUEGOQbHE0Gi/2UETjWEfzTCKqhKsRhghGXQXxZAU2GQ0HURWCQ/nRBRQFb/mzfQxDbNPWgDyJb+O3c+EWezxWh2ZBCEn7i3pCCSeDfiCCADHoEKZkSDdnZHLUbHj6FEdDAKy6FDBzfof1bHqABSJQDhrVSUYFEMJQYVbVbUzwCpmFVLBqELDYFIapPMKlcDQkSIR1T4dGcRCzSJC5R4yXbJWWS5HFiy+wDKI7jPpzEPsEfSoCRGPHQOZ5H773e7kVGO9YMj/lRM4r/xMsE0ZAVkf4IW0WYQhJ53xIRg+/QwPdwI0OcAtqIwTeCo8eg3zh+YvuVhA2VCLaRhAzR0Dyax8EdxGL1YmRI0IlcJPX40Eq0CWGsQeDxYyItkWEMgR1AEUIyhCXQFRE65M8cYUSu3xKaxAOJSAz+HPtgDBpOx0be0M+xYv2sZP64gROklUsijHetC07+jCfu5CeK4kkMCUlyEjYcZbhcR0VaJJWxoioghilgDxJAZVQmTPegDQpRZVW2DDphZRKOAko04YkE5TuZ5YlsVXXopYncIxbRl0G0JWIuhB3swwqcQvDM5cmUgOdNJmVWpmVe5kulxFACzik2kF+ayBNa/wcpOmFnFtBYJiZqDkFcEhBkPkw2rI44og9hfoRIoogZ7B0F1SaK4OZ0COZgyp8K6SZBoCZxlk5rPgwpsA7nUU45pmOR8Kb6/CSJzOZ0bCbHkJFvDmdxbudhHCfBFIDlqU5dus4L3ABKjOVI8lB2mghwWgd6mgh0Ls96qkLOcKd9XoTPeCe9ZIPQsY4eoE8kAOb7GAlfzo9hPqeNgOWIFKj6vGdB8MF9RmhF8IF+zksB9Cfx/GfyRIJ5noR1lov6CKdt3sho7mV7mo50FgQ/CIaEtqhDxIEHVKi3OAMphKfxjEIkJM8LjEIz1BCSmOLyfCWSnCiBiCiKdOXiHGhU8P8Ci7qoi8ZBGsjolDQBJ+iBlV4plmapHpQAAXSpl34pmIapmI4pmH7BF+hk3rzAF5SAlrbplebBkBCp1VjDh4qIgNKIgsKfnP5MijJFGIyBHdjDEAwqoRIqEBwqoiaqotZVoTaqoz4qpEaqpE4qpU5qEigqpiZqpNqDHYyBw0hplMSmXY4qqdrlKHDlnlbMNeTpdE6Jgx5paVaMNbDqVYjZfxTBU1CnuRTWfzwDqILKcpaqsA5r+n1Bkdxpy8ynkKRqkbqJ3vUNNihrXtiqf+BqUzDow/Cqf/jqr1oKRBIruIar3hAAgTKrudCps6oCktYIrerpnJoHtfaHtTJFfJ7/i7b2ByF0q6X8QrCKq7/a5RegAZLc5smga7quq42kK0EQrMf0KWlIoX+8QVMg7LyEAIB4ir7+aomWK8EoabrGKoIYqZEggLmGisGeBzCAnH48AzkoFMh6yy/Eq34YAp1lrM2KLIEWwMsuCjYUQJ3uJqU47JAgALKmSrT+LGkoQSLEV35QQgQ0gct6DRpEACXoRyUkAjDYrNaygbQaSQ/sLKBEq8IeRNFOSbvaps5WyzV07bFurduGz9kKCdGCbY1cQwHELYroapR85tj2QNp+it3ibXq+LeHizsYqLAJYA91eR88Krm0uLoIcbromLs/67Ngyhd4WruaezKuObeJC/65jNO7lOkXJQonQOuvnSkngjm5TlO7mvi69dO7omkEBKG6BYIM19ADSOmu9CsrpIm4BXAPojgTu6i7rPsXwwq7yVgvbsi6c1K7wMgY2XIM13O3uKmzZUkrzzq7f2q70Uq/1Hm9U9O7yli+9bK/4qoIZwMmZXO/xZm+lOO7lsm/7pm9VwK/55u+8yK/99i9eZC7Puq//DrBd4K/+HrDL8C8BLzBUAKm38C0DR3BeUCwCV3C3KLAEZ3BouowAZ7AHe5kFh/DDSO4Hl/BBYKu3yK4JrzAAi7ALgwoEr7AMt3CoqLAMZzANv7AOUwoJ33AEo/C82LAPE3AO77ARJ0oMD/8xAztwxfSwEvcvEx+xFMtKEj9x/wLxvnisFS9wEU+xF0uJkG4xFydvqFSxGI8uBX+xGicK+p7xyEJrB7vxX64xHRstBssxUhZOGOPx6BpwHf+xlOAsHxMJ+VZMGw8y5wCyIoPK7yIyiKKoI7uJ6y4yJR+IFkcyaE7ywwgyJsNHFFcyKAuKGXcyenwy7IwyKZtHF4cyK19HI6eyaaQxtB4yLIsG7bYyLisKJ9dyacSfCr0yL9+FL+cyMQcKKgezMGuy2VwyMpeGKRczNN8IMDfz+HISLVPzUxRyNG+zdZwsNiezOO3yN0MFFnOzOR9Iz45zAeuV2JKIBxgBOcSzPM//Mz3Xsz3fsxHYhxNq8zn383QwszpfqzJTjzijxgGYWSUktEIvNEM3tEM/dB8dAPyRsT9XdEpMczDTLkULTzqvhwcYwhkAAckQgSG0gj6vxy1btEqT6B078jNTGUCnRryJNEUQgXIQBwl4AQl0YHp87Ur/9I14c0Br3Fxi9FWQQyVcqhcoBBB4AU07dRIAwg8UQSJUtVVfNVZjdRGANBEMQ8sKDD8DtVg7hlHzMcO2ZllPBVInwU4TQRIQwQ+4tRf8wBkkwVwrAVLltV7vNV/nQRGcQVd/tXkM81gXNo3sMWkAgyg8A9SpjGM/NmRbyTAoBCAsRGVTNmUPwzMQAmd3/7ZnfzZotwIJdPVkaLYoAINp+LFhr/ZjtLNolIAhvIE7dMIy1LZt3zZu57Zu7zZv97Zv/zZwB7dwDzdxF7dxHzdyB/csJHVF6DQJPDd0R7d0TzcReEFXz8Jtd4I7vIEL9JIwey9rh3fkXnNBAIMLBEFyp7d6rzd7t7d7vzd8K3clZCp917d9J6pODwN253YQuABq38XfireAI4jd3oUovEF8J7iCLziDN7iD+/YskMp+5/YbiEJdaPSAZ3iN9Oz1yoA7PDiIh7iIjziJ5/YsUEIZpLiKrziLt7iLv3iKM8IhVMKE47Y7PINVnLWG7ziNCDVUDANtl7iQDzmRF3lxz/9CKzCAki85kze5kz85lCv5ADQAJdR4dg8DVVAuj2+5jXR0VPyAkYe5mI95kSN5lJ85mkP5lFc5b/9AVGA4l8d5UCsomJO5nd85nse3mac5n6f5mlv5bbu5U2i5nBc6ic5qU9S5cKvBEYhDbkdADrj3AaCAhh1BCCTAmHNABDj6batBBOABbidABHBAbx9ABBwAcIt6BKx6pXFAN5Q4B/xACCz4nve5raf4APjCkv95mzNFD0SvoQd7IJ+jogd3DvwAqt92N4RYe1vsDxQaaamBmKcSqdt2N0xWpN92Ks06b1M7cLfhS8gAp4t4KqEArSe5rfc5I7xEJXgCA/D6bgv/OkEQurDXOxhXb6QUO3Afe7JbO7Ovt8UeQb+berUbucVme23H+m7dNh60xLjr9mtJ+29PVr/jAbaTuDi4+rmnu7qLIRlswTAQwbtTOaDb9g8QbVjbu8oTiL7/Nr/j9rIfAczv9qvzdgJQVs3zdjfk/MzrNs+nd6xHgLX/lrbLum+3BKj/dktgum0fu9DneXLXepr7AiNIAhFwNhFIAiPoOpNPwA8AQ4f9gDKMPJvH+8qfvaK0vG+/vLL/+zLkwCzVAQqMO6NTFgr8fMIbPc3DfUtEANMvQzdMXIjlQM7zfR0gvLJXmnA3vKIH/SxxesOLe23XvQyEQM0zPh6klgwg/z7DtwRue3s3MFgCpBapdwMHvFbl1zwHyEDSL8MBILttW3ykZ75qaXzoy/wyWDwHHEDcSzzgn36IHYAawP5vS32UD4AnUMIwEEIEDMIgRAAhDAMleMIA7PoPqIEcoIEoDAMSwLtujxHah/+UqH1vs72/477FhkAO5ACD5T0KqMHpHwHep5Lv53YOVFYOhIBU1bzdAUSOHCFkcFi2LMSPEAdyyAhxEOIyPD9+dIt4ESNFccu6yfiBJ+GBgxF+GET4ow6HhEcOHqAoI8IRijkwLlODEk/OAyh+HLHo8odHGQe6yYTpsY7FhCY7/qA5suTEHyhyyDToUsbBHCh/RPD4Y//jMpldZdYpWRPjrFYM2LZ1y1ZZJRl3mpQrJ0yY3SZgXFBS1vbHMKdoRA1j1IDSLLTLfrBx/BhyZMmTKVe2fBlzZs2bOXf2/Bl0aNGjSZc2fRp1atWqfyxGu1VkxG49OdK+2DECxARnL8qMXbObxYMcfqhZ5vJpROQQiePByOG3a4gynRN/SNzgRBkWifvU+nEZ8R+xxdcUTxE9CuYUOQgn6b2bWYM3c4enWP9mnZMmlyXg3hUqGTaaDTziZEjgoITAk24Ztd56sIhh3iAFjTuKMIQiQ4q4A41HBhmmCLaKIEKSH+6gwRBPEFMMrcZWexHGGGWckcYabbwRxxx1zKz/NQYjgu022+qQQQ3hhispuOCOqC8i36QL7gDiaNrtCDyMXIYn/4IThze0OBBIoCsjWqqpjSZSjyST5MsJD+ywnEo3ihC8iKQIOLizId54YpLLBZfZKjcus+pIBrMOMsu4hCJwLiKenvLIuIMock4+iKQKSzoHH2yriFZKEGaLVihyQRllMPyhlS1IOYaSENvK5QcXXJhgxcVc3BHXXHXdlddeff0VWMp69PG76GpjqT+zegrBoq3QQ49JiLZKDqMESHr2KQ6+OsKksZ7tsqavJvVyKusOmq0O7YT7Fj2DrIoTLIxkirSloA569yCpfgRwGY/EwS4hPOg7SBxvj5gT/99xa/sBQYUloohYTTeVpJID0IhQEiIMGYCtAQwhgggQm4ChEkncQsKTAQaotcVgXX4Z5phlnplmGYclVsqLblLPUg72tK/IJMXMF6XFZCASSqeU44AkmkgSR+ihMRJ6sYmO8Bcis9KECOKa2IPopqwy8vPhHh3Wdzo9izu6G+zMYvSgBHy2lzHw0C5bUj8VjXitTScY5g4jivgBiQl+YMQtRn6YwBOUmnhjmAkeXDkxW2u+HPPMNd+c8xtv9nG3AyEqCty0uznTR5Ieigi62ZD9U+kgWXJTugQw9ZFAhRp9ychKz92oz9VJXz2i3T7nSb8+5+xPznrjtY8i43bTuv/F1vrcKL/19FvGLBQsukl3HyV+i4g6UhmEEgxbGUaZMtwvQ5lhRG2lkkHyIISIyVn2uvP+/f8fgAHU3Od8lBCHDIR6EpFBDg4QJZgkaCoN5EAdqDW6soQAgbqTjwOVNkHoMERppGPgAQhiLO0QK2saYd3XwEYRFKjkgdrpygSDcjuidSUCOVSWSO4WoIHMBF7bq9vzdvPCubEEbcRhkhIPAj70eIQ/merbWwxXglqwjwFlqIQhRIWeVhiiEmVg3DDkEInFvYVyLOKfANnYRje+EY6pIaCPaPiSHBgpT/fBo7giYMPR5RElT0nAWFJylm7wBD3EO+QTmXURccjgdcT/SkgFqSQmNSirJ845kxq+EoHlFU9c6WGUS6LFEQWhJIrcGw9EHDU6gkALQS7hGe3swx88oCACIRjkKsU3RbdIQgapEMUz2MKHH5SBAb7gAx98kcUfMLMBhhBFHmRgMrek0XJx1OY2udnNN86RWOI4wCcjIk6pJcBKPhKnHxMwp9t1A51DOx05UbgYPy7jngSDG8EslU9i0bOfaLHhPcWRToi88zYCVaH4KrEpQohCGIbIBVvK8INmvsUXx8wiEVqRhwgQAo0NqIQaM+JNk54UpSl1GTjr2VKXvhSmMZXpTGlaU9B1RQ1tMgvxGBQPjb6lFVyoxRkZgARKbIoBlEAC/wMmcIgfkCFUVHRqPLKpUqteFatZRQ1LbdpVr34VrGEVK7G6cS1oSW0xiWiFJJDQ1rb+oAQl+IEy2noht94VCRpCgjIaB4NjEM6tyiBCq1xzK60eFrGJVaxjhtGJsT4WspGV7GTD2SYOAFQ68RjEM1rR2c6OBwY/oERnK4Eqz572B5VoBSVKu4vQnrYVzxgEVdHSiWEsFre51W03n+EOyv4WuMEV7nBr+wMYeOMHHGOAqZBqiL8MABdw5cIPHItCdzxjt9nV7nY7J4o3EBe84RXveGf6jBA84nBsYcQwkGoYpjq1FigQGwrfIAru3he/+QVWE1wQBPL+F8AB/m8iiv9QDkJ4gi2GU+41z9gAEhAiD0VIRD2D4IIm6BfDGdZwjQ7ggje4o7oCFvGISQxWTVTiETkYhnKHwVZJvNjF7IUu4IJRCU34qBPueIMLDrBhH/8YyKRpwjAFwy4jHxnJSVbykpncZCc/GcpRlvKUqVzlJ0uIFM8gAhKIQJFKPAPMzyjtD4hwiDM8Iw8oGPOSh/EMUVw4yHGW85zpXGfOhKCjBxAMETwxDD64hQ/D8AQhKHKAUbQiBHZW9KIZ3ehG4+MZRRAGLQTNhxS5xROGKAMJfkCLPNThGfhw9KhJXWpTa9cYlIiAMNRgCEMQ+i/L/QFnW6GGJiSCEsY49a553Wv/X3OzBJVIBBqaMIguPsMFFKHEIJogiCJUogS/lva0qV1tmsnBBTLYhTBIUYI3DGIQbygBKYwwAlnJwdrpVve62V0jUohi1m84wCPs8ogSDMIjoiBFu/ndb3//mzPA2CxFhlFkGaAAGABX+MIZDnAE4MMu+EBAwylecYtfHOMZ1/jGOd5xj38c5CEX+chJXnKTnxzlKVf5ylnecpe/HOYxl/nMaV5zm98c5znX+c553nOf/xzoQRf60IledKMfHelJV/rSmd50pz8d6lGX+tSpXnWrXx3rWdf61rneda9/HexhF/vYyV52s58d7WlX+9rZ7kZYlIEKAQgAIhoQilhg/wYboWhA3ANAhbrfve2BF7xlQgEKuR/+8KAYAOAn4wvDIz7xA/DfDShfectfHvOZ1/zmOd95z38e9KEX/ehJX3rTnx71qVf96lnfete/Hvaxl/3saV9724M+M7FoAOR5P/deSCYWfO/94RHBeMrcHvnJV/7ymd985z8f+tGX/vSpX33rsz4zwj88Fajw+MT//jGxQATvuc97UFzm+ulX//rZ3373vx/+8Zf//G2fGVhsHxaQ6cXuic947VMh/x5DAfgvAEIB/egPARNQAReQARvQAR8QAplPM+7vFihDAbxvAhzjFhDPFygjFAoQMyJQBEeQBEvQBE8QBVOw9TYjDf8sQwEQrwbYwPsqsDJiMARVEAdzUAd3kAd70Adv7zQm4PAG4APljgpK4weTUAmXkAmb0Akf8DRqYPsIMABH4wmvEAuzUAu3kAtVDzXGzwgPzzS6kAzL0AzPEA110DImgPva0A3fsA29L/HgkA7f8PjSEA/zUA/3kA+pzzK0b/gCURAHMQDusA8PERETUREX8fP+kBAfERITzxAZkRIr0RIvkQvXcPtUhhM7kROFUO5AQfgawBNLcWUOrwEmERNXkRVb0RVL0DJUYPswYwAObwKKMABS8TIIsAMn4xV/ERiDURjb7zJm0DJ6AQZjwfsMsDLuLxSNDzKGURqnkRqrcfb/LgMXA4AGJaMNvK8MHKMWD48ZJQMWvE/yVNEa01Ed15EdKw8zCLDvFAAyagAeQYHxwFDuGgD8HGP/EK/4KqMdA1IgBxIYMUP8IE8Uuw8h95ENCgEfQ5H75DAAQIEhJYMgLxIjMxIRcw8Qe48iJSMfHnL4EKEiLZL9JgAlU1IlV5IlW9IlXxImY1ImZ5Ima9ImbxInc1Ind5Ine9InfxIog1Ioh5Ioi9IojxIpk1IpaXIzbkEiEW8CoBEyBuApQ3HxMGMpd7IatpIru9IrvxIsw1Isx5Isy9IszxIt01It15It29It3xIu41Iu55Iu69Iu7xIv81Iv95Iv+/IsOeMEYfTu8UTxFmzQMmJBMEOxAW5BKinDLx8TMiNTMieTMivTMi8TMzNTMzeTMztzLmvGM71y8EaTNEvTNE8TNVNTNVeTNVvTNV8TNmNTNmeTNmvTNm8TN3NTN3eTN3vTN60uIAAAIfkEBQUA/wAs4QCaAFsBYAAACP8A/wkcSJBgIjYICw409KOhwn+DELJ5+Kvhj4f/ckh8WMsixhIbFZbw+LBJSIwoU6pcybKly5cw/0kk9NBiIowSDdVsOOihxF8YLe7yiVBO0IZGFUocGhPlwYQPGTpUGBFqwYpTFWq0SrBj1oIguQ4c+ZWgSbFN06pdyzbmzJ0/bhJlo1OhxZ5KEQKFy7SgxKR2kc7t27aw4cOIEytezLix48eQI0ueTLmy5cuYM2vezLmz58+gQ4seTbq06dOoU6tezbq169ewY8ueTbu27du4c+vezbu379/AgwsfTry48ePIkytfzry58+fQo0ufTr269evYs2vfzr279+/gw4v/H0++vPnz6NOrX8++vfv38OPLn0+/vv37+PPr3w97x8mCdGwg4EMX/DcQFAJugNEDBgr0QIIYQdHgPx1AqBAdE/6zg4UF+YdWbxh+qCGHBHk40UMBDqhQgR8iqKJCDH744IsFSfhhhTQOFOKJCm3YkokYpajgihO6OCSME854ZI0T4rikjhlumKNAQAq3I0ZSPkllhkISWCSJBMXIY5hgHthkmf9c+ZCP/LXp5ptwxinnnHTWaeedeOap55589unnn4AGKuighBZq6KGIJqrooow26uijkEYq6aSUVmrppZhmqummnHbq6aeghirqqKSWaqqppbzykCqsLoFRKbAq/7IqqxI8BGspk2DEqipw2AorCLqyCqxCt/Y6qyq5EgtrrQrtKqtztw7brLC+lmLstMhWy2xBu37yKqyuYqtqteNy22pLqR4brrKlPGuuKtsSdGuy2F4r76/BqiLtvdbmSy+/8Q7k7HPR5rvvQMX6q+2x3la7LkG7llvQrRILfO6pGGes8cYcd+zxxyCHLPLIJJds8skop6zyyiy37PLLMMcs88w012zzzTjnrPPOPPfs889ABy00yE+NSZBUF1E1IVZJazWhV02DNSFZUZuVIXlvBRYXTgjVVdBdc+2lNWED/XXUD4ARtBRiRWOE9ENVGS0Q0xhtJfc/UH80NUkKnR51d3lZf92QXHnRBRdeful1NtkCmQ1X2mUjxDhGAQEAIfkEBQUA/wAs4gCaAFkBYAAACP8A/wkcSFAgGzYFBxr6wTDhv0EHESb8xfCHw385IjqsVfFiCY0JS3R02ARkwTcNL6pcybKly5cwY8KMSMhhxUQXIxqyyXCQw4i/Llbc9fOgHKEMjyY0KXPgwYsLUxaE+HTiyIQZqxbkKLXgR60ERXYlWBLsQJQWm6pdy7atW5o8f+AsymZnwoo+lx4MGpeoXjZK7yal67aw4cOIEytezLix48eQI0ueTLmy5cuYM2vezLmz58+gQ4seTbq06dOoU6tezbq169ewY8ueTbu27du4c+vezbu379/AgwsfTry48ePIkytfzry58+fQo0ufTr269evYs2vfzr279+/gw4v/H0++vPnz6NOrX8++vfv38OPLn0+/vv37+PPr39/e7EA6GwTo0AVMDQRFgBtc9ECBAj2A4EVQMPhPBw8mRIeE/+xQYUE7YJjBbnT04J9AGgqYUIcj/gOgiQUROOKBLBa04IgOxkhQhCNSaKNAF6ZYYoIspbgikC1KCCORMkpYI5I3Sqgjkzxi+KNDKEqU0Ie60VGAjxsSVOVFQw5oZJcEzWhlmWQa6GSaKkrJJn9wxinnnHTWaeedeOap55589unnn4AGKuighBZq6KGIJqrooow26uijkEYq6aSUVmrppZhmqummnHbq6aeghirqqKSWauqpqKY6aimsvuKQKrAu/3ERq6Uo8iqsEjhE6yQXwaoKHLqyCkKvsA6bEK3A3qoKr8eymmtCvtp6XLIF0WostMUGWwq1BfnKbLXOKvvJrKzKiq0qrmqbbrewskTrugT5am6ztSr7LLilfMvur9peu6+/AyFL7LLa3hsvrNIax23Awg4MsEACK6svw6UYPJCv42o778HoklsKvBe3q+rIJJds8skop6zyyiy37PLLMMcs88w012zzzTjnrPPOPPfs889ABy300EQXbfTRSCet9NJMNx1qilGlNZWEFI01UFZnDsSV1F5JKBbXZEmIVnpwCSZXTgfZVRBedPFltl8FRRTY2oP99VbWCl1FEFV4/ylTNdhXS7i1R17rHfaIY6NXNt1n06U2QWz/5TbjcBMkN1I/zO1UigMFBAAh+QQFBQD/ACzlAJoAUwFgAAAI/wD/CRxIsOA/Qz8SGvw3iI3Dhb8S/lj4L4dDNgtrSaRY4uLCEhsXNvFo8E1IiihTqlzJsqXLlyl/EFp4kc3MghJ/JKJ50ZDBnIMM1vy1MOcuoRflFJWoFOZKhAoNNnxoMGJUgxapFtR4tWBHrQRBdiU4EuxAk2Odql3Ltq1LmTwd3iSYcydShz5xSgxacOjShEf7Jv37o6nbw4gTK17MuLHjx5AjS55MubLly5gza97MubPnz6BDix5NurTp06hTq17NurXr17Bjy55Nu7bt27hz697Nu7fv38CDCx9OvLjx48iTK1/OvLnz59CjS59Ovbr169iza9/Ovbv37+DDi/8fT768+fPo06tfz769+/fw48ufT7++/fv48+vfzz86nQ0ABkjQBTWBBUWAAhL0QIEYDfQAggAWBAWDBHUA4QYE0UEhQTtcyOGGA/2HIAC7qWJiQR1C+GGBBYmI4IAg/nOgigrG+CCNA03I4kAW4viPhjsOlOKLK7mYoEAEBimjhzUqeSOROcbYI5Q/xvjPkEdeaaWRG5Com4mqoMikQDtsOeY/SdZE0IxU/rOgk2fKKOWZQKrJYZz95annnnz26eefgAYq6KCEFmrooYgmquiijDbq6KOQRirppJRWaumlmGaq6aacdurpp6CGKuqopJZq6qmopqrqqqy26uqrsMb/KutupdT6ykJgLkFRraUogquJEizE6yQUgQmHsLWCUKyJyhrE67G/qkKss7UGa1CYyRmLbCnNXsvsttB6K+221hYE5ie71qqruLdu2y5LvL5LUK7p9hptuQQNu6wq4eab7L7d+ltKv/OaOG1BvOI7ELbIaUsttwCDu+/BAiss0Ln1rmuuifIK3PGsIIcs8sgkl2zyySinrPLKLLfs8sswxyzzzDTXbPPNOOes88489+zzz0AHLfTQRBdt9NFIJ620bFBNJBVJBVnlNFZQE8TV1F5VPZBYWJOltUBodS0eXHfZ9JNEdgmG19kJ8UWQX2z/ENjbg8VtmGJNLzRVg1GfL1RQVnxb7XdYX//DNUVlBX7W4GPPRbdccaf9OBt50bVX2UTFPfdANd09UE6eoxQQACH5BAUFAP8ALOgAmgBUAWAAAAj/AP8JHEjQ0I+DBAcOYsMwocBfB384FJiDIZuJtSJO/FfC4sQSGic28ejwTciNKFOqXMmypcuXLSP+IDTRIhuaCWUmqmnRkEOZgxza/DVR5i6hFuUUjagUpkODCB0ubOgQYlSHFakmzHg1YUetBEF2JTgS7ECTY52qXcu2rVqZOBPajDtQJ0+GPnNGDCrXItGfEY/2ZdhU78HCbhMrXsy4sePHkCNLnky5suXLmDNr3sy5s+fPoEOLHk26tOnTqFOrXs26tevXsGPLnk27tu3buHPr3s27t+/fwIMLH068uPHjyJMrX868ufPn0KNLn069uvXr2LNr3869u/fv4MOL/x9Pvrz58+jTq1/Pvr379/Djy59Pv779+/jz69/Pv7//9HRsIOBEF5CUEBQCbrDRAwYS9ECCG0HR4EAdQOgQHRMOtIOFCe2QoUABDnjchiJ2+OE/ISroUIFmCYRgiQkx2OI/D8JIkIQzVmgjiCeSqKKJF13IIUEsBnngkA5+WOOPB36oI5MDYTjjPz5O5OGUKSJXpUNXGplQlit++CKUA8noZZlIDoTjmQI9OZGUbAq0JZD/1WnnnXjmqeeefPbp55+ABirooIQWauihiCaq6KKMNuroo5BGKumklFZq6aWYZqrpppx26umnoIYq6qiklmrqqaimquqqrLbqKnilxP/6ykSq1LrERrGWogittUowUa6TbFSrKnD8GisIwtaKrEO5FsurKsEyG6uv0w3rbEK5LuvQsNoS1Gyy0BpbCrUJDfsJrrHeum2ts4rbbku5vkvQsOpKq+uz5Hoba7TrEitut/MqK+615dbKr77jUmftv+ACLNC3zx48UK75DmQuuqXUG7Aq8iLc8asghyzyyCSXbPLJKKes8sost+zyyzDHLPPMNNds880456zzzjz37PPPQAct9NBEF2300UgnrTRzUEkk1YdWOY3Vh1xJ7dWHYllN1odoaY0eXHfdBNhBOyGF19g/8EXQUEsdJNjaSbX9A2JrNT3RVHFGvVFWcVYpvdFXcWa9UVlxdt0e2GaLbdgPZQ/GRl4EAZX4X4u/PZBNdAskU+YbBQQAIfkEBQUA/wAs4QCaAFkBYAAACP8A/wkcSLCgwYMIEypcyLChw4cQI0qcSLFiwh8YfxA6yKYjm40FM/5IxNGjIYMiBxn0yObXQZG7VnqU8xKjxZs4c+rcybOnT4giQRZkKXSgSJIyO54MmVHlUI8uUWaM+bQjTak/fmrdyrWr169gw4odS7as2bNo06pdy7at27dw48qdS7eu3bt48+rdy7ev37+AAwseTLiw4cOIEytezLix48eQI0ueTLmy5cuYM2vezLmz58+gQ4seTbq06dOoU6tezbq169ewY8ueTbu27du4c+vezbu379/AgwsfTry48ePIkyt/S2dDwgtsEkJxnvBBdIQPqCOEcv1gB+0G6XT/P7gDfMEd48Obd1w+IXqFzZ+nJzhdofXq6+nPH/g9oXiF7SH0HkPxIQSddPkNdB92CQrEXUL9IfSfew0OKGGDigVI3n4DFXjQgdthuOBB2Sn0IEIRHjShgBVyuNyLMMYo44w01mjjjTjmqOOOPPbo449ABinkkEQWaeSRSCap5JJMNunkk1BGKeWUVFZp5ZVYZqnlllx26eWXYIYp5phklmnmmWgapooqrxxUypultFnQmmsu4SacihhEpyoSGARnKZMctCccfsIJgqB0HlrQn4TqSWegi8LZ52aDFvqmonMmamkpjWa6JqQE/TkpQXt+cuebdnrK5qlxKrSmnJG+qwnrQHumGmspeao66kB/gkoqnZ3yaiiia2Iq7JvB0vroprtiVumtxipb7KbJCrSnrwKJ6uiapm5qq7SrbjprmuSWa+656Kar7rrstuvuu/DGK++89NZr77345qvvvvz26++/AAcs8MAEF2zwwQgnrPDCDDfs8MOLBVVSR0UJdNTEbCxFUEpJtVQTRlQRxNJVTGUFscQdV/zPxR1rbFRTHUdV8g8hDzTyxwoFBAAh+QQFBQD/ACzjAJoAVgFgAAAI/wD/CRxI8N+PgwcLDmLDkGHBXwgTFszR0CHBWhF/FPxXoiKbgiUybmziseAbkQUtblzJsqXLlzBjypz5kk2ilQgJsWyocyPCmysbGsJ5cFBQhr9YItx1lI0cmi9RDlxY8aHUgRSrXrwqsKPWgSEjjixJ8KTYlB+hql3Ltq1bm0R/9NzIMy5QugyH+izaNGlcpniduh1MuLDhw4gTK17MuLHjx5AjS55MubLly5gza97MubPnz6BDix5NurTp06hTq17NurXr17Bjy55Nu7bt27hz697Nu7fv38CDCx9OvLjx48iTK1/OvLnz59CjS59Ovbr169iza9/Ovbv37+DDi/8fT768+fPo06tfz769+/fw48ufT7++/fv48+sfvKHlhbQrQdFfSw8AuNEDA7IEhYEFdZDgRnQwWNAOD04oIUF0VEjQBbtR2NIOFw6UoX8h/iOgSwUSqCFBC7bkYEsRuuQhSyC+tKJA/7V0IoElIuhSiyy9yFKMH974T40wGsmhbjOuhOSQSpa4I0spUmmkiSUKuRKRNBr55H5ghinmmGSWaeaZaKap5ppstunmm3DGKeecdNZp55145qnnnnz26eefgAYq6KCEFmrooYgmquiijDbq6KOQRirppJRWaumlmGaanSqqvNJSKaV4uhKnS3xaiiIscSoBS6BO0hKncLD/WgoIr6pC60qgxpqqKq7iWspxvY6qiq4bgXqrsMcWlGutwSpbyqrCfmJqqcKKimut1hYb6q7U+oqqsNBq22xBsMqaLLm2ykrsRpyOOxCowNa6LkHG1nruu6XMS1C7soaLrrSydotutspqavDBCCes8MIMN+zwwxBHLPHEFFds8cUYZ6zxxhx37PHHIIcs8sgkl2zyySinrPLKLLfs8sswU8cVVQ1ZdRZBWdW81c1gkQUWV/+Q9JVAZiFEFzbiwbWXXDsxNBdBPzXNhl4FIWRUYH4tDRhaghk2s88CQcSzQDmrJBBGY3MENkdAC63zQEVLRBAbPSR9F9QHPT2303ZJEU013j9czXXWVR+09d5dyxQQADs=;" vertex="1" parent="1">
                    <mxGeometry x="217.39" y="790" width="320" height="160" as="geometry"/>
                </mxCell>
            </root>
        </mxGraphModel>
    </diagram>
</mxfile>